<svg width="56" height="60" viewBox="0 0 56 60" fill="none" xmlns="http://www.w3.org/2000/svg">
<mask id="mask0" mask-type="alpha" maskUnits="userSpaceOnUse" x="5" y="4" width="46" height="56">
<path d="M47 4H9C6.79086 4 5 5.79086 5 8V56C5 58.2091 6.79086 60 9 60H47C49.2091 60 51 58.2091 51 56V8C51 5.79086 49.2091 4 47 4Z" fill="white"/>
</mask>
<g mask="url(#mask0)">
<path d="M47 4H9C6.79086 4 5 5.79086 5 8V56C5 58.2091 6.79086 60 9 60H47C49.2091 60 51 58.2091 51 56V8C51 5.79086 49.2091 4 47 4Z" fill="#4241A8" fill-opacity="0.1"/>
<g opacity="0.5" filter="url(#filter0_f)">
<path fill-rule="evenodd" clip-rule="evenodd" d="M32 19H4C2.89543 19 2 18.1046 2 17V4L0.200001 1.6C-0.131371 1.15817 -0.0418282 0.531372 0.400002 0.200001C0.573097 0.070179 0.78363 0 1 0H32C33.1046 0 34 0.89543 34 2V17C34 18.1046 33.1046 19 32 19Z" fill="#4241A8"/>
</g>
<path opacity="0.1" d="M51 60H5V46H51V60Z" fill="#4241A8"/>
<path opacity="0.4" d="M35 49H10C8.89543 49 8 49.8954 8 51V55C8 56.1046 8.89543 57 10 57H35C36.1046 57 37 56.1046 37 55V51C37 49.8954 36.1046 49 35 49Z" fill="white"/>
<path d="M46 49H42C40.8954 49 40 49.8954 40 51V55C40 56.1046 40.8954 57 42 57H46C47.1046 57 48 56.1046 48 55V51C48 49.8954 47.1046 49 46 49Z" fill="#4241A8" fill-opacity="0.2"/>
<path d="M46 16C47.1046 16 48 15.1046 48 14C48 12.8954 47.1046 12 46 12C44.8954 12 44 12.8954 44 14C44 15.1046 44.8954 16 46 16Z" fill="#4241A8" fill-opacity="0.2"/>
<path d="M10 38C11.1046 38 12 37.1046 12 36C12 34.8954 11.1046 34 10 34C8.89543 34 8 34.8954 8 36C8 37.1046 8.89543 38 10 38Z" fill="#4241A8" fill-opacity="0.2"/>
</g>
<path fill-rule="evenodd" clip-rule="evenodd" d="M17 38H52C53.1046 38 54 37.1046 54 36V26L55.8 23.6C56.1314 23.1582 56.0418 22.5314 55.6 22.2C55.4269 22.0702 55.2164 22 55 22H17C15.8954 22 15 22.8954 15 24V36C15 37.1046 15.8954 38 17 38Z" fill="#4241A8"/>
<path fill-rule="evenodd" clip-rule="evenodd" d="M39 16H4C2.89543 16 2 15.1046 2 14V4L0.200001 1.6C-0.131371 1.15817 -0.0418282 0.53137 0.400002 0.2C0.573097 0.070178 0.78363 0 1 0H39C40.1046 0 41 0.895431 41 2V14C41 15.1046 40.1046 16 39 16Z" fill="#4241A8"/>
<defs>
<filter id="filter0_f" x="-20" y="-20" width="74.0001" height="59" filterUnits="userSpaceOnUse" color-interpolation-filters="sRGB">
<feFlood flood-opacity="0" result="BackgroundImageFix"/>
<feBlend mode="normal" in="SourceGraphic" in2="BackgroundImageFix" result="shape"/>
<feGaussianBlur stdDeviation="10" result="effect1_foregroundBlur"/>
</filter>
</defs>
</svg>
