<svg width="60" height="60" viewBox="0 0 60 60" fill="none" xmlns="http://www.w3.org/2000/svg">
<rect width="59.9996" height="59.9996" rx="29.9998" fill="#1B2448"/>
<path d="M11.1904 19.3528C11.1904 18.5945 11.6099 17.8985 12.2803 17.5443L27.4523 9.52806C29.0467 8.6857 30.9543 8.6857 32.5486 9.52806L47.7206 17.5443C48.391 17.8985 48.8105 18.5945 48.8105 19.3528V40.6468C48.8105 41.4051 48.391 42.1011 47.7206 42.4553L32.5486 50.4715C30.9543 51.3139 29.0467 51.3139 27.4523 50.4715L12.2803 42.4553C11.6099 42.1011 11.1904 41.4051 11.1904 40.6468V19.3528Z" fill="url(#paint0_linear)" fill-opacity="0.3" stroke="white" stroke-width="0.681813"/>
<circle cx="29.9998" cy="29.9998" r="10.909" fill="url(#paint1_linear)"/>
<circle cx="18.4092" cy="38.8635" r="1.36376" fill="url(#paint2_linear)"/>
<circle cx="24.886" cy="15.3408" r="1.02272" fill="url(#paint3_linear)"/>
<circle cx="30.6821" cy="13.6364" r="1.36376" fill="url(#paint4_linear)"/>
<circle cx="22.4995" cy="43.6358" r="0.681606" fill="url(#paint5_linear)"/>
<circle cx="44.9995" cy="36.1359" r="0.681606" fill="url(#paint6_linear)"/>
<path d="M27.4372 9.54583C29.0393 8.69309 30.9607 8.69309 32.5628 9.54583L47.7438 17.6261C49.1897 18.3956 49.1897 20.4677 47.7439 21.2373L32.5628 29.3175C30.9607 30.1703 29.0393 30.1703 27.4372 29.3175L12.2561 21.2373C10.8103 20.4677 10.8103 18.3956 12.2561 17.6261L27.4372 9.54583Z" fill="url(#paint7_linear)" fill-opacity="0.8" stroke="white" stroke-width="0.681813"/>
<defs>
<linearGradient id="paint0_linear" x1="30.0002" y1="51.8178" x2="30.0002" y2="8.18176" gradientUnits="userSpaceOnUse">
<stop stop-color="#FF6A3E"/>
<stop offset="1" stop-color="#FF6A3E" stop-opacity="0"/>
</linearGradient>
<linearGradient id="paint1_linear" x1="29.9998" y1="19.0908" x2="29.9998" y2="40.9088" gradientUnits="userSpaceOnUse">
<stop stop-color="#FF6A3E"/>
<stop offset="1" stop-color="#FF464A"/>
</linearGradient>
<linearGradient id="paint2_linear" x1="18.4092" y1="37.4997" x2="18.4092" y2="40.2273" gradientUnits="userSpaceOnUse">
<stop stop-color="#FF6A3E"/>
<stop offset="1" stop-color="#FF464A"/>
</linearGradient>
<linearGradient id="paint3_linear" x1="24.886" y1="14.3181" x2="24.886" y2="16.3635" gradientUnits="userSpaceOnUse">
<stop stop-color="#FF6A3E"/>
<stop offset="1" stop-color="#FF464A"/>
</linearGradient>
<linearGradient id="paint4_linear" x1="30.6821" y1="12.2726" x2="30.6821" y2="15.0002" gradientUnits="userSpaceOnUse">
<stop stop-color="#FF6A3E"/>
<stop offset="1" stop-color="#FF464A"/>
</linearGradient>
<linearGradient id="paint5_linear" x1="22.4995" y1="42.9542" x2="22.4995" y2="44.3175" gradientUnits="userSpaceOnUse">
<stop stop-color="#FF6A3E"/>
<stop offset="1" stop-color="#FF464A"/>
</linearGradient>
<linearGradient id="paint6_linear" x1="44.9995" y1="35.4543" x2="44.9995" y2="36.8175" gradientUnits="userSpaceOnUse">
<stop stop-color="#FF6A3E"/>
<stop offset="1" stop-color="#FF464A"/>
</linearGradient>
<linearGradient id="paint7_linear" x1="30" y1="19.0908" x2="30" y2="30.6816" gradientUnits="userSpaceOnUse">
<stop stop-color="white" stop-opacity="0"/>
<stop offset="0.0666667" stop-color="white" stop-opacity="0.01"/>
<stop offset="0.133333" stop-color="white" stop-opacity="0.03551"/>
<stop offset="0.2" stop-color="white" stop-opacity="0.0816599"/>
<stop offset="0.266667" stop-color="white" stop-opacity="0.147411"/>
<stop offset="0.333333" stop-color="white" stop-opacity="0.231775"/>
<stop offset="0.4" stop-color="white" stop-opacity="0.331884"/>
<stop offset="0.466667" stop-color="white" stop-opacity="0.442691"/>
<stop offset="0.533333" stop-color="white" stop-opacity="0.557309"/>
<stop offset="0.6" stop-color="white" stop-opacity="0.668116"/>
<stop offset="0.666667" stop-color="white" stop-opacity="0.768225"/>
<stop offset="0.733333" stop-color="white" stop-opacity="0.852589"/>
<stop offset="0.8" stop-color="white" stop-opacity="0.91834"/>
<stop offset="0.866667" stop-color="white" stop-opacity="0.96449"/>
<stop offset="0.933333" stop-color="white" stop-opacity="0.991353"/>
<stop offset="1" stop-color="white"/>
</linearGradient>
</defs>
</svg>
