<svg width="24" height="24" viewBox="0 0 24 24" fill="none" xmlns="http://www.w3.org/2000/svg">
<path d="M19 10.7143C19 10.2596 18.8265 9.82359 18.5176 9.5021C18.2087 9.18061 17.7898 9 17.3529 9H6.64706C6.21023 9 5.7913 9.18061 5.48241 9.5021C5.17353 9.82359 5 10.2596 5 10.7143V19.2857C5 19.7404 5.17353 20.1764 5.48241 20.4979C5.7913 20.8194 6.21023 21 6.64706 21H17.3529C17.7898 21 18.2087 20.8194 18.5176 20.4979C18.8265 20.1764 19 19.7404 19 19.2857V10.7143Z" stroke="#1B2448" stroke-width="2" stroke-linecap="round" stroke-linejoin="round"/>
<path d="M8 6.66667C8 5.69421 8.42143 4.76158 9.17157 4.07394C9.92172 3.38631 10.9391 3 12 3C13.0609 3 14.0783 3.38631 14.8284 4.07394C15.5786 4.76158 16 5.69421 16 6.66667V9H8V6.66667Z" stroke="#1B2448" stroke-width="2" stroke-linecap="round" stroke-linejoin="round"/>
<path d="M12 17C13.1046 17 14 16.1046 14 15C14 13.8954 13.1046 13 12 13C10.8954 13 10 13.8954 10 15C10 16.1046 10.8954 17 12 17Z" stroke="#1B2448" stroke-width="2" stroke-linecap="round" stroke-linejoin="round"/>
</svg>
