<svg width="16" height="16" viewBox="0 0 16 16" fill="none" xmlns="http://www.w3.org/2000/svg">
<path fill-rule="evenodd" clip-rule="evenodd" d="M13.5865 5.41842C13.8513 5.68633 14 6.04969 14 6.42857V13.5714C14 13.9503 13.8513 14.3137 13.5865 14.5816C13.3217 14.8495 12.9627 15 12.5882 15H3.41176C3.03734 15 2.67825 14.8495 2.4135 14.5816C2.14874 14.3137 2 13.9503 2 13.5714V6.42857C2 6.04969 2.14874 5.68633 2.4135 5.41842C2.67825 5.15051 3.03734 5 3.41176 5H12.5882C12.9627 5 13.3217 5.15051 13.5865 5.41842ZM11.5303 8.53033C11.8232 8.23744 11.8232 7.76256 11.5303 7.46967C11.2374 7.17678 10.7626 7.17678 10.4697 7.46967L7 10.9393L5.53033 9.46967C5.23744 9.17678 4.76256 9.17678 4.46967 9.46967C4.17678 9.76256 4.17678 10.2374 4.46967 10.5303L6.46967 12.5303C6.76256 12.8232 7.23744 12.8232 7.53033 12.5303L11.5303 8.53033Z" fill="#8D91A3"/>
<path d="M11 6V4.05556C11 3.24517 10.6839 2.46798 10.1213 1.89495C9.55871 1.32192 8.79565 1 8 1C7.20435 1 6.44129 1.32192 5.87868 1.89495C5.31607 2.46798 5 3.24517 5 4.05556V6" stroke="#8D91A3" stroke-width="1.5" stroke-linecap="round" stroke-linejoin="round"/>
</svg>
