<svg width="52" height="60" viewBox="0 0 52 60" fill="none" xmlns="http://www.w3.org/2000/svg">
<mask id="mask0" mask-type="alpha" maskUnits="userSpaceOnUse" x="6" y="4" width="47" height="56">
<path d="M48.0001 4H10.0001C7.79098 4 6.00012 5.79086 6.00012 8V56C6.00012 58.2091 7.79098 60 10.0001 60H48.0001C50.2093 60 52.0001 58.2091 52.0001 56V8C52.0001 5.79086 50.2093 4 48.0001 4Z" fill="white"/>
</mask>
<g mask="url(#mask0)">
<path d="M48.0001 4H10.0001C7.79098 4 6.00012 5.79086 6.00012 8V56C6.00012 58.2091 7.79098 60 10.0001 60H48.0001C50.2093 60 52.0001 58.2091 52.0001 56V8C52.0001 5.79086 50.2093 4 48.0001 4Z" fill="#4241A8" fill-opacity="0.1"/>
<path opacity="0.1" d="M52.0001 60H6.00012V46H52.0001V60Z" fill="#4241A8"/>
<path opacity="0.4" d="M36.0001 49H11.0001C9.89555 49 9.00012 49.8954 9.00012 51V55C9.00012 56.1046 9.89555 57 11.0001 57H36.0001C37.1047 57 38.0001 56.1046 38.0001 55V51C38.0001 49.8954 37.1047 49 36.0001 49Z" fill="white"/>
<path d="M47 49H43C41.8954 49 41 49.8954 41 51V55C41 56.1046 41.8954 57 43 57H47C48.1046 57 49 56.1046 49 55V51C49 49.8954 48.1046 49 47 49Z" fill="#4241A8" fill-opacity="0.2"/>
<path d="M47 16C48.1046 16 49 15.1046 49 14C49 12.8954 48.1046 12 47 12C45.8954 12 45 12.8954 45 14C45 15.1046 45.8954 16 47 16Z" fill="#4241A8" fill-opacity="0.2"/>
<path d="M11.0001 38C12.1047 38 13.0001 37.1046 13.0001 36C13.0001 34.8954 12.1047 34 11.0001 34C9.89555 34 9.00012 34.8954 9.00012 36C9.00012 37.1046 9.89555 38 11.0001 38Z" fill="#4241A8" fill-opacity="0.2"/>
<g opacity="0.5" filter="url(#filter0_f)">
<path d="M2.15943 18.7385C2.60443 20.0335 3.86443 20.8818 5.15943 20.9352C5.76776 21.0252 6.2311 20.7918 10.3128 19.4352L13.0178 27.4718L8.96443 28.8202C7.26776 29.3752 6.36609 31.2218 6.91109 32.9202C7.35609 34.2152 8.61609 35.0635 9.91109 35.1168C10.5194 35.2068 10.9828 34.9735 15.0644 33.6152L16.4661 37.8118C16.9944 39.3202 18.6711 40.4002 20.5728 39.8552C22.2778 39.3002 23.1711 37.4618 22.6261 35.7552L21.2244 31.5585L29.5811 28.7635L30.9828 32.9602C31.5111 34.4685 33.1878 35.5485 35.0894 35.0035C36.7944 34.4485 37.6878 32.6102 37.1428 30.9035L35.7411 26.7068L39.7944 25.3585C41.4911 24.8235 42.3927 22.9735 41.8378 21.2785L41.8361 21.2768C41.2811 19.5802 39.4344 18.6785 37.7294 19.2335L33.6761 20.5818L30.9711 12.5452L35.0244 11.1968C36.7294 10.6418 37.6228 8.80349 37.0778 7.09683C36.5228 5.40016 34.6761 4.49849 32.9711 5.05349L28.9161 6.40349L27.5144 2.20683C26.9594 0.510161 25.1128 -0.391506 23.4078 0.163494C21.7028 0.718494 20.8094 2.55683 21.3544 4.26349L22.7561 8.46016L14.4161 11.2452L13.0144 7.04849C12.4594 5.35016 10.6128 4.45016 8.90776 5.00349C7.20276 5.55849 6.30943 7.39683 6.85443 9.10349L8.25609 13.3002L4.21276 14.6385C2.50776 15.1935 1.61443 17.0318 2.15943 18.7385ZM24.7894 14.6468L27.4944 22.7018L19.1461 25.4968L16.4411 17.4435L24.7894 14.6468Z" fill="#4241A8"/>
</g>
</g>
<path d="M0.160162 18.7383C0.605161 20.0333 1.86516 20.8816 3.16016 20.935C3.76849 21.025 4.23183 20.7916 8.31349 19.435L11.0185 27.4716L6.96516 28.82C5.26849 29.375 4.36683 31.2216 4.91183 32.92C5.35683 34.215 6.61683 35.0633 7.91183 35.1166C8.52016 35.2066 8.98349 34.9733 13.0652 33.615L14.4668 37.8116C14.9952 39.32 16.6718 40.4 18.5735 39.855C20.2785 39.3 21.1718 37.4616 20.6268 35.755L19.2252 31.5583L27.5818 28.7633L28.9835 32.96C29.5118 34.4683 31.1885 35.5483 33.0902 35.0033C34.7952 34.4483 35.6885 32.61 35.1435 30.9033L33.7418 26.7066L37.7952 25.3583C39.4918 24.8233 40.3935 22.9733 39.8385 21.2783L39.8368 21.2766C39.2818 19.58 37.4352 18.6783 35.7302 19.2333L31.6768 20.5816L28.9718 12.545L33.0252 11.1966C34.7302 10.6416 35.6235 8.80329 35.0785 7.09662C34.5235 5.39995 32.6768 4.49829 30.9718 5.05329L26.9168 6.40329L25.5152 2.20662C24.9602 0.509955 23.1135 -0.391712 21.4085 0.163288C19.7035 0.718288 18.8102 2.55662 19.3552 4.26329L20.7568 8.45995L12.4168 11.245L11.0152 7.04829C10.4602 5.34995 8.61349 4.44995 6.90849 5.00329C5.20349 5.55829 4.31016 7.39662 4.85516 9.10329L6.25683 13.3L2.21349 14.6383C0.508495 15.1933 -0.384838 17.0316 0.160162 18.7383ZM22.7902 14.6466L25.4952 22.7016L17.1468 25.4966L14.4418 17.4433L22.7902 14.6466Z" fill="#4241A8"/>
<defs>
<filter id="filter0_f" x="-18" y="-20" width="80.0012" height="79.9985" filterUnits="userSpaceOnUse" color-interpolation-filters="sRGB">
<feFlood flood-opacity="0" result="BackgroundImageFix"/>
<feBlend mode="normal" in="SourceGraphic" in2="BackgroundImageFix" result="shape"/>
<feGaussianBlur stdDeviation="10" result="effect1_foregroundBlur"/>
</filter>
</defs>
</svg>
