<svg width="56" height="60" viewBox="0 0 56 60" fill="none" xmlns="http://www.w3.org/2000/svg">
<mask id="mask0" mask-type="alpha" maskUnits="userSpaceOnUse" x="4" y="4" width="52" height="56">
<path d="M8 4H52C54.2091 4 56 5.79086 56 8V56C56 58.2091 54.2091 60 52 60H8C5.79086 60 4 58.2091 4 56V8C4 5.79086 5.79086 4 8 4Z" fill="white"/>
</mask>
<g mask="url(#mask0)">
<path d="M8 4H52C54.2091 4 56 5.79086 56 8V56C56 58.2091 54.2091 60 52 60H8C5.79086 60 4 58.2091 4 56V8C4 5.79086 5.79086 4 8 4Z" fill="#EBEBFF"/>
<path opacity="0.2" d="M35 38H13C12.4477 38 12 38.4477 12 39V41C12 41.5523 12.4477 42 13 42H35C35.5523 42 36 41.5523 36 41V39C36 38.4477 35.5523 38 35 38Z" fill="#4241A8"/>
<path opacity="0.2" d="M47 12H13C12.4477 12 12 12.4477 12 13V31C12 31.5523 12.4477 32 13 32H47C47.5523 32 48 31.5523 48 31V13C48 12.4477 47.5523 12 47 12Z" fill="#4241A8"/>
<path fill-rule="evenodd" clip-rule="evenodd" d="M8 52H52C54.2091 52 56 50.2091 56 48V60H8C5.79086 60 4 58.2091 4 56C4 53.7909 5.79086 52 8 52Z" fill="#C7C8FF"/>
<g opacity="0.499419" filter="url(#filter0_f)">
<path d="M37.8 -4H-0.8C-3.67188 -4 -6 -1.67188 -6 1.2V26.8C-6 29.6719 -3.67188 32 -0.8 32H37.8C40.6719 32 43 29.6719 43 26.8V1.2C43 -1.67188 40.6719 -4 37.8 -4Z" fill="#4241A8"/>
</g>
</g>
<path d="M34 0H4C1.79086 0 0 1.79086 0 4V24C0 26.2091 1.79086 28 4 28H34C36.2091 28 38 26.2091 38 24V4C38 1.79086 36.2091 0 34 0Z" fill="#4241A8"/>
<path fill-rule="evenodd" clip-rule="evenodd" d="M21.4806 14.8682L17.4961 17.145C17.0166 17.419 16.4058 17.2524 16.1318 16.7729C16.0454 16.6218 16 16.4508 16 16.2768V11.7231C16 11.1709 16.4477 10.7231 17 10.7231C17.174 10.7231 17.345 10.7686 17.4961 10.8549L21.4806 13.1317C21.9601 13.4057 22.1267 14.0166 21.8527 14.4961C21.7641 14.6511 21.6356 14.7796 21.4806 14.8682Z" fill="white"/>
<defs>
<filter id="filter0_f" x="-26" y="-24" width="89" height="76" filterUnits="userSpaceOnUse" color-interpolation-filters="sRGB">
<feFlood flood-opacity="0" result="BackgroundImageFix"/>
<feBlend mode="normal" in="SourceGraphic" in2="BackgroundImageFix" result="shape"/>
<feGaussianBlur stdDeviation="10" result="effect1_foregroundBlur"/>
</filter>
</defs>
</svg>
