<?xml version="1.0" encoding="utf-8"?>
<!-- Generator: Adobe Illustrator 16.0.4, SVG Export Plug-In . SVG Version: 6.00 Build 0)  -->
<!DOCTYPE svg PUBLIC "-//W3C//DTD SVG 1.1//EN" "http://www.w3.org/Graphics/SVG/1.1/DTD/svg11.dtd">
<svg version="1.1" id="Layer_1" xmlns="http://www.w3.org/2000/svg" xmlns:xlink="http://www.w3.org/1999/xlink" x="0px" y="0px"
	 width="274.908px" height="22.078px" viewBox="0 0 274.908 22.078" enable-background="new 0 0 274.908 22.078"
	 xml:space="preserve">
<g>
	<path fill="#FFFFFF" d="M0,11.039C0,4.448,4.959,0,11.391,0c4.672,0,7.392,2.528,8.896,5.215l-3.904,1.92
		c-0.896-1.728-2.816-3.104-4.992-3.104c-3.904,0-6.719,2.976-6.719,7.007c0,4.03,2.815,7.007,6.719,7.007
		c2.176,0,4.096-1.375,4.992-3.104l3.904,1.888c-1.504,2.655-4.224,5.248-8.896,5.248C4.959,22.078,0,17.6,0,11.039z"/>
	<path fill="#FFFFFF" d="M48.831,21.693v-8.99h-10.08v8.99h-4.543V0.352h4.543v8.383h10.08V0.352h4.576v21.341H48.831z"/>
	<path fill="#FFFFFF" d="M80.862,21.693l-4.191-7.582h-3.328v7.582h-4.544V0.352h9.983c4.448,0,7.199,2.912,7.199,6.879
		c0,3.744-2.399,5.792-4.704,6.335l4.832,8.127H80.862L80.862,21.693z M81.311,7.199c0-1.76-1.376-2.848-3.168-2.848h-4.799v5.76
		h4.799C79.935,10.111,81.311,9.023,81.311,7.199z"/>
	<path fill="#FFFFFF" d="M99.551,11.039C99.551,4.607,104.256,0,110.719,0c6.432,0,11.135,4.607,11.135,11.039
		c0,6.432-4.703,11.039-11.135,11.039C104.256,22.078,99.551,17.471,99.551,11.039z M117.182,11.039c0-4-2.527-7.007-6.463-7.007
		c-3.969,0-6.496,3.008-6.496,7.007c0,3.968,2.527,7.007,6.496,7.007C114.654,18.046,117.182,15.007,117.182,11.039z"/>
	<path fill="#FFFFFF" d="M154.813,21.693V6.303l-6.016,15.391h-1.984l-6.016-15.391v15.391h-4.543V0.352h6.367l5.184,13.343
		l5.185-13.343h6.397v21.341H154.813z"/>
	<path fill="#FFFFFF" d="M210.781,21.693V4.352h-6.238v-4h17.021v4h-6.207v17.343h-4.575V21.693z"/>
	<path fill="#FFFFFF" d="M235.681,21.693V0.352h4.543v21.341H235.681z"/>
	<path fill="#FFFFFF" d="M254.621,11.039C254.621,4.448,259.582,0,266.015,0c4.67,0,7.391,2.528,8.895,5.215l-3.904,1.92
		c-0.895-1.728-2.814-3.104-4.99-3.104c-3.904,0-6.721,2.976-6.721,7.007c0,4.03,2.816,7.007,6.721,7.007
		c2.176,0,4.096-1.375,4.99-3.104l3.904,1.888c-1.504,2.655-4.225,5.248-8.895,5.248C259.582,22.078,254.621,17.6,254.621,11.039z"
		/>
</g>
<polygon fill="#FFFFFF" points="186.494,0.753 180.799,0.753 172.576,21.753 177.728,21.753 183.646,4.57 189.565,21.753 
	194.719,21.753 "/>
</svg>
