<?xml version="1.0" encoding="utf-8"?>
<!-- Generated by IcoMoon.io -->
<!DOCTYPE svg PUBLIC "-//W3C//DTD SVG 1.1//EN" "http://www.w3.org/Graphics/SVG/1.1/DTD/svg11.dtd">
<svg version="1.1" xmlns="http://www.w3.org/2000/svg" xmlns:xlink="http://www.w3.org/1999/xlink" width="32" height="32" viewBox="0 0 32 32">
<path fill="#444" d="M16 4.5c3.072 0 5.96 1.196 8.132 3.368s3.368 5.060 3.368 8.132c0 3.072-1.196 5.96-3.368 8.132s-5.060 3.368-8.132 3.368c-3.072 0-5.96-1.196-8.132-3.368s-3.368-5.060-3.368-8.132c0-3.072 1.196-5.96 3.368-8.132s5.060-3.368 8.132-3.368zM16 2c-7.732 0-14 6.268-14 14s6.268 14 14 14 14-6.268 14-14-6.268-14-14-14v0z"></path>
<path fill="#444" d="M22.781 14.781h-5.5v-5.5c0-0.69-0.56-1.25-1.25-1.25s-1.25 0.56-1.25 1.25v5.5h-5.5c-0.69 0-1.25 0.56-1.25 1.25s0.559 1.25 1.25 1.25h5.5v5.5c0 0.69 0.56 1.25 1.25 1.25s1.25-0.559 1.25-1.25v-5.5l5.5-0c0.69 0 1.25-0.56 1.25-1.25s-0.56-1.25-1.25-1.25z"></path>
</svg>
