<?xml version="1.0" encoding="utf-8"?>
<!-- Generated by IcoMoon.io -->
<!DOCTYPE svg PUBLIC "-//W3C//DTD SVG 1.1//EN" "http://www.w3.org/Graphics/SVG/1.1/DTD/svg11.dtd">
<svg version="1.1" xmlns="http://www.w3.org/2000/svg" xmlns:xlink="http://www.w3.org/1999/xlink" width="32" height="32" viewBox="0 0 32 32">
<path fill="#444" d="M28.737 26.485h-2.763v-14.616l2.773-0.001c0.428-0.004 0.842-0.227 1.072-0.624 0.345-0.598 0.14-1.362-0.458-1.707l-12.747-7.365c-0.014-0.008-0.028-0.014-0.042-0.021-0.017-0.009-0.034-0.018-0.051-0.026-0.022-0.010-0.044-0.019-0.066-0.028-0.015-0.006-0.030-0.012-0.045-0.018-0.024-0.009-0.049-0.016-0.073-0.024-0.014-0.004-0.027-0.008-0.041-0.012-0.025-0.006-0.051-0.012-0.076-0.017-0.015-0.003-0.029-0.005-0.044-0.008-0.024-0.004-0.048-0.006-0.072-0.009-0.017-0.002-0.035-0.003-0.052-0.004-0.021-0.001-0.042-0.001-0.063-0.001s-0.042 0-0.063 0.001c-0.017 0.001-0.035 0.002-0.052 0.004-0.024 0.002-0.048 0.005-0.072 0.009-0.015 0.002-0.029 0.005-0.044 0.008-0.025 0.005-0.051 0.010-0.076 0.017-0.014 0.004-0.028 0.008-0.041 0.012-0.025 0.007-0.049 0.015-0.074 0.024-0.015 0.005-0.030 0.011-0.045 0.018-0.022 0.009-0.044 0.018-0.066 0.028-0.017 0.008-0.034 0.017-0.051 0.026-0.014 0.007-0.028 0.013-0.042 0.021l-12.747 7.365c-0.598 0.345-0.803 1.11-0.458 1.707 0.229 0.397 0.644 0.62 1.072 0.624v0.001h2.808v14.616h-2.796c-0.69 0-1.25 0.56-1.25 1.25s0.56 1.25 1.25 1.25h4.009c0.013 0 0.025 0.002 0.037 0.002s0.025-0.002 0.037-0.002h5.738c0.013 0 0.025 0.002 0.037 0.002s0.025-0.002 0.037-0.002h5.738c0.013 0 0.025 0.002 0.038 0.002s0.025-0.002 0.038-0.002h9.786c0.691 0 1.25-0.56 1.25-1.25s-0.56-1.25-1.25-1.25zM23.474 26.485h-3.311v-14.616h3.311v14.616zM7.904 9.369l8.085-4.671 8.086 4.671h-16.171zM17.664 11.869v14.616h-3.313v-14.616h3.313zM8.539 11.869h3.313v14.616h-3.313v-14.616z"></path>
</svg>
