<?xml version="1.0" encoding="utf-8"?>
<!-- Generated by IcoMoon.io -->
<!DOCTYPE svg PUBLIC "-//W3C//DTD SVG 1.1//EN" "http://www.w3.org/Graphics/SVG/1.1/DTD/svg11.dtd">
<svg version="1.1" xmlns="http://www.w3.org/2000/svg" xmlns:xlink="http://www.w3.org/1999/xlink" width="32" height="32" viewBox="0 0 32 32">
<path fill="#000" d="M30.255 19.807h-4.436c0.345-0.905 0.568-1.87 0.65-2.876h3.536c0.517 0 0.938-0.421 0.938-0.938s-0.421-0.938-0.938-0.938h-22.259l0.060-0.364c0.284-1.709 1.086-3.265 2.321-4.5 1.57-1.57 3.657-2.435 5.878-2.435 1.987 0 3.908 0.71 5.409 2l0.639 0.55h-7.798c-0.517 0-0.938 0.421-0.938 0.938s0.421 0.938 0.938 0.938h14c0.793 0 1.438-0.645 1.438-1.438s-0.645-1.438-1.438-1.438c-0.552 0-1.062 0.322-1.299 0.822l-0.085 0.178h-2.089c-1.877-2.853-5.108-4.737-8.778-4.737-5.457 0-9.941 4.163-10.451 9.486h-2.414l-0.085-0.178c-0.237-0.499-0.747-0.822-1.299-0.822-0.793 0-1.438 0.645-1.438 1.438s0.645 1.438 1.438 1.438c0 0 3.784 0 3.784 0.001l18.742-0.001-0.052 0.358c-0.119 0.813-0.357 1.601-0.707 2.34l-0.085 0.179h-19.182c-0.517 0-0.938 0.421-0.938 0.938s0.421 0.938 0.938 0.938h2.874c1.861 2.938 5.14 4.888 8.875 4.888s7.014-1.95 8.875-4.888h3.992l0.085 0.178c0.237 0.499 0.747 0.822 1.299 0.822 0.793 0 1.438-0.645 1.438-1.438s-0.645-1.438-1.438-1.438zM22.189 21.682l-0.598 0.544c-1.529 1.391-3.513 2.157-5.586 2.157s-4.057-0.766-5.586-2.157l-0.598-0.544h12.368z"></path>
</svg>
