<?xml version="1.0" encoding="utf-8"?>
<!-- Generated by IcoMoon.io -->
<!DOCTYPE svg PUBLIC "-//W3C//DTD SVG 1.1//EN" "http://www.w3.org/Graphics/SVG/1.1/DTD/svg11.dtd">
<svg version="1.1" xmlns="http://www.w3.org/2000/svg" xmlns:xlink="http://www.w3.org/1999/xlink" width="32" height="32" viewBox="0 0 32 32">
<path fill="#444" d="M16.001 27.5c-3.072 0-5.96-1.196-8.132-3.368s-3.368-5.060-3.368-8.132c0-3.072 1.196-5.96 3.368-8.132s5.060-3.368 8.132-3.368c3.072 0 5.96 1.196 8.132 3.368s3.368 5.060 3.368 8.132c0 3.072-1.196 5.96-3.368 8.132s-5.060 3.368-8.132 3.368zM16.001 30c7.732 0 14-6.268 14-14s-6.268-14-14-14c-7.732 0-14 6.268-14 14s6.268 14 14 14v0zM8.363 16.833l3.906 3.92c0.487 0.489 1.279 0.49 1.768 0.003s0.49-1.279 0.003-1.768l-1.781-1.788h10.49c0.69 0 1.25-0.56 1.25-1.25s-0.56-1.25-1.25-1.25h-10.477l1.766-1.761c0.489-0.488 0.49-1.279 0.002-1.768-0.244-0.245-0.565-0.367-0.885-0.367-0.319 0-0.639 0.122-0.883 0.365l-3.906 3.896c-0.489 0.487-0.49 1.278-0.003 1.767z"></path>
</svg>
