<?xml version="1.0" encoding="utf-8"?>
<!-- Generated by IcoMoon.io -->
<!DOCTYPE svg PUBLIC "-//W3C//DTD SVG 1.1//EN" "http://www.w3.org/Graphics/SVG/1.1/DTD/svg11.dtd">
<svg version="1.1" xmlns="http://www.w3.org/2000/svg" xmlns:xlink="http://www.w3.org/1999/xlink" width="32" height="32" viewBox="0 0 32 32">
<path fill="#444" d="M21.008 22.988c0.69-0 1.25-0.56 1.25-1.25l0-3.501c0-0.69-0.56-1.25-1.25-1.25s-1.25 0.56-1.25 1.25v3.5c-0 0.691 0.56 1.25 1.25 1.25z"></path>
<path fill="#444" d="M11.008 22.988c0.69-0 1.25-0.56 1.25-1.25l0-3.501c0-0.69-0.56-1.25-1.25-1.25s-1.25 0.56-1.25 1.25v3.5c-0 0.691 0.56 1.25 1.25 1.25z"></path>
<path fill="#444" d="M16.008 22.988c0.69-0 1.25-0.56 1.25-1.25l0-3.501c0-0.69-0.56-1.25-1.25-1.25s-1.25 0.56-1.25 1.25v3.5c-0 0.691 0.56 1.25 1.25 1.25z"></path>
<path fill="#444" d="M29.697 12.419c-0.237-0.271-0.58-0.427-0.941-0.427h-9.79c0.027 0.162 0.042 0.329 0.042 0.499 0 0.769-0.29 1.47-0.765 2.001h9.084l-1.479 10.98-19.685-0.001-1.484-10.98h9.095c-0.476-0.531-0.765-1.232-0.765-2.001 0-0.17 0.015-0.337 0.042-0.499h-9.802c-0.361 0-0.704 0.156-0.941 0.427s-0.346 0.633-0.297 0.99l1.613 11.929 0.002 0.001c0.182 1.482 1.444 2.63 2.976 2.63l0.002 0.001 18.807-0.001c0.001 0 0.003 0 0.004 0 1.544 0 2.815-1.167 2.981-2.667l1.602-11.895c0.048-0.357-0.060-0.718-0.298-0.99z"></path>
<path fill="#444" d="M25.172 3.292c-0.488-0.488-1.28-0.488-1.768 0l-7.209 7.209c-0.064-0.006-0.129-0.010-0.195-0.010-1.105 0-2 0.895-2 2s0.895 2 2 2 2-0.895 2-2c0-0.083-0.006-0.164-0.015-0.245l7.187-7.187c0.488-0.488 0.488-1.28 0-1.768z"></path>
</svg>
