<?xml version="1.0" encoding="utf-8"?>
<!-- Generated by IcoMoon.io -->
<!DOCTYPE svg PUBLIC "-//W3C//DTD SVG 1.1//EN" "http://www.w3.org/Graphics/SVG/1.1/DTD/svg11.dtd">
<svg version="1.1" xmlns="http://www.w3.org/2000/svg" xmlns:xlink="http://www.w3.org/1999/xlink" width="32" height="32" viewBox="0 0 32 32">
<path fill="#444" d="M26.52 24.705l-6.52-11.293v-7.877h0.75c0.69 0 1.25-0.56 1.25-1.25s-0.56-1.25-1.25-1.25h-9.5c-0.69 0-1.25 0.56-1.25 1.25s0.56 1.25 1.25 1.25h0.75v7.877l-6.52 11.293c-1.375 2.381-0.25 4.33 2.5 4.33h16.040c2.75 0 3.875-1.949 2.5-4.33zM14.5 5.535h3l-0.002 8.543 1.996 3.457h-6.99c1.123-1.946 1.996-3.459 1.996-3.459v-8.541zM24.020 26.535h-16.040c-0.259 0-0.443-0.030-0.561-0.063 0.031-0.119 0.097-0.294 0.227-0.518 0 0 1.706-2.957 3.416-5.92l9.876-0 3.418 5.92c0.129 0.224 0.195 0.399 0.227 0.518-0.118 0.032-0.303 0.063-0.562 0.063z"></path>
</svg>
