<?xml version="1.0" encoding="utf-8"?>
<!-- Generated by IcoMoon.io -->
<!DOCTYPE svg PUBLIC "-//W3C//DTD SVG 1.1//EN" "http://www.w3.org/Graphics/SVG/1.1/DTD/svg11.dtd">
<svg version="1.1" xmlns="http://www.w3.org/2000/svg" xmlns:xlink="http://www.w3.org/1999/xlink" width="32" height="32" viewBox="0 0 32 32">
<path fill="#444" d="M28.167 23.751l-1.801-2.427c-0.247-0.247-0.368-1.196-0.366-1.52h0.001v-6.268h-0.011c-0.215-4.628-3.576-8.434-7.994-9.329 0.006-0.066 0.010-0.132 0.010-0.2 0-1.108-0.898-2.006-2.006-2.006s-2.006 0.898-2.006 2.006c0 0.068 0.004 0.136 0.010 0.203-4.41 0.9-7.764 4.703-7.979 9.326h-0.011v6.268h0.001c0.002 0.324-0.119 1.273-0.366 1.52l-1.801 2.427c-0.275 0.275-0.511 0.593-0.511 1.006 0 0.69 0.56 1.25 1.25 1.25h7.996c-0.025 0.169-0.040 0.342-0.040 0.518 0 1.92 1.556 3.476 3.476 3.476s3.476-1.556 3.476-3.476c0-0.176-0.015-0.349-0.040-0.518h7.973c0.69 0 1.25-0.56 1.25-1.25 0-0.413-0.236-0.731-0.511-1.006zM8.523 13.652c0.089-1.925 0.907-3.722 2.303-5.060 1.4-1.341 3.238-2.082 5.178-2.085h0.008c1.939 0.003 3.778 0.743 5.178 2.085 1.396 1.338 2.213 3.135 2.303 5.060l0.009 0.186v4.668h-14.987v-4.668l0.009-0.186zM16.995 26.525c0 0.538-0.438 0.976-0.976 0.976s-0.976-0.438-0.976-0.976c0-0.191 0.056-0.368 0.151-0.518h1.651c0.095 0.15 0.151 0.328 0.151 0.518zM16.015 23.507h-8.873l0.455-0.613c0.377-0.454 0.627-1.040 0.781-1.817 0.005-0.023 0.009-0.047 0.013-0.070h15.232c0.004 0.023 0.008 0.047 0.013 0.070 0.153 0.778 0.404 1.363 0.781 1.817l0.455 0.613h-8.857z"></path>
</svg>
