<?xml version="1.0" encoding="utf-8"?>
<!-- Generated by IcoMoon.io -->
<!DOCTYPE svg PUBLIC "-//W3C//DTD SVG 1.1//EN" "http://www.w3.org/Graphics/SVG/1.1/DTD/svg11.dtd">
<svg version="1.1" xmlns="http://www.w3.org/2000/svg" xmlns:xlink="http://www.w3.org/1999/xlink" width="32" height="32" viewBox="0 0 32 32">
<path fill="#000" d="M28.002 4.993c-0.004-1.654-1.345-2.993-3-2.993h-19.75c-0.055 0-0.108 0.005-0.161 0.012-0.614 0.079-1.089 0.603-1.089 1.238v25.5c0 0.69 0.56 1.25 1.25 1.25h19.75c1.645 0 2.98-1.324 2.999-2.965h0.001v-22.042l-0-0zM11.502 4.5h2.5v8.498l-0.367-0.366c-0.488-0.488-1.279-0.488-1.767 0l-0.367 0.366v-8.498zM25.501 27.006c-0.003 0.272-0.227 0.494-0.499 0.494h-18.5v-23h2.5v11.513c0 0.506 0.304 0.961 0.771 1.155s1.005 0.087 1.362-0.27l1.617-1.615 1.617 1.615c0.239 0.239 0.559 0.366 0.884 0.366 0.161 0 0.324-0.031 0.478-0.095 0.467-0.194 0.771-0.649 0.771-1.155v-11.513h8.5c0.275 0 0.499 0.224 0.5 0.499l-0 22.008z"></path>
</svg>
