<?xml version="1.0" encoding="utf-8"?>
<!-- Generated by IcoMoon.io -->
<!DOCTYPE svg PUBLIC "-//W3C//DTD SVG 1.1//EN" "http://www.w3.org/Graphics/SVG/1.1/DTD/svg11.dtd">
<svg version="1.1" xmlns="http://www.w3.org/2000/svg" xmlns:xlink="http://www.w3.org/1999/xlink" width="32" height="32" viewBox="0 0 32 32">
<path fill="#444" d="M30 12.752c0-0.021-0.001-0.042-0.002-0.063-0.001-0.019-0.001-0.037-0.003-0.056-0.002-0.023-0.006-0.045-0.009-0.068-0.003-0.017-0.005-0.034-0.008-0.050-0.004-0.023-0.010-0.045-0.016-0.068-0.004-0.017-0.008-0.033-0.013-0.050-0.006-0.021-0.014-0.041-0.021-0.062-0.006-0.018-0.012-0.036-0.020-0.054s-0.015-0.035-0.023-0.052c-0.009-0.021-0.019-0.041-0.029-0.061-0.008-0.014-0.016-0.028-0.024-0.042-0.013-0.022-0.026-0.045-0.040-0.066-0.008-0.012-0.017-0.024-0.025-0.035-0.016-0.022-0.032-0.045-0.050-0.066-0.003-0.003-0.005-0.007-0.008-0.011-0.008-0.009-0.016-0.017-0.024-0.026-0.017-0.019-0.033-0.037-0.051-0.055-0.015-0.015-0.031-0.029-0.046-0.043-0.011-0.010-0.021-0.021-0.032-0.030l-12.681-10.49c-0.205-0.201-0.466-0.318-0.736-0.348-0.005-0.001-0.010-0.002-0.015-0.002-0.026-0.003-0.052-0.003-0.079-0.004-0.015-0.001-0.031-0.002-0.047-0.002s-0.031 0.001-0.047 0.002c-0.026 0.001-0.053 0.002-0.079 0.004-0.005 0-0.010 0.001-0.015 0.002-0.27 0.030-0.531 0.147-0.736 0.348l-12.677 10.486c-0.223 0.187-0.363 0.435-0.418 0.699-0.001 0.004-0.002 0.009-0.003 0.013-0.007 0.034-0.012 0.067-0.015 0.101-0.001 0.008-0.002 0.016-0.003 0.024-0.003 0.028-0.004 0.056-0.004 0.084-0 0.012-0.002 0.024-0.002 0.037 0 0.001-0 0.002-0 0.004v6.402c-0.030 0.389 0.12 0.785 0.442 1.055l12.677 10.486c0.205 0.201 0.466 0.318 0.736 0.348 0.005 0.001 0.010 0.002 0.015 0.002 0.026 0.003 0.052 0.004 0.079 0.004 0.015 0.001 0.031 0.002 0.047 0.002 0.002 0 0.003-0 0.005-0s0.003 0 0.004 0c0.011 0 0.021-0.001 0.032-0.002 0.002-0 0.004-0 0.006-0 0.004-0 0.008-0.001 0.013-0.001 0.331-0.013 0.629-0.154 0.845-0.376l12.641-10.457c0.003-0.002 0.005-0.004 0.008-0.006l0.004-0.003c0.005-0.005 0.010-0.009 0.015-0.014 0.025-0.022 0.050-0.045 0.074-0.069 0.009-0.009 0.018-0.020 0.027-0.029 0.019-0.020 0.038-0.041 0.055-0.063 0.009-0.012 0.018-0.024 0.027-0.035 0.016-0.021 0.031-0.042 0.046-0.064 0.008-0.012 0.014-0.023 0.021-0.035 0.014-0.024 0.028-0.047 0.041-0.072 0.005-0.010 0.009-0.020 0.014-0.030 0.013-0.027 0.026-0.055 0.037-0.083 0.003-0.007 0.005-0.015 0.008-0.022 0.012-0.031 0.023-0.063 0.032-0.095 0.001-0.005 0.002-0.009 0.004-0.014 0.010-0.034 0.018-0.069 0.025-0.105 0-0.003 0.001-0.005 0.001-0.008 0.007-0.037 0.012-0.074 0.015-0.112v0c0.003-0.036 0.006-0.073 0.006-0.109v-6.402c0.001-0.010 0.001-0.020 0.001-0.030 0.001-0.021 0.002-0.042 0.002-0.063zM4.497 15.413l10.254 8.482v3.247l-10.254-8.474v-3.254zM17.251 23.888l10.246-8.475v3.246l-10.246 8.468v-3.239zM15.997 3.833l10.792 8.919-10.792 8.919-10.793-8.919 10.793-8.919z"></path>
</svg>
