<?xml version="1.0" encoding="utf-8"?>
<!-- Generated by IcoMoon.io -->
<!DOCTYPE svg PUBLIC "-//W3C//DTD SVG 1.1//EN" "http://www.w3.org/Graphics/SVG/1.1/DTD/svg11.dtd">
<svg version="1.1" xmlns="http://www.w3.org/2000/svg" xmlns:xlink="http://www.w3.org/1999/xlink" width="32" height="32" viewBox="0 0 32 32">
<path fill="#444" d="M28.75 4h-25.5c-0.043 0-0.086 0.002-0.128 0.006-0.63 0.064-1.122 0.596-1.122 1.244v21.5c0 0.69 0.56 1.25 1.25 1.25h25.5c0.691 0 1.25-0.56 1.25-1.25v-21.5c0-0.69-0.56-1.25-1.25-1.25zM11.5 5.556c0.552 0 1 0.448 1 1s-0.448 1-1 1c-0.552 0-1-0.448-1-1s0.448-1 1-1zM8.5 5.556c0.552 0 1 0.448 1 1s-0.448 1-1 1c-0.552 0-1-0.448-1-1s0.448-1 1-1zM5.5 5.556c0.552 0 1 0.448 1 1s-0.448 1-1 1c-0.552 0-1-0.448-1-1s0.448-1 1-1zM27.5 25.5h-23v-16.5h23v16.5z"></path>
</svg>
