<?xml version="1.0" encoding="utf-8"?>
<!-- Generated by IcoMoon.io -->
<!DOCTYPE svg PUBLIC "-//W3C//DTD SVG 1.1//EN" "http://www.w3.org/Graphics/SVG/1.1/DTD/svg11.dtd">
<svg version="1.1" xmlns="http://www.w3.org/2000/svg" xmlns:xlink="http://www.w3.org/1999/xlink" width="32" height="32" viewBox="0 0 32 32">
<path fill="#444" d="M28.751 5.001h-3.5v-2.25c0-0.69-0.56-1.25-1.25-1.25s-1.25 0.56-1.25 1.25v2.25h-13.5v-2.25c0-0.69-0.56-1.25-1.25-1.25s-1.25 0.56-1.25 1.25v2.25h-3.5c-0.043 0-0.086 0.002-0.128 0.006-0.63 0.064-1.122 0.596-1.122 1.244v21.5c0 0.69 0.56 1.25 1.25 1.25h25.5c0.691 0 1.25-0.56 1.25-1.25v-21.5c0-0.69-0.56-1.25-1.25-1.25zM11.126 26.501h-6.625v-4.458h6.625v4.458zM11.126 20.793h-6.625v-5.083h6.625v5.083zM11.126 14.459h-6.625v-4.458h6.625v4.458zM19.626 26.501h-7.25v-4.458h7.25v4.458zM19.626 20.793h-7.25v-5.083h7.25v5.083zM19.626 14.459h-7.25v-4.458h7.25v4.458zM27.501 26.501h-6.625v-4.458h6.625v4.458zM27.501 20.793h-6.625v-5.083h6.625v5.083zM27.501 14.459h-6.625v-4.458h6.625v4.458z"></path>
</svg>
