<?xml version="1.0" encoding="utf-8"?>
<!-- Generated by IcoMoon.io -->
<!DOCTYPE svg PUBLIC "-//W3C//DTD SVG 1.1//EN" "http://www.w3.org/Graphics/SVG/1.1/DTD/svg11.dtd">
<svg version="1.1" xmlns="http://www.w3.org/2000/svg" xmlns:xlink="http://www.w3.org/1999/xlink" width="32" height="32" viewBox="0 0 32 32">
<path fill="#444" d="M26.001 12.001c0-5.523-4.477-10-10-10s-10 4.477-10 10c0 3.271 1.57 6.174 3.998 7.999v9.734c0 0.505 0.304 0.961 0.771 1.155 0.155 0.064 0.317 0.095 0.478 0.095 0.325 0 0.645-0.127 0.884-0.366l3.866-3.862 3.868 3.854c0.358 0.357 0.895 0.463 1.362 0.269s0.771-0.649 0.771-1.154v-9.723c2.43-1.824 4.002-4.729 4.002-8.002zM8.501 12.001c0-2.003 0.78-3.887 2.197-5.303s3.3-2.197 5.303-2.197 3.887 0.78 5.303 2.197c1.417 1.417 2.197 3.3 2.197 5.303s-0.78 3.887-2.197 5.303c-1.417 1.417-3.3 2.197-5.303 2.197s-3.887-0.78-5.303-2.197c-1.416-1.416-2.197-3.3-2.197-5.303zM19.499 26.715l-2.619-2.61c-0.488-0.486-1.278-0.486-1.766 0.001l-2.615 2.612v-5.349c1.090 0.408 2.27 0.631 3.502 0.631 1.231 0 2.409-0.223 3.498-0.63v5.344z"></path>
</svg>
