<?xml version="1.0" encoding="utf-8"?>
<!-- Generated by IcoMoon.io -->
<!DOCTYPE svg PUBLIC "-//W3C//DTD SVG 1.1//EN" "http://www.w3.org/Graphics/SVG/1.1/DTD/svg11.dtd">
<svg version="1.1" xmlns="http://www.w3.org/2000/svg" xmlns:xlink="http://www.w3.org/1999/xlink" width="32" height="32" viewBox="0 0 32 32">
<path fill="#444" d="M30 16.031c0-7.732-6.268-14-14-14s-14 6.268-14 14 6.268 14 14 14c7.732 0 14-6.268 14-14zM7.868 24.163c-2.172-2.172-3.368-5.060-3.368-8.132s1.196-5.96 3.368-8.132c2.172-2.172 5.060-3.368 8.132-3.368s5.96 1.196 8.132 3.368c2.172 2.172 3.368 5.060 3.368 8.132s-1.196 5.96-3.368 8.132c-2.172 2.172-5.060 3.368-8.132 3.368s-5.96-1.196-8.132-3.368z"></path>
</svg>
