<?xml version="1.0" encoding="utf-8"?>
<!-- Generated by IcoMoon.io -->
<!DOCTYPE svg PUBLIC "-//W3C//DTD SVG 1.1//EN" "http://www.w3.org/Graphics/SVG/1.1/DTD/svg11.dtd">
<svg version="1.1" xmlns="http://www.w3.org/2000/svg" xmlns:xlink="http://www.w3.org/1999/xlink" width="32" height="32" viewBox="0 0 32 32">
<path fill="#444" d="M21.657 19.933c0.488 0.488 0.488 1.28 0 1.768s-1.28 0.488-1.768 0l-3.889-3.889-3.889 3.889c-0.488 0.488-1.28 0.488-1.768 0s-0.488-1.28-0-1.768l3.889-3.889-3.889-3.889c-0.488-0.488-0.488-1.28 0-1.768s1.28-0.488 1.768-0l3.889 3.889 3.889-3.889c0.488-0.488 1.28-0.488 1.768 0s0.488 1.28 0 1.768l-3.889 3.889 3.889 3.889zM25.899 25.899c-5.467 5.467-14.332 5.467-19.799 0s-5.467-14.332 0-19.799c5.467-5.467 14.332-5.467 19.799 0s5.467 14.332 0 19.799zM27.5 16c-0-3.072-1.196-5.96-3.368-8.132s-5.060-3.368-8.132-3.368c-3.072 0-5.96 1.196-8.132 3.368s-3.368 5.060-3.368 8.132c0 3.072 1.196 5.96 3.368 8.132s5.060 3.368 8.132 3.368c3.072 0 5.96-1.196 8.132-3.368s3.368-5.060 3.368-8.132z"></path>
</svg>
