<?xml version="1.0" encoding="utf-8"?>
<!-- Generated by IcoMoon.io -->
<!DOCTYPE svg PUBLIC "-//W3C//DTD SVG 1.1//EN" "http://www.w3.org/Graphics/SVG/1.1/DTD/svg11.dtd">
<svg version="1.1" xmlns="http://www.w3.org/2000/svg" xmlns:xlink="http://www.w3.org/1999/xlink" width="32" height="32" viewBox="0 0 32 32">
<path fill="#444" d="M12.389 4.734l0.868 0.868c0.727 0.728 1.696 1.129 2.726 1.129 0.010 0 0.020 0 0.030-0s0.018 0 0.027 0c1.031 0 1.999-0.401 2.726-1.128l0.863-0.863c0.612 0.197 1.206 0.444 1.778 0.739v1.249c0 1.027 0.419 2.025 1.151 2.746 0.721 0.731 1.718 1.149 2.744 1.149l1.233 0c0.287 0.56 0.527 1.139 0.719 1.737l-0.865 0.865c-0.726 0.726-1.135 1.726-1.128 2.753-0.008 1.028 0.401 2.029 1.128 2.756l0.873 0.873c-0.197 0.616-0.444 1.213-0.741 1.788l-1.218 0c-0 0-0 0-0.001 0-1.026 0-2.023 0.418-2.744 1.149-0.732 0.721-1.151 1.719-1.151 2.746v1.222c-0.574 0.296-1.171 0.544-1.785 0.741l-0.855-0.855c-0.727-0.728-1.696-1.129-2.727-1.129-0.009 0-0.018 0-0.027 0s-0.020-0-0.030-0c-1.031 0-1.999 0.401-2.726 1.128l-0.861 0.861c-0.621-0.198-1.223-0.448-1.803-0.747l-0-1.192c0-1.027-0.418-2.024-1.149-2.745-0.721-0.732-1.719-1.151-2.746-1.151h-1.203c-0.306-0.589-0.559-1.201-0.76-1.832l0.859-0.859c0.726-0.727 1.136-1.728 1.128-2.756 0.007-1.027-0.402-2.027-1.128-2.753l-0.851-0.851c0.197-0.613 0.443-1.207 0.739-1.78h1.217c1.027 0 2.025-0.419 2.746-1.151 0.731-0.721 1.149-1.719 1.149-2.744l0-1.22c0.578-0.298 1.178-0.547 1.796-0.745zM13.171 1.881c-1.873 0.373-3.614 1.11-5.149 2.133l-0 2.683c0 0.365-0.153 0.694-0.397 0.928-0.234 0.245-0.563 0.398-0.928 0.398h-2.681c-1.019 1.53-1.754 3.265-2.128 5.131l1.887 1.887c0.258 0.258 0.382 0.598 0.375 0.937 0.008 0.338-0.117 0.679-0.375 0.938l-1.893 1.893c0.374 1.888 1.117 3.642 2.151 5.186h2.664c0.365 0 0.694 0.153 0.928 0.398 0.244 0.234 0.397 0.562 0.397 0.927l0 2.656c1.536 1.025 3.28 1.762 5.156 2.135l1.895-1.895c0.251-0.251 0.58-0.375 0.909-0.375 0.010 0 0.019 0 0.029 0s0.019-0 0.028-0c0.329 0 0.658 0.124 0.908 0.375l1.892 1.892c1.868-0.374 3.605-1.11 5.136-2.131v-2.686c0-0.365 0.153-0.694 0.398-0.928 0.234-0.244 0.563-0.397 0.927-0.397l2.684-0c1.021-1.532 1.756-3.271 2.128-5.141l-1.908-1.908c-0.258-0.258-0.383-0.599-0.375-0.938-0.007-0.338 0.117-0.678 0.375-0.937l1.903-1.903c-0.372-1.848-1.099-3.568-2.105-5.086l-2.701-0c-0 0-0 0-0 0-0.365 0-0.693-0.153-0.927-0.397-0.245-0.234-0.398-0.563-0.398-0.928v-2.713c-1.529-1.020-3.263-1.755-5.128-2.129l-1.9 1.9c-0.251 0.251-0.58 0.375-0.908 0.375-0.009 0-0.019-0-0.028-0s-0.019 0-0.029 0c-0.329 0-0.658-0.124-0.909-0.375l-1.903-1.903zM15.995 9.827c-3.407 0-6.168 2.762-6.168 6.168s2.762 6.168 6.168 6.168v0.004c0.023 0 0.047 0 0.070 0 0.463-0.005 0.913-0.061 1.346-0.162 0.032-0.007 0.060-0.015 0.087-0.024 0.541-0.156 0.936-0.657 0.929-1.247-0.008-0.71-0.589-1.279-1.299-1.271-0.094 0.001-0.184 0.013-0.272 0.033-0.003 0-0.006 0-0.008 0.001-0.256 0.062-0.522 0.097-0.796 0.101-0.018-0.002-0.037-0.004-0.057-0.004-1.984 0-3.598-1.614-3.598-3.598s1.614-3.598 3.598-3.598c1.984 0 3.598 1.614 3.598 3.598 0 0.279-0.032 0.55-0.093 0.811-0.001 0.003-0 0.006-0.001 0.008-0.019 0.088-0.030 0.179-0.030 0.273 0 0.71 0.575 1.285 1.285 1.285 0.591 0 1.087-0.399 1.237-0.942 0.008-0.027 0.016-0.056 0.023-0.088 0.097-0.434 0.148-0.884 0.148-1.347 0-3.407-2.762-6.168-6.168-6.168z"></path>
</svg>
