<?xml version="1.0" encoding="utf-8"?>
<!-- Generated by IcoMoon.io -->
<!DOCTYPE svg PUBLIC "-//W3C//DTD SVG 1.1//EN" "http://www.w3.org/Graphics/SVG/1.1/DTD/svg11.dtd">
<svg version="1.1" xmlns="http://www.w3.org/2000/svg" xmlns:xlink="http://www.w3.org/1999/xlink" width="32" height="32" viewBox="0 0 32 32">
<path fill="#444" d="M30.751 14.75h-5.838c-0.609-4.379-4.367-7.75-8.913-7.75s-8.305 3.371-8.913 7.75h-5.836c-0.69 0-1.25 0.56-1.25 1.25s0.56 1.25 1.25 1.25h5.836c0.609 4.379 4.367 7.75 8.913 7.75s8.305-3.371 8.913-7.75h5.838c0.69 0 1.25-0.56 1.25-1.25s-0.56-1.25-1.25-1.25zM16 22.5c-3.584 0-6.5-2.916-6.5-6.5s2.916-6.5 6.5-6.5 6.5 2.916 6.5 6.5-2.916 6.5-6.5 6.5z"></path>
</svg>
