<?xml version="1.0" encoding="utf-8"?>
<!-- Generated by IcoMoon.io -->
<!DOCTYPE svg PUBLIC "-//W3C//DTD SVG 1.1//EN" "http://www.w3.org/Graphics/SVG/1.1/DTD/svg11.dtd">
<svg version="1.1" xmlns="http://www.w3.org/2000/svg" xmlns:xlink="http://www.w3.org/1999/xlink" width="32" height="32" viewBox="0 0 32 32">
<path fill="#444" d="M30 16c0-7.732-6.268-14-14-14s-14 6.268-14 14 6.268 14 14 14c7.732 0 14-6.268 14-14zM7.868 24.132c-2.172-2.172-3.368-5.060-3.368-8.132s1.196-5.96 3.368-8.132c2.172-2.172 5.060-3.368 8.132-3.368s5.96 1.196 8.132 3.368c2.172 2.172 3.368 5.060 3.368 8.132s-1.196 5.96-3.368 8.132-5.060 3.368-8.132 3.368c-3.072 0-5.96-1.196-8.132-3.368z"></path>
<path fill="#444" d="M17.679 17.679c-0.029 0.029-0.061 0.055-0.095 0.078l-7.425 4.95c-0.248 0.165-0.578 0.133-0.789-0.078s-0.243-0.541-0.078-0.789l4.95-7.425c0.046-0.069 0.105-0.128 0.173-0.173l7.425-4.95c0.248-0.165 0.578-0.133 0.789 0.078s0.243 0.541 0.078 0.789l-4.95 7.425c-0.023 0.034-0.049 0.066-0.078 0.095zM12.066 19.934l4.72-3.147-1.573-1.573-3.147 4.721z"></path>
</svg>
