<?xml version="1.0" encoding="utf-8"?>
<!-- Generated by IcoMoon.io -->
<!DOCTYPE svg PUBLIC "-//W3C//DTD SVG 1.1//EN" "http://www.w3.org/Graphics/SVG/1.1/DTD/svg11.dtd">
<svg version="1.1" xmlns="http://www.w3.org/2000/svg" xmlns:xlink="http://www.w3.org/1999/xlink" width="32" height="32" viewBox="0 0 32 32">
<path fill="#444" d="M30.004 6.568c0-0.014-0.002-0.027-0.002-0.041-0.001-0.021-0.001-0.043-0.003-0.064-0.002-0.023-0.005-0.046-0.008-0.069-0.003-0.018-0.005-0.035-0.008-0.053-0.005-0.025-0.010-0.049-0.016-0.073-0.004-0.016-0.008-0.032-0.012-0.047-0.007-0.024-0.015-0.048-0.024-0.072-0.006-0.015-0.011-0.031-0.017-0.046-0.009-0.024-0.020-0.046-0.031-0.069-0.007-0.015-0.014-0.030-0.021-0.044-0.012-0.024-0.026-0.047-0.040-0.070-0.008-0.012-0.015-0.025-0.023-0.037-0.019-0.029-0.039-0.057-0.061-0.084-0.004-0.005-0.008-0.011-0.012-0.016-0.031-0.038-0.063-0.074-0.098-0.108l-3.251-3.278c-0.116-0.116-0.25-0.204-0.392-0.264-0.003-0.001-0.005-0.003-0.008-0.004-0.031-0.013-0.063-0.024-0.095-0.035-0.008-0.002-0.015-0.006-0.023-0.008-0.029-0.009-0.059-0.016-0.089-0.023-0.010-0.002-0.021-0.006-0.031-0.008-0.031-0.006-0.063-0.010-0.094-0.014-0.010-0.001-0.019-0.003-0.029-0.004-0.041-0.004-0.083-0.006-0.124-0.006h-12.243c-0.055 0-0.108 0.005-0.161 0.012-0.614 0.079-1.089 0.603-1.089 1.238v4.547h-8.746c-0.055 0-0.108 0.005-0.161 0.012-0.614 0.079-1.089 0.603-1.089 1.238v19.634c0 0.69 0.56 1.25 1.25 1.25h15.504c0.431 0 0.812-0.219 1.037-0.551 0.003-0.005 0.065-0.108 0.067-0.111 0.093-0.175 0.147-0.375 0.147-0.588 0 0 0 0 0-0v-4.547h8.746c0.431 0 0.812-0.219 1.037-0.551 0.003-0.005 0.065-0.108 0.067-0.111 0.093-0.175 0.147-0.375 0.147-0.588 0 0 0 0 0-0v-16.307c0-0.007-0-0.014-0-0.021s0.001-0.012 0.001-0.018zM4.504 27.462v-17.134h9.742v2.037c0 0.69 0.56 1.25 1.25 1.25h2.011v13.847h-13.004zM20.008 21.665v-9.26c0-0.007-0.001-0.014-0-0.021 0-0.006 0.001-0.012 0.001-0.018 0-0.014-0.002-0.027-0.002-0.041-0.001-0.021-0.001-0.043-0.003-0.064-0.002-0.023-0.005-0.046-0.008-0.069-0.002-0.018-0.005-0.035-0.008-0.053-0.005-0.025-0.010-0.049-0.016-0.073-0.004-0.016-0.008-0.032-0.012-0.047-0.007-0.024-0.015-0.048-0.024-0.072-0.005-0.015-0.011-0.031-0.017-0.046-0.009-0.024-0.020-0.046-0.031-0.069-0.007-0.015-0.014-0.030-0.021-0.044-0.012-0.024-0.026-0.047-0.040-0.070-0.008-0.012-0.015-0.025-0.023-0.037-0.019-0.029-0.039-0.057-0.061-0.084-0.004-0.005-0.008-0.011-0.012-0.016-0.031-0.038-0.063-0.074-0.098-0.108l-3.251-3.278c-0.116-0.116-0.25-0.204-0.392-0.264-0.003-0.001-0.005-0.003-0.008-0.004-0.031-0.013-0.063-0.024-0.095-0.035-0.008-0.003-0.015-0.005-0.023-0.008-0.029-0.009-0.059-0.016-0.089-0.023-0.010-0.002-0.021-0.005-0.031-0.008-0.031-0.006-0.063-0.011-0.094-0.014-0.009-0.001-0.019-0.003-0.028-0.004-0.041-0.004-0.083-0.006-0.124-0.006h-0.997v-3.297h9.742v2.037c0 0.69 0.56 1.25 1.25 1.25h2.011v13.847h-7.496z"></path>
</svg>
