<?xml version="1.0" encoding="utf-8"?>
<!-- Generated by IcoMoon.io -->
<!DOCTYPE svg PUBLIC "-//W3C//DTD SVG 1.1//EN" "http://www.w3.org/Graphics/SVG/1.1/DTD/svg11.dtd">
<svg version="1.1" xmlns="http://www.w3.org/2000/svg" xmlns:xlink="http://www.w3.org/1999/xlink" width="32" height="32" viewBox="0 0 32 32">
<path fill="#444" d="M12.251 21h7.501c0.69 0 1.25-0.56 1.25-1.25v-7.501c0-0.69-0.56-1.25-1.25-1.25h-7.501c-0.69 0-1.25 0.56-1.25 1.25v7.501c0 0.69 0.56 1.25 1.25 1.25zM13.501 13.499h5.001v5.001h-5.001v-5.001zM29.25 17.25c0.69 0 1.25-0.56 1.25-1.25s-0.56-1.25-1.25-1.25h-2.25v-1.5h2.249c0.69 0 1.25-0.56 1.25-1.25s-0.56-1.25-1.25-1.25h-2.25v-4.499c0-0.69-0.56-1.25-1.25-1.25h-4.5v-2.25c0-0.69-0.56-1.25-1.25-1.25s-1.25 0.56-1.25 1.25v2.251h-1.5v-2.25c0-0.69-0.56-1.25-1.25-1.25s-1.25 0.56-1.25 1.25v2.25h-1.5v-2.25c0-0.69-0.56-1.25-1.25-1.25s-1.25 0.56-1.25 1.25v2.25h-4.5c-0.69 0-1.25 0.56-1.25 1.25v4.499h-2.249c-0.69 0-1.25 0.56-1.25 1.25s0.56 1.25 1.25 1.25h2.249v1.5h-2.249c-0.69 0-1.25 0.56-1.25 1.25s0.56 1.25 1.25 1.25h2.249v1.5h-2.249c-0.69 0-1.25 0.56-1.25 1.25s0.56 1.25 1.25 1.25h2.249v4.501c0 0.69 0.56 1.25 1.25 1.25h4.5v2.249c0 0.69 0.56 1.25 1.25 1.25s1.25-0.56 1.25-1.25v-2.249h1.5v2.249c0 0.69 0.56 1.25 1.25 1.25s1.25-0.56 1.25-1.25v-2.249h1.5v2.249c0 0.69 0.56 1.25 1.25 1.25s1.25-0.56 1.25-1.25v-2.249h4.5c0.69 0 1.25-0.56 1.25-1.25v-4.501h2.249c0.69 0 1.25-0.56 1.25-1.25s-0.56-1.25-1.25-1.25h-2.25v-1.5h2.249zM24.501 24.501h-4.49c-0.003 0-0.006-0-0.010-0s-0.006 0-0.010 0h-3.981c-0.003 0-0.006-0-0.010-0s-0.006 0-0.010 0h-3.981c-0.003 0-0.006-0-0.010-0s-0.006 0-0.010 0h-4.49v-17h17v17z"></path>
</svg>
