<?xml version="1.0" encoding="utf-8"?>
<!-- Generated by IcoMoon.io -->
<!DOCTYPE svg PUBLIC "-//W3C//DTD SVG 1.1//EN" "http://www.w3.org/Graphics/SVG/1.1/DTD/svg11.dtd">
<svg version="1.1" xmlns="http://www.w3.org/2000/svg" xmlns:xlink="http://www.w3.org/1999/xlink" width="32" height="32" viewBox="0 0 32 32">
<path fill="#444" d="M11.756 21.002h-3.504c-0.69 0-1.25-0.56-1.25-1.25s0.56-1.25 1.25-1.25h3.504c0.69 0 1.25 0.56 1.25 1.25s-0.56 1.25-1.25 1.25z"></path>
<path fill="#444" d="M28.911 6.012c-0.053-0.007-0.107-0.012-0.161-0.012h-25.5c-0.055 0-0.108 0.005-0.161 0.012-0.614 0.079-1.089 0.603-1.089 1.238v17.5c0 0.69 0.56 1.25 1.25 1.25h25.5c0.431 0 0.812-0.219 1.037-0.551 0.003-0.005 0.006-0.010 0.009-0.014 0.019-0.029 0.038-0.058 0.054-0.089 0.001-0.003 0.003-0.005 0.004-0.008 0.094-0.175 0.147-0.375 0.147-0.588v-17.5c0-0.636-0.475-1.159-1.089-1.239zM15.25 8.5h12.25v2.501h-23v-2.501h10.75zM16.75 23.5h-12.25v-7.499h23v7.499h-10.75z"></path>
</svg>
