<?xml version="1.0" encoding="utf-8"?>
<!-- Generated by IcoMoon.io -->
<!DOCTYPE svg PUBLIC "-//W3C//DTD SVG 1.1//EN" "http://www.w3.org/Graphics/SVG/1.1/DTD/svg11.dtd">
<svg version="1.1" xmlns="http://www.w3.org/2000/svg" xmlns:xlink="http://www.w3.org/1999/xlink" width="32" height="32" viewBox="0 0 32 32">
<path fill="#444" d="M31.665 29.866l-13.866-13.866 13.866-13.866c0.488-0.488 0.488-1.28-0-1.768s-1.279-0.488-1.768 0l-13.866 13.866-13.866-13.866c-0.488-0.488-1.28-0.488-1.768 0s-0.488 1.28 0 1.768l13.866 13.866-13.866 13.866c-0.488 0.488-0.488 1.279 0 1.767s1.28 0.488 1.768 0l13.866-13.866 13.866 13.866c0.488 0.488 1.279 0.488 1.768 0s0.488-1.279 0-1.768z"></path>
</svg>
