<?xml version="1.0" encoding="utf-8"?>
<!-- Generated by IcoMoon.io -->
<!DOCTYPE svg PUBLIC "-//W3C//DTD SVG 1.1//EN" "http://www.w3.org/Graphics/SVG/1.1/DTD/svg11.dtd">
<svg version="1.1" xmlns="http://www.w3.org/2000/svg" xmlns:xlink="http://www.w3.org/1999/xlink" width="32" height="32" viewBox="0 0 32 32">
<path fill="#444" d="M17.737 21.092c-0.552 0.957-1.776 1.284-2.732 0.732s-1.284-1.776-0.732-2.732c0.317-0.549 0.854-0.89 1.435-0.977l4.593-7.955c0.345-0.598 1.11-0.803 1.707-0.457s0.803 1.11 0.457 1.707l-4.596 7.961c0.21 0.545 0.182 1.177-0.133 1.722z"></path>
<path fill="#444" d="M16 6.539c3.072 0 5.96 1.196 8.132 3.368s3.368 5.060 3.368 8.132c0 2.549-0.823 4.969-2.343 6.96-2.769-0.958-5.902-1.46-9.173-1.46-3.26 0-6.385 0.499-9.148 1.451-1.516-1.99-2.337-4.407-2.337-6.952 0-3.072 1.196-5.96 3.368-8.132s5.060-3.368 8.132-3.368zM16 4.039c-7.732 0-14 6.268-14 14 0 3.874 1.574 7.381 4.117 9.916 2.718-1.2 6.144-1.916 9.867-1.916 3.733 0 7.167 0.72 9.889 1.925 2.549-2.535 4.127-6.046 4.127-9.925 0-7.732-6.268-14-14-14v0z"></path>
</svg>
