<?xml version="1.0" encoding="utf-8"?>
<!-- Generated by IcoMoon.io -->
<!DOCTYPE svg PUBLIC "-//W3C//DTD SVG 1.1//EN" "http://www.w3.org/Graphics/SVG/1.1/DTD/svg11.dtd">
<svg version="1.1" xmlns="http://www.w3.org/2000/svg" xmlns:xlink="http://www.w3.org/1999/xlink" width="32" height="32" viewBox="0 0 32 32">
<path fill="#444" d="M25.9 6.101c-5.467-5.467-14.332-5.467-19.799 0s-5.467 14.332 0 19.799c5.467 5.467 14.332 5.467 19.799 0s5.467-14.332 0-19.799zM7.868 7.868c2.172-2.172 5.060-3.368 8.132-3.368 2.651 0 5.165 0.892 7.2 2.532l-16.168 16.168c-1.64-2.035-2.532-4.549-2.532-7.2 0-3.072 1.196-5.96 3.368-8.132zM24.132 24.132c-2.172 2.172-5.060 3.368-8.132 3.368-2.651-0-5.165-0.892-7.2-2.532l16.168-16.168c1.64 2.035 2.532 4.549 2.532 7.2-0 3.072-1.196 5.96-3.368 8.132z"></path>
</svg>
