<?xml version="1.0" encoding="utf-8"?>
<!-- Generated by IcoMoon.io -->
<!DOCTYPE svg PUBLIC "-//W3C//DTD SVG 1.1//EN" "http://www.w3.org/Graphics/SVG/1.1/DTD/svg11.dtd">
<svg version="1.1" xmlns="http://www.w3.org/2000/svg" xmlns:xlink="http://www.w3.org/1999/xlink" width="32" height="32" viewBox="0 0 32 32">
<path fill="#444" d="M28.748 4h-25.5c-0.043 0-0.086 0.002-0.128 0.006-0.63 0.064-1.122 0.596-1.122 1.244v21.5c0 0.69 0.56 1.25 1.25 1.25h25.5c0.691 0 1.25-0.56 1.25-1.25v-21.5c0-0.69-0.56-1.25-1.25-1.25zM12.373 14.708h7.25v5.083h-7.25v-5.083zM11.123 19.792h-6.625v-5.083h6.625v5.083zM12.373 13.458v-4.458h7.25v4.458h-7.25zM20.873 14.708h6.625v5.083h-6.625v-5.083zM20.873 13.458v-4.458h6.625v4.458h-6.625zM11.123 9v4.458h-6.625v-4.458h6.625zM4.498 21.042h6.625v4.458h-6.625v-4.458zM12.373 21.042h7.25v4.458h-7.25v-4.458zM20.873 21.042h6.625v4.458h-6.625v-4.458z"></path>
</svg>
