<?xml version="1.0" encoding="utf-8"?>
<!-- Generated by IcoMoon.io -->
<!DOCTYPE svg PUBLIC "-//W3C//DTD SVG 1.1//EN" "http://www.w3.org/Graphics/SVG/1.1/DTD/svg11.dtd">
<svg version="1.1" xmlns="http://www.w3.org/2000/svg" xmlns:xlink="http://www.w3.org/1999/xlink" width="32" height="32" viewBox="0 0 32 32">
<path fill="#444" d="M26.999 7.577c0-0.007-0.003-0.123-0.005-0.144s-0.012-0.093-0.015-0.117c-0-0.002-0.011-0.053-0.017-0.078-0.004-0.016-0.008-0.032-0.012-0.047-0.007-0.024-0.035-0.103-0.041-0.118-0.009-0.024-0.045-0.099-0.052-0.113-0.012-0.024-0.055-0.095-0.063-0.107-0.019-0.029-0.039-0.057-0.061-0.084-0.004-0.005-0.008-0.011-0.012-0.016-0.031-0.038-0.063-0.074-0.098-0.108l-3.251-3.278c-0.116-0.116-0.25-0.204-0.392-0.264-0.003-0.001-0.118-0.044-0.125-0.046-0.029-0.009-0.059-0.016-0.089-0.023-0.011-0.002-0.021-0.006-0.031-0.008-0.031-0.006-0.113-0.017-0.123-0.018-0.041-0.004-0.083-0.006-0.124-0.006h-16.239c-0.055 0-0.108 0.005-0.161 0.012-0.614 0.079-1.089 0.603-1.089 1.238v23.5c0 0.69 0.56 1.25 1.25 1.25h19.5c0.69 0 1.25-0.56 1.25-1.25l-0.001-20.173zM24.5 26.5h-17v-21l13.738 0v2.037c0 0.69 0.56 1.25 1.25 1.25h2.011l0.001 17.713z"></path>
<path fill="#444" d="M11.25 10.5c-0.69 0-1.25 0.56-1.25 1.25s0.56 1.25 1.25 1.25h9.5c0.69 0 1.25-0.56 1.25-1.25s-0.56-1.25-1.25-1.25h-9.5z"></path>
<path fill="#444" d="M20.75 15.25h-9.5c-0.69 0-1.25 0.56-1.25 1.25s0.56 1.25 1.25 1.25h9.5c0.69 0 1.25-0.56 1.25-1.25s-0.56-1.25-1.25-1.25z"></path>
<path fill="#444" d="M20.75 20h-9.5c-0.69 0-1.25 0.56-1.25 1.25s0.56 1.25 1.25 1.25h9.5c0.69 0 1.25-0.56 1.25-1.25s-0.56-1.25-1.25-1.25z"></path>
</svg>
