<?xml version="1.0" encoding="utf-8"?>
<!-- Generated by IcoMoon.io -->
<!DOCTYPE svg PUBLIC "-//W3C//DTD SVG 1.1//EN" "http://www.w3.org/Graphics/SVG/1.1/DTD/svg11.dtd">
<svg version="1.1" xmlns="http://www.w3.org/2000/svg" xmlns:xlink="http://www.w3.org/1999/xlink" width="32" height="32" viewBox="0 0 32 32">
<path fill="#444" d="M27.531 16.037c0 3.072-1.196 5.96-3.368 8.132s-5.060 3.368-8.132 3.368c-3.072 0-5.96-1.196-8.132-3.368s-3.368-5.060-3.368-8.132c0-3.072 1.196-5.96 3.368-8.132s5.060-3.368 8.132-3.368c3.072 0 5.96 1.196 8.132 3.368s3.368 5.060 3.368 8.132zM30.031 16.037c0-7.732-6.268-14-14-14s-14 6.268-14 14 6.268 14 14 14 14-6.268 14-14v0zM16.865 23.674l3.92-3.906c0.489-0.487 0.49-1.279 0.003-1.768s-1.279-0.49-1.768-0.003l-1.788 1.781v-10.49c0-0.69-0.56-1.25-1.25-1.25s-1.25 0.56-1.25 1.25v10.477l-1.761-1.766c-0.488-0.489-1.279-0.49-1.768-0.002-0.245 0.244-0.367 0.565-0.367 0.885 0 0.319 0.122 0.639 0.365 0.883l3.896 3.906c0.487 0.489 1.278 0.49 1.767 0.003z"></path>
</svg>
