<?xml version="1.0" encoding="utf-8"?>
<!-- Generated by IcoMoon.io -->
<!DOCTYPE svg PUBLIC "-//W3C//DTD SVG 1.1//EN" "http://www.w3.org/Graphics/SVG/1.1/DTD/svg11.dtd">
<svg version="1.1" xmlns="http://www.w3.org/2000/svg" xmlns:xlink="http://www.w3.org/1999/xlink" width="32" height="32" viewBox="0 0 32 32">
<path fill="#444" d="M29.642 8.23c0.397-0.397 0.471-0.995 0.222-1.467-0.058-0.11-0.132-0.213-0.225-0.306-0.009-0.009-0.019-0.016-0.028-0.025l-4.041-4.020c-0.002-0.002-0.003-0.003-0.004-0.005-0.244-0.244-0.564-0.366-0.884-0.366s-0.64 0.122-0.884 0.366c-0.002 0.002-0.004 0.004-0.006 0.006l-19.88 19.88c-0.183 0.16-0.319 0.374-0.384 0.617l-1.488 5.552c-0.116 0.431 0.008 0.892 0.324 1.207 0.238 0.238 0.557 0.366 0.884 0.366 0.108 0 0.217-0.014 0.324-0.043l5.552-1.488c0.228-0.061 0.429-0.184 0.586-0.351l16.296-16.296c0.035-0.028 0.069-0.058 0.102-0.091s0.063-0.067 0.091-0.102l3.367-3.367c0.026-0.022 0.052-0.045 0.077-0.069zM25.216 9.114l-2.3-2.288 1.769-1.769 2.3 2.287-1.769 1.769zM8.799 25.531l-2.294-2.294 14.643-14.643 2.3 2.288-14.649 14.649zM5.016 27.020l0.367-1.369 1.002 1.003-1.369 0.367z"></path>
</svg>
