<?xml version="1.0" encoding="utf-8"?>
<!-- Generated by IcoMoon.io -->
<!DOCTYPE svg PUBLIC "-//W3C//DTD SVG 1.1//EN" "http://www.w3.org/Graphics/SVG/1.1/DTD/svg11.dtd">
<svg version="1.1" xmlns="http://www.w3.org/2000/svg" xmlns:xlink="http://www.w3.org/1999/xlink" width="32" height="32" viewBox="0 0 32 32">
<path fill="#444" d="M30.001 8.375c0.023-0.314-0.070-0.636-0.288-0.896-0.187-0.223-0.436-0.363-0.7-0.419-0.004-0.001-0.008-0.002-0.012-0.003-0.034-0.007-0.068-0.012-0.102-0.016-0.008-0.001-0.015-0.003-0.023-0.003-0.032-0.003-0.064-0.004-0.097-0.005-0.009-0-0.018-0.001-0.027-0.001h-25.5c-0.669 0-1.214 0.526-1.247 1.188-0.001 0.020-0.003 0.039-0.003 0.059 0 0.001-0 0.002-0 0.004s0 0.003 0 0.005v15.49c0 0.002-0 0.003-0 0.005 0 0.69 0.56 1.25 1.25 1.25h25.5c0.431 0 0.812-0.219 1.037-0.551 0.003-0.005 0.006-0.010 0.009-0.014 0.019-0.029 0.037-0.058 0.054-0.089 0.001-0.003 0.003-0.005 0.004-0.008 0.093-0.175 0.147-0.375 0.147-0.588v0 0-15.407zM4.501 10.942l10.623 8.787c0.205 0.201 0.466 0.318 0.736 0.348 0.005 0.001 0.010 0.002 0.015 0.002 0.026 0.003 0.052 0.004 0.079 0.004 0.015 0.001 0.031 0.002 0.047 0.002s0.031-0.001 0.047-0.002c0.026-0.001 0.052-0.002 0.079-0.004 0.005-0 0.010-0.001 0.015-0.002 0.27-0.030 0.531-0.146 0.736-0.348l10.623-8.788v11.59h-23v-11.59zM6.721 9.532h18.56l-9.28 7.669-9.28-7.669z"></path>
</svg>
