<?xml version="1.0" encoding="utf-8"?>
<!-- Generated by IcoMoon.io -->
<!DOCTYPE svg PUBLIC "-//W3C//DTD SVG 1.1//EN" "http://www.w3.org/Graphics/SVG/1.1/DTD/svg11.dtd">
<svg version="1.1" xmlns="http://www.w3.org/2000/svg" xmlns:xlink="http://www.w3.org/1999/xlink" width="32" height="32" viewBox="0 0 32 32">
<path fill="#000" d="M16 29.999c-0.32 0-0.64-0.122-0.884-0.366l-7.497-7.495c-0.488-0.488-0.488-1.28-0-1.768s1.28-0.488 1.768-0l6.613 6.611 6.616-6.614c0.488-0.488 1.28-0.488 1.768 0s0.488 1.28-0 1.768l-7.5 7.498c-0.244 0.244-0.564 0.366-0.884 0.366z"></path>
<path fill="#000" d="M16.003 2.001c0.32 0 0.64 0.122 0.884 0.366l7.497 7.495c0.488 0.488 0.488 1.28 0 1.768s-1.28 0.488-1.768 0l-6.613-6.611-6.616 6.614c-0.488 0.488-1.28 0.488-1.768-0s-0.488-1.28 0-1.768l7.5-7.498c0.244-0.244 0.564-0.366 0.884-0.366z"></path>
</svg>
