<?xml version="1.0" encoding="utf-8"?>
<!-- Generated by IcoMoon.io -->
<!DOCTYPE svg PUBLIC "-//W3C//DTD SVG 1.1//EN" "http://www.w3.org/Graphics/SVG/1.1/DTD/svg11.dtd">
<svg version="1.1" xmlns="http://www.w3.org/2000/svg" xmlns:xlink="http://www.w3.org/1999/xlink" width="32" height="32" viewBox="0 0 32 32">
<path fill="#444" d="M29.99 28.752l0.010-5.5c0.001-0.69-0.558-1.251-1.248-1.252s-1.251 0.557-1.252 1.248l-0.004 2.49-7.367-7.367c-0.488-0.488-1.28-0.488-1.768 0s-0.488 1.28 0 1.768l7.358 7.358-2.467-0.003c-0.69-0.001-1.251 0.558-1.252 1.248-0 0.346 0.14 0.659 0.366 0.885s0.538 0.366 0.882 0.366l5.49 0.007c0.69 0.001 1.25-0.558 1.252-1.248zM28.756 2.007l-5.5-0.010c-0.69-0.001-1.251 0.557-1.252 1.248s0.557 1.251 1.248 1.252l2.49 0.004-7.367 7.367c-0.488 0.488-0.488 1.28 0 1.768s1.28 0.488 1.768 0l7.358-7.358-0.003 2.467c-0.001 0.69 0.558 1.251 1.248 1.252 0.346 0 0.659-0.139 0.885-0.366s0.366-0.538 0.366-0.882l0.007-5.49c0.001-0.69-0.558-1.25-1.248-1.252zM2.007 3.242l-0.010 5.5c-0.001 0.69 0.557 1.251 1.248 1.252s1.251-0.557 1.252-1.248l0.004-2.49 7.367 7.367c0.488 0.488 1.28 0.488 1.768 0s0.488-1.28 0-1.768l-7.358-7.358 2.467 0.003c0.69 0.001 1.251-0.558 1.252-1.248 0-0.346-0.139-0.659-0.366-0.885s-0.538-0.366-0.882-0.366l-5.49-0.007c-0.69-0.001-1.25 0.558-1.252 1.248zM3.242 29.993l5.5 0.010c0.69 0.001 1.251-0.558 1.252-1.248s-0.557-1.251-1.248-1.252l-2.49-0.004 7.367-7.367c0.488-0.488 0.488-1.28 0-1.768s-1.28-0.488-1.768 0l-7.358 7.358 0.003-2.467c0.001-0.69-0.558-1.251-1.248-1.252-0.346-0-0.659 0.14-0.885 0.366s-0.366 0.538-0.366 0.882l-0.007 5.49c-0.001 0.69 0.558 1.25 1.248 1.252z"></path>
</svg>
