<?xml version="1.0" encoding="utf-8"?>
<!-- Generated by IcoMoon.io -->
<!DOCTYPE svg PUBLIC "-//W3C//DTD SVG 1.1//EN" "http://www.w3.org/Graphics/SVG/1.1/DTD/svg11.dtd">
<svg version="1.1" xmlns="http://www.w3.org/2000/svg" xmlns:xlink="http://www.w3.org/1999/xlink" width="32" height="32" viewBox="0 0 32 32">
<path fill="#444" d="M30 16.031c0-7.732-6.268-14-14-14s-14 6.268-14 14 6.268 14 14 14c7.732 0 14-6.268 14-14zM7.868 24.163c-2.172-2.172-3.368-5.060-3.368-8.132s1.196-5.96 3.368-8.132c2.172-2.172 5.060-3.368 8.132-3.368s5.96 1.196 8.132 3.368c2.172 2.172 3.368 5.060 3.368 8.132s-1.196 5.96-3.368 8.132c-2.172 2.172-5.060 3.368-8.132 3.368s-5.96-1.196-8.132-3.368z"></path>
<path fill="#444" d="M13.016 12.031c0 1.105-0.895 2-2 2s-2-0.895-2-2c0-1.105 0.895-2 2-2s2 0.895 2 2z"></path>
<path fill="#444" d="M23 12.031c0 1.105-0.895 2-2 2s-2-0.895-2-2c0-1.105 0.895-2 2-2s2 0.895 2 2z"></path>
<path fill="#444" d="M24.031 19.281c0-0.228-0.062-0.44-0.168-0.624v-0.001h-0c-0.216-0.373-0.619-0.625-1.082-0.625s-0.865 0.252-1.081 0.625h-0.003c-1.117 1.976-3.238 3.312-5.666 3.312s-4.548-1.337-5.665-3.312h-0.003c-0.216-0.373-0.619-0.625-1.082-0.625s-0.865 0.252-1.081 0.625h-0.004v0.006c-0.104 0.183-0.165 0.393-0.165 0.619s0.060 0.436 0.165 0.619v0.003c1.548 2.726 4.476 4.566 7.835 4.566 3.357 0 6.283-1.837 7.832-4.56v-0.003c0.106-0.184 0.168-0.397 0.168-0.624z"></path>
</svg>
