<?xml version="1.0" encoding="utf-8"?>
<!-- Generated by IcoMoon.io -->
<!DOCTYPE svg PUBLIC "-//W3C//DTD SVG 1.1//EN" "http://www.w3.org/Graphics/SVG/1.1/DTD/svg11.dtd">
<svg version="1.1" xmlns="http://www.w3.org/2000/svg" xmlns:xlink="http://www.w3.org/1999/xlink" width="32" height="32" viewBox="0 0 32 32">
<path fill="#444" d="M5.25 30.002c-0.69 0-1.25-0.56-1.25-1.25v-25.511c0-0.69 0.56-1.25 1.25-1.25h21.491c0.506 0 0.961 0.305 1.155 0.772s0.087 1.005-0.271 1.362l-5.904 5.904 5.913 5.913c0.358 0.358 0.464 0.895 0.271 1.362s-0.649 0.772-1.155 0.772h-20.25v10.677c0 0.69-0.56 1.25-1.25 1.25zM6.5 15.575h17.232l-4.663-4.663c-0.488-0.488-0.488-1.28 0-1.768l4.654-4.654h-17.223v11.085z"></path>
</svg>
