<?xml version="1.0" encoding="utf-8"?>
<!-- Generated by IcoMoon.io -->
<!DOCTYPE svg PUBLIC "-//W3C//DTD SVG 1.1//EN" "http://www.w3.org/Graphics/SVG/1.1/DTD/svg11.dtd">
<svg version="1.1" xmlns="http://www.w3.org/2000/svg" xmlns:xlink="http://www.w3.org/1999/xlink" width="32" height="32" viewBox="0 0 32 32">
<path fill="#444" d="M29.636 3.821c-0.488-0.488-1.28-0.488-1.768 0l-13.86 13.829-6.069-6.069c-0.488-0.488-1.28-0.488-1.768 0s-0.488 1.28 0 1.768l6.929 6.929c0.008 0.008 0.015 0.017 0.023 0.025 0.244 0.244 0.565 0.366 0.885 0.366s0.641-0.122 0.885-0.366c0.008-0.008 0.014-0.016 0.022-0.024l14.721-14.69c0.488-0.488 0.488-1.28 0-1.768z"></path>
<path fill="#444" d="M3.074 4.014c-0.591 0-1.071 0.479-1.071 1.071v21.845c0 0.591 0.479 1.071 1.071 1.071h21.845c0.591 0 1.071-0.479 1.071-1.071v-13.456c0 0 0-0.037 0-0.056 0-0.69-0.56-1.25-1.25-1.25s-1.25 0.56-1.25 1.25c0 0.009 0 12.082 0 12.082h-18.986v-18.986h18.75c0.69-0 1.25-0.56 1.25-1.25s-0.56-1.25-1.25-1.25z"></path>
</svg>
