<?xml version="1.0" encoding="utf-8"?>
<!-- Generated by IcoMoon.io -->
<!DOCTYPE svg PUBLIC "-//W3C//DTD SVG 1.1//EN" "http://www.w3.org/Graphics/SVG/1.1/DTD/svg11.dtd">
<svg version="1.1" xmlns="http://www.w3.org/2000/svg" xmlns:xlink="http://www.w3.org/1999/xlink" width="32" height="32" viewBox="0 0 32 32">
<path fill="#444" d="M16.002 2.001c-7.732 0-14 6.268-14 14s6.268 14 14 14c7.732 0 14-6.268 14-14s-6.268-14-14-14zM7.87 24.133c-2.172-2.172-3.368-5.060-3.368-8.132s1.196-5.96 3.368-8.132c2.172-2.172 5.060-3.368 8.132-3.368s5.96 1.196 8.132 3.368c2.172 2.172 3.368 5.060 3.368 8.132s-1.196 5.96-3.368 8.132c-1.339 1.339-2.95 2.306-4.709 2.852v-2.035c0-1.081-0.371-1.876-1.112-2.385 0.465-0.045 0.891-0.107 1.279-0.188s0.799-0.197 1.233-0.348 0.822-0.333 1.166-0.543c0.344-0.21 0.674-0.482 0.991-0.817s0.583-0.715 0.797-1.139c0.215-0.424 0.384-0.933 0.509-1.527s0.188-1.248 0.188-1.963c0-1.384-0.451-2.563-1.353-3.537 0.411-1.072 0.366-2.237-0.134-3.497l-0.335-0.040c-0.232-0.027-0.65 0.071-1.253 0.295s-1.279 0.589-2.030 1.098c-1.063-0.295-2.166-0.442-3.309-0.442-1.152 0-2.251 0.147-3.296 0.442-0.473-0.322-0.922-0.587-1.346-0.797s-0.764-0.353-1.018-0.429c-0.255-0.076-0.491-0.123-0.71-0.141s-0.359-0.022-0.422-0.013c-0.063 0.009-0.107 0.018-0.134 0.027-0.5 1.268-0.545 2.434-0.134 3.497-0.902 0.973-1.353 2.152-1.353 3.537 0 0.715 0.063 1.369 0.188 1.963s0.295 1.103 0.509 1.527 0.48 0.804 0.797 1.139c0.317 0.335 0.647 0.607 0.991 0.817s0.732 0.391 1.166 0.543c0.433 0.152 0.844 0.268 1.233 0.348s0.815 0.143 1.279 0.188c-0.732 0.5-1.098 1.295-1.098 2.385v2.075c-1.81-0.537-3.47-1.52-4.843-2.893z"></path>
</svg>
