<?xml version="1.0" encoding="utf-8"?>
<!-- Generated by IcoMoon.io -->
<!DOCTYPE svg PUBLIC "-//W3C//DTD SVG 1.1//EN" "http://www.w3.org/Graphics/SVG/1.1/DTD/svg11.dtd">
<svg version="1.1" xmlns="http://www.w3.org/2000/svg" xmlns:xlink="http://www.w3.org/1999/xlink" width="32" height="32" viewBox="0 0 32 32">
<path fill="#444" d="M16.59 2.045c-0.211-0.032-0.409-0.045-0.59-0.045s-0.379 0.013-0.59 0.045c-7.458 0.309-13.41 6.452-13.41 13.987 0 7.732 6.268 14 14 14s14-6.268 14-14c0-7.534-5.952-13.677-13.41-13.987zM27.433 14.781h-4.953c-0.099-2.892-0.548-5.602-1.289-7.734-0.201-0.579-0.423-1.111-0.663-1.593 1.33 0.569 2.552 1.392 3.605 2.446 1.875 1.875 3.022 4.283 3.301 6.882zM16 27.5c-2.059 0-3.753-4.471-3.975-10.219h7.95c-0.222 5.748-1.917 10.219-3.975 10.219zM12.022 14.781c0.201-5.48 1.74-9.813 3.661-10.245 0.105-0.003 0.211-0.005 0.317-0.005s0.211 0.002 0.317 0.005c1.921 0.433 3.46 4.765 3.661 10.245h-7.955zM7.868 7.899c1.054-1.053 2.276-1.877 3.605-2.446-0.24 0.483-0.462 1.015-0.663 1.593-0.742 2.132-1.191 4.842-1.29 7.734h-4.953c0.279-2.599 1.426-5.007 3.301-6.882zM4.567 17.281h4.956c0.103 2.869 0.551 5.555 1.287 7.672 0.212 0.611 0.448 1.169 0.704 1.673-1.345-0.57-2.582-1.399-3.646-2.463-1.875-1.875-3.022-4.283-3.301-6.882zM24.132 24.163c-1.064 1.064-2.301 1.893-3.646 2.463 0.256-0.504 0.491-1.062 0.704-1.673 0.736-2.117 1.184-4.803 1.287-7.672h4.956c-0.279 2.599-1.426 5.007-3.301 6.882z"></path>
</svg>
