<?xml version="1.0" encoding="utf-8"?>
<!-- Generated by IcoMoon.io -->
<!DOCTYPE svg PUBLIC "-//W3C//DTD SVG 1.1//EN" "http://www.w3.org/Graphics/SVG/1.1/DTD/svg11.dtd">
<svg version="1.1" xmlns="http://www.w3.org/2000/svg" xmlns:xlink="http://www.w3.org/1999/xlink" width="32" height="32" viewBox="0 0 32 32">
<path fill="#444" d="M24.972 2.5c0 0-6.279 0-8.373 0-3.754 0-7.287 2.844-7.287 6.139 0 3.365 2.559 6.082 6.379 6.082 0.265 0 0.523-0.005 0.775-0.023-0.248 0.475-0.425 1.009-0.425 1.563 0 0.937 0.503 1.695 1.14 2.314-0.48 0-0.945 0.014-1.451 0.014-4.649 0.001-8.229 2.962-8.229 6.033 0 3.024 3.923 4.916 8.572 4.916 5.302 0 8.229-3.008 8.229-6.032 0-2.425-0.716-3.877-2.928-5.442-0.757-0.535-2.204-1.838-2.204-2.604 0-0.897 0.256-1.34 1.606-2.394 1.386-1.082 2.365-2.603 2.365-4.373 0-2.105-0.938-4.158-2.699-4.836h2.656l1.873-1.355zM21.922 22.982c0.065 0.281 0.102 0.57 0.102 0.863 0 2.445-1.574 4.353-6.092 4.353-3.215 0-5.535-2.034-5.535-4.478 0-2.394 2.879-4.389 6.092-4.354 0.75 0.008 1.449 0.129 2.084 0.334 1.744 1.214 2.996 1.9 3.349 3.281zM16.776 13.868c-2.156-0.065-4.207-2.413-4.58-5.246-0.371-2.833 1.074-5.001 3.233-4.937 2.156 0.064 4.206 2.338 4.579 5.17 0.372 2.834-1.075 5.078-3.232 5.013z"></path>
</svg>
