<?xml version="1.0" encoding="utf-8"?>
<!-- Generated by IcoMoon.io -->
<!DOCTYPE svg PUBLIC "-//W3C//DTD SVG 1.1//EN" "http://www.w3.org/Graphics/SVG/1.1/DTD/svg11.dtd">
<svg version="1.1" xmlns="http://www.w3.org/2000/svg" xmlns:xlink="http://www.w3.org/1999/xlink" width="32" height="32" viewBox="0 0 32 32">
<path fill="#444" d="M10.151 16.031c0.69 0 1.25 0.56 1.25 1.25v9.5c0 0.69-0.56 1.25-1.25 1.25v0c-0.69 0-1.25-0.56-1.25-1.25v-9.5c0-0.69 0.56-1.25 1.25-1.25v0z"></path>
<path fill="#444" d="M27.651 4.031c0.69 0 1.25 0.56 1.25 1.25v21.5c0 0.69-0.56 1.25-1.25 1.25v0c-0.69 0-1.25-0.56-1.25-1.25v-21.5c0-0.69 0.56-1.25 1.25-1.25v0z"></path>
<path fill="#444" d="M21.818 8.031c0.69 0 1.25 0.56 1.25 1.25v17.5c0 0.69-0.56 1.25-1.25 1.25v0c-0.69 0-1.25-0.56-1.25-1.25v-17.5c0-0.69 0.56-1.25 1.25-1.25v0z"></path>
<path fill="#444" d="M15.984 12.031c0.69 0 1.25 0.56 1.25 1.25v13.5c0 0.69-0.56 1.25-1.25 1.25v0c-0.69 0-1.25-0.56-1.25-1.25v-13.5c0-0.69 0.56-1.25 1.25-1.25v0z"></path>
<path fill="#444" d="M4.349 20.031c0.69 0 1.25 0.56 1.25 1.25v5.5c0 0.69-0.56 1.25-1.25 1.25v0c-0.69 0-1.25-0.56-1.25-1.25v-5.5c0-0.69 0.56-1.25 1.25-1.25v0z"></path>
</svg>
