<?xml version="1.0" encoding="utf-8"?>
<!-- Generated by IcoMoon.io -->
<!DOCTYPE svg PUBLIC "-//W3C//DTD SVG 1.1//EN" "http://www.w3.org/Graphics/SVG/1.1/DTD/svg11.dtd">
<svg version="1.1" xmlns="http://www.w3.org/2000/svg" xmlns:xlink="http://www.w3.org/1999/xlink" width="32" height="32" viewBox="0 0 32 32">
<path fill="#444" d="M25.642 13.521l-2.165-2.165c-0.010-0.011-0.020-0.023-0.030-0.034-0.244-0.244-0.565-0.366-0.885-0.366s-0.641 0.121-0.886 0.366c-0.011 0.011-0.020 0.023-0.030 0.034l-5.278 5.278-3.006-3.006c-0.244-0.244-0.564-0.366-0.884-0.366s-0.64 0.122-0.884 0.366l-5.28 5.28c-0.488 0.488-0.488 1.28 0 1.768s1.28 0.488 1.768 0l4.396-4.396 3.006 3.006c0.244 0.244 0.565 0.366 0.885 0.366s0.641-0.122 0.885-0.366l5.309-5.309 1.313 1.313c0.488 0.488 1.28 0.488 1.768 0s0.488-1.28 0-1.768z"></path>
<path fill="#444" d="M27.5 4.5v23h-23v-23h23zM28.75 2h-25.5c-0.69 0-1.25 0.56-1.25 1.25v25.5c0 0.69 0.56 1.25 1.25 1.25h25.5c0.69 0 1.25-0.56 1.25-1.25v-25.5c0-0.69-0.56-1.25-1.25-1.25v0z"></path>
</svg>
