<?xml version="1.0" encoding="utf-8"?>
<!-- Generated by IcoMoon.io -->
<!DOCTYPE svg PUBLIC "-//W3C//DTD SVG 1.1//EN" "http://www.w3.org/Graphics/SVG/1.1/DTD/svg11.dtd">
<svg version="1.1" xmlns="http://www.w3.org/2000/svg" xmlns:xlink="http://www.w3.org/1999/xlink" width="32" height="32" viewBox="0 0 32 32">
<path fill="#444" d="M28.012 19.854c-0.228-0.131-0.467-0.225-0.71-0.284v-7.13c0.243-0.059 0.482-0.152 0.71-0.284 1.278-0.738 1.716-2.373 0.978-3.651s-2.373-1.717-3.651-0.979c-0.228 0.132-0.428 0.292-0.601 0.473l-6.174-3.565c0.071-0.24 0.109-0.494 0.109-0.757 0-1.476-1.197-2.673-2.673-2.673s-2.673 1.197-2.673 2.673c0 0.263 0.039 0.517 0.11 0.757l-6.175 3.564c-0.173-0.181-0.373-0.342-0.601-0.473-1.278-0.738-2.913-0.3-3.651 0.979s-0.3 2.913 0.978 3.651c0.228 0.132 0.467 0.225 0.71 0.284v7.13c-0.243 0.059-0.482 0.152-0.71 0.284-1.278 0.738-1.716 2.373-0.978 3.651s2.373 1.717 3.652 0.979c0.228-0.131 0.428-0.292 0.6-0.473l6.175 3.565c-0.071 0.24-0.109 0.494-0.109 0.756 0 1.476 1.197 2.673 2.673 2.673s2.673-1.197 2.673-2.673c0-0.293-0.048-0.574-0.135-0.837l6.142-3.546c0.185 0.207 0.405 0.389 0.658 0.535 1.279 0.738 2.913 0.3 3.652-0.979s0.3-2.913-0.979-3.651zM7.922 21.538c-0.059-0.242-0.152-0.479-0.282-0.705-0.129-0.224-0.287-0.422-0.465-0.593l8.080-13.994c0.237 0.069 0.487 0.106 0.746 0.106s0.508-0.037 0.744-0.106l8.080 13.995c-0.177 0.171-0.335 0.368-0.464 0.591-0.131 0.226-0.224 0.464-0.283 0.705l-16.156-0zM24.106 9.107c-0.192 0.672-0.123 1.419 0.254 2.072s0.989 1.087 1.667 1.256v7.142c-0.034 0.008-0.067 0.017-0.1 0.027l-8.080-13.995c0.025-0.024 0.050-0.049 0.074-0.074l6.185 3.571zM14.079 5.536c0.023 0.024 0.047 0.048 0.072 0.071l-8.081 13.995c-0.032-0.009-0.065-0.018-0.098-0.026v-7.142c0.678-0.17 1.29-0.603 1.667-1.256s0.447-1.4 0.254-2.072l6.185-3.57zM17.981 26.538c-0.489-0.539-1.195-0.878-1.981-0.878-0.755 0-1.436 0.313-1.922 0.816l-6.185-3.571c0.009-0.031 0.017-0.062 0.025-0.093h16.163c0.015 0.059 0.030 0.117 0.049 0.175l-6.15 3.551z"></path>
</svg>
