<?xml version="1.0" encoding="utf-8"?>
<!-- Generated by IcoMoon.io -->
<!DOCTYPE svg PUBLIC "-//W3C//DTD SVG 1.1//EN" "http://www.w3.org/Graphics/SVG/1.1/DTD/svg11.dtd">
<svg version="1.1" xmlns="http://www.w3.org/2000/svg" xmlns:xlink="http://www.w3.org/1999/xlink" width="32" height="32" viewBox="0 0 32 32">
<path fill="#444" d="M13.661 17.262c-0.053-0.007-0.107-0.012-0.161-0.012h-8.249c-0.055 0-0.108 0.005-0.161 0.012-0.614 0.079-1.089 0.603-1.089 1.238v8.251c0 0.69 0.56 1.25 1.25 1.25h8.249c0.431 0 0.812-0.219 1.037-0.551 0.003-0.005 0.006-0.010 0.009-0.014 0.019-0.029 0.037-0.058 0.054-0.089 0.001-0.003 0.002-0.005 0.004-0.008 0.094-0.175 0.147-0.375 0.147-0.588v-8.251c0-0.636-0.475-1.159-1.089-1.238zM6.501 25.501v-5.751h5.749v5.751h-5.749z"></path>
<path fill="#444" d="M13.661 4.013c-0.053-0.007-0.107-0.012-0.161-0.012h-8.249c-0.055 0-0.108 0.005-0.161 0.012-0.614 0.079-1.089 0.603-1.089 1.238v8.249c0 0.69 0.56 1.25 1.25 1.25h8.249c0.431 0 0.812-0.219 1.037-0.551 0.003-0.005 0.006-0.010 0.009-0.014 0.019-0.029 0.037-0.058 0.054-0.089 0.001-0.003 0.002-0.005 0.004-0.008 0.094-0.175 0.147-0.375 0.147-0.588v-8.249c0-0.636-0.475-1.159-1.089-1.239zM6.501 12.25v-5.749h5.749v5.749h-5.749z"></path>
<path fill="#444" d="M26.913 17.262c-0.053-0.007-0.107-0.012-0.161-0.012h-8.252c-0.055 0-0.108 0.005-0.161 0.012-0.614 0.079-1.089 0.603-1.089 1.238v8.251c0 0.69 0.56 1.25 1.25 1.25h8.252c0.431 0 0.812-0.219 1.037-0.551 0.003-0.005 0.006-0.010 0.009-0.014 0.019-0.029 0.038-0.058 0.054-0.089 0.001-0.003 0.003-0.005 0.004-0.008 0.094-0.175 0.147-0.375 0.147-0.588v-8.251c0-0.636-0.475-1.159-1.089-1.238zM19.75 25.501v-5.751h5.752v5.751h-5.752z"></path>
<path fill="#444" d="M26.913 4.013c-0.053-0.007-0.107-0.012-0.161-0.012h-8.252c-0.055 0-0.108 0.005-0.161 0.012-0.614 0.079-1.089 0.603-1.089 1.238v8.249c0 0.69 0.56 1.25 1.25 1.25h8.252c0.431 0 0.812-0.219 1.037-0.551 0.003-0.005 0.006-0.010 0.009-0.014 0.019-0.029 0.038-0.058 0.054-0.089 0.001-0.003 0.003-0.005 0.004-0.008 0.094-0.175 0.147-0.375 0.147-0.588v-8.249c0-0.636-0.475-1.159-1.089-1.239zM19.75 12.25v-5.749h5.752v5.749h-5.752z"></path>
</svg>
