<?xml version="1.0" encoding="utf-8"?>
<!-- Generated by IcoMoon.io -->
<!DOCTYPE svg PUBLIC "-//W3C//DTD SVG 1.1//EN" "http://www.w3.org/Graphics/SVG/1.1/DTD/svg11.dtd">
<svg version="1.1" xmlns="http://www.w3.org/2000/svg" xmlns:xlink="http://www.w3.org/1999/xlink" width="32" height="32" viewBox="0 0 32 32">
<path fill="#444" d="M16.911 14.012c-0.053-0.007-0.107-0.012-0.161-0.012h-11.499c-0.055 0-0.108 0.005-0.161 0.012-0.614 0.079-1.089 0.603-1.089 1.238v11.501c0 0.69 0.56 1.25 1.25 1.25h11.499c0.431 0 0.812-0.219 1.037-0.551 0.003-0.005 0.006-0.010 0.009-0.014 0.019-0.029 0.038-0.058 0.054-0.089 0.001-0.003 0.003-0.005 0.004-0.008 0.094-0.175 0.147-0.375 0.147-0.588v-11.501c0-0.636-0.475-1.159-1.089-1.239zM6.5 25.501v-9.001h8.999v9.001h-8.999z"></path>
<path fill="#444" d="M23.001 10.255c0-0.636-0.475-1.159-1.089-1.238-0.053-0.007-0.107-0.012-0.161-0.012h-16.5c-0.69 0-1.25 0.56-1.25 1.25s0.56 1.25 1.25 1.25l15.251-0v15.247c0 0.69 0.56 1.25 1.25 1.25s1.25-0.56 1.25-1.25v-16.497z"></path>
<path fill="#444" d="M26.912 4.013c-0.053-0.007-0.107-0.012-0.161-0.012h-21.5c-0.69 0-1.25 0.56-1.25 1.25s0.56 1.25 1.25 1.25c0 0 9.501-0 9.501-0h10.749v10.749c0 0-0 9.501-0 9.501 0 0.69 0.56 1.25 1.25 1.25s1.25-0.56 1.25-1.25v0-21.5c0-0.636-0.475-1.159-1.089-1.238z"></path>
</svg>
