<?xml version="1.0" encoding="utf-8"?>
<!-- Generated by IcoMoon.io -->
<!DOCTYPE svg PUBLIC "-//W3C//DTD SVG 1.1//EN" "http://www.w3.org/Graphics/SVG/1.1/DTD/svg11.dtd">
<svg version="1.1" xmlns="http://www.w3.org/2000/svg" xmlns:xlink="http://www.w3.org/1999/xlink" width="32" height="32" viewBox="0 0 32 32">
<path fill="#444" d="M27.97 6.073c-0.653-0.658-1.453-1.166-2.396-1.529-0.941-0.366-2-0.543-3.171-0.543-0.611 0-1.211 0.090-1.8 0.284-0.577 0.189-1.143 0.445-1.69 0.758-0.546 0.307-1.064 0.665-1.56 1.059-0.501 0.4-0.952 0.799-1.355 1.208-0.422-0.409-0.876-0.808-1.363-1.208-0.49-0.394-1.002-0.752-1.543-1.059-0.538-0.313-1.107-0.568-1.71-0.758-0.597-0.194-1.205-0.284-1.814-0.284-1.16 0-2.205 0.178-3.14 0.543-0.929 0.363-1.729 0.871-2.385 1.529s-1.163 1.468-1.515 2.416c-0.349 0.954-0.529 2.016-0.529 3.182 0 0.676 0.096 1.346 0.287 2.017 0.197 0.659 0.45 1.312 0.777 1.926s0.709 1.203 1.143 1.768c0.434 0.566 0.887 1.079 1.354 1.549l9.555 9.535c0.265 0.236 0.566 0.358 0.881 0.358 0.335 0 0.622-0.121 0.853-0.358l9.56-9.507c0.462-0.462 0.918-0.98 1.349-1.543 0.439-0.569 0.822-1.163 1.158-1.788 0.341-0.623 0.6-1.27 0.794-1.938 0.194-0.662 0.287-1.332 0.287-2.019 0-1.166-0.175-2.227-0.518-3.182-0.352-0.949-0.851-1.757-1.512-2.417z"></path>
</svg>
