<?xml version="1.0" encoding="utf-8"?>
<!-- Generated by IcoMoon.io -->
<!DOCTYPE svg PUBLIC "-//W3C//DTD SVG 1.1//EN" "http://www.w3.org/Graphics/SVG/1.1/DTD/svg11.dtd">
<svg version="1.1" xmlns="http://www.w3.org/2000/svg" xmlns:xlink="http://www.w3.org/1999/xlink" width="32" height="32" viewBox="0 0 32 32">
<path fill="#444" d="M22.402 6.5c0.866 0 1.628 0.126 2.265 0.373l0.004 0.002 0.004 0.002c0.621 0.239 1.118 0.552 1.52 0.957l0.005 0.005 0.005 0.005c0.393 0.392 0.697 0.883 0.928 1.503 0.243 0.681 0.366 1.462 0.366 2.324 0 0.458-0.061 0.888-0.186 1.315l-0.001 0.003-0.001 0.003c-0.152 0.523-0.344 0.992-0.587 1.436l-0.005 0.009-0.005 0.009c-0.275 0.514-0.581 0.985-0.933 1.442l-0.006 0.008c-0.354 0.462-0.734 0.897-1.13 1.293l-8.66 8.612-8.654-8.636c-0.416-0.42-0.789-0.846-1.14-1.305-0.356-0.464-0.665-0.942-0.92-1.422-0.225-0.423-0.422-0.912-0.584-1.452-0.126-0.446-0.187-0.876-0.187-1.316 0-0.855 0.126-1.635 0.375-2.318 0.225-0.606 0.542-1.116 0.94-1.515 0.406-0.408 0.905-0.723 1.526-0.966 0.639-0.25 1.368-0.371 2.229-0.371 0.361 0 0.711 0.054 1.041 0.162l0.012 0.004 0.012 0.004c0.41 0.129 0.815 0.309 1.203 0.534l0.011 0.006 0.011 0.006c0.398 0.226 0.791 0.496 1.201 0.825 0.453 0.372 0.846 0.72 1.201 1.064l1.781 1.725 1.739-1.767c0.323-0.328 0.693-0.658 1.133-1.008 0.418-0.333 0.819-0.606 1.226-0.834l0.008-0.005 0.008-0.005c0.407-0.233 0.82-0.418 1.228-0.552l0.002-0 0.002-0.001c0.324-0.107 0.656-0.159 1.017-0.159zM22.402 4c-0.611 0-1.211 0.090-1.8 0.284-0.577 0.189-1.143 0.445-1.69 0.758-0.546 0.307-1.064 0.665-1.56 1.059-0.501 0.4-0.952 0.799-1.355 1.208-0.422-0.409-0.876-0.808-1.363-1.208-0.49-0.394-1.002-0.752-1.543-1.059-0.538-0.313-1.107-0.568-1.71-0.758-0.597-0.194-1.205-0.284-1.814-0.284-1.16 0-2.205 0.178-3.14 0.543-0.929 0.363-1.729 0.871-2.385 1.529s-1.163 1.468-1.515 2.416c-0.349 0.954-0.529 2.016-0.529 3.182 0 0.676 0.096 1.346 0.287 2.017 0.197 0.659 0.45 1.312 0.777 1.926s0.709 1.203 1.143 1.768c0.434 0.566 0.887 1.079 1.354 1.549l9.555 9.535c0.265 0.236 0.566 0.358 0.881 0.358 0.335 0 0.622-0.121 0.853-0.358l9.56-9.507c0.462-0.462 0.918-0.98 1.349-1.543 0.439-0.569 0.822-1.163 1.158-1.788 0.341-0.623 0.6-1.27 0.794-1.938 0.194-0.662 0.287-1.332 0.287-2.019 0-1.166-0.175-2.227-0.518-3.182-0.352-0.949-0.851-1.757-1.512-2.417-0.653-0.658-1.453-1.166-2.396-1.529-0.941-0.366-2-0.543-3.171-0.543v0z"></path>
</svg>
