<?xml version="1.0" encoding="utf-8"?>
<!-- Generated by IcoMoon.io -->
<!DOCTYPE svg PUBLIC "-//W3C//DTD SVG 1.1//EN" "http://www.w3.org/Graphics/SVG/1.1/DTD/svg11.dtd">
<svg version="1.1" xmlns="http://www.w3.org/2000/svg" xmlns:xlink="http://www.w3.org/1999/xlink" width="32" height="32" viewBox="0 0 32 32">
<path fill="#444" d="M29.629 15.113l-12.744-12.742c-0.244-0.244-0.564-0.366-0.884-0.366s-0.64 0.122-0.884 0.366l-12.748 12.746c-0.488 0.488-0.488 1.28-0 1.768s1.28 0.488 1.768 0l0.613-0.613v11.46c0 0.69 0.56 1.25 1.25 1.25h5.959c0.013 0 0.026 0.002 0.039 0.002 0.345 0 0.658-0.14 0.884-0.367s0.368-0.539 0.368-0.885c0-0.013-0.002-0.026-0.002-0.039v-8.225h5.502v8.248c0 0.69 0.56 1.25 1.25 1.25l5.996 0.004c0.072 0 0.141-0.007 0.21-0.019 0.014-0.002 0.028-0.004 0.042-0.006 0.007-0.001 0.013-0.004 0.020-0.005 0.56-0.124 0.978-0.623 0.978-1.22v-11.453l0.615 0.615c0.488 0.488 1.28 0.488 1.768-0s0.488-1.28-0-1.768zM24.746 14.008v12.46l-3.496-0.002v-8.246c0-0.001-0-0.001-0-0.002s0-0 0-0.001c0-0.69-0.56-1.25-1.25-1.25h-7.938c-0.017 0-0.034 0.002-0.052 0.003-0.004-0-0.009-0.001-0.013-0.001-0.69 0-1.25 0.56-1.25 1.25v8.262h-3.498v-12.481c0-0.071-0.007-0.141-0.019-0.209l8.77-8.768 8.766 8.765c-0.013 0.072-0.021 0.146-0.021 0.221z"></path>
</svg>
