<?xml version="1.0" encoding="utf-8"?>
<!-- Generated by IcoMoon.io -->
<!DOCTYPE svg PUBLIC "-//W3C//DTD SVG 1.1//EN" "http://www.w3.org/Graphics/SVG/1.1/DTD/svg11.dtd">
<svg version="1.1" xmlns="http://www.w3.org/2000/svg" xmlns:xlink="http://www.w3.org/1999/xlink" width="32" height="32" viewBox="0 0 32 32">
<path fill="#444" d="M15.998 25.061c-0.69 0-1.25-0.56-1.25-1.25v0c0-0.69 0.56-1.25 1.25-1.25v0c0.69 0 1.25 0.56 1.25 1.25v0c0 0.69-0.56 1.25-1.25 1.25v0z"></path>
<path fill="#444" d="M24.322 23.426c-0.003-0.005-0.007-0.011-0.011-0.016l-4.952-7.412 4.929-7.378c0.001-0.002 0.003-0.005 0.005-0.007s0.003-0.005 0.005-0.007l0.174-0.261c0.029-0.043 0.055-0.088 0.078-0.134 0.875-1.443 1.366-3.082 1.434-4.77 0.009-0.062 0.016-0.124 0.016-0.189 0-0.69-0.56-1.25-1.25-1.25h-17.5c-0.69 0-1.25 0.56-1.25 1.25 0 0.057 0.005 0.113 0.013 0.168 0.071 1.845 0.641 3.621 1.668 5.158 0.003 0.005 0.007 0.011 0.011 0.016l4.953 7.413-4.928 7.376c-0.001 0.002-0.003 0.005-0.005 0.007s-0.003 0.005-0.005 0.007l-0.174 0.261c-0.029 0.043-0.055 0.088-0.078 0.134-0.869 1.433-1.359 3.060-1.433 4.736-0.013 0.072-0.021 0.147-0.021 0.223 0 0.69 0.56 1.25 1.25 1.25h17.5c0.69 0 1.25-0.56 1.25-1.25 0-0.051-0.004-0.101-0.010-0.151-0.068-1.852-0.639-3.633-1.668-5.175zM22.441 7.030c-0.013 0.021-0.025 0.041-0.036 0.062l-1.819 2.722h-9.175l-1.696-2.539c-0.001-0.002-0.005-0.007-0.006-0.009l-0.001-0.001c-0.004-0.005-0.007-0.011-0.011-0.016-0.562-0.837-0.944-1.769-1.136-2.747h14.875c-0.176 0.893-0.511 1.75-0.995 2.529zM14.096 13.833l-1.015-1.519h5.834l-2.918 4.367-0.451-0.675 0.001-0.001-1.451-2.172zM9.597 24.911l4.498-6.732 0.899 1.345c0.224 0.335 0.6 0.536 1.003 0.536s0.779-0.201 1.003-0.536l0.906-1.355 0.001 0.001 4.382 6.558c0.001 0.002 0.005 0.007 0.006 0.009l0.001 0.001c0.003 0.005 0.007 0.011 0.011 0.016 0.562 0.837 0.944 1.769 1.136 2.747h-14.877c0.176-0.893 0.511-1.75 0.995-2.528 0.012-0.021 0.024-0.041 0.036-0.062z"></path>
</svg>
