<?xml version="1.0" encoding="utf-8"?>
<!-- Generated by IcoMoon.io -->
<!DOCTYPE svg PUBLIC "-//W3C//DTD SVG 1.1//EN" "http://www.w3.org/Graphics/SVG/1.1/DTD/svg11.dtd">
<svg version="1.1" xmlns="http://www.w3.org/2000/svg" xmlns:xlink="http://www.w3.org/1999/xlink" width="32" height="32" viewBox="0 0 32 32">
<path fill="#444" d="M25.899 6.101c-5.467-5.467-14.332-5.467-19.799 0s-5.467 14.332 0 19.799c5.467 5.467 14.332 5.467 19.799 0s5.467-14.332 0-19.799zM24.132 24.132c-2.172 2.172-5.060 3.368-8.132 3.368s-5.96-1.196-8.132-3.368c-2.172-2.172-3.368-5.060-3.368-8.132s1.196-5.96 3.368-8.132c2.172-2.172 5.060-3.368 8.132-3.368s5.96 1.196 8.132 3.368c2.172 2.172 3.368 5.060 3.368 8.132s-1.196 5.96-3.368 8.132z"></path>
<path fill="#444" d="M16.031 11.285c-0.69 0-1.25-0.56-1.25-1.25v0c0-0.69 0.56-1.25 1.25-1.25v0c0.69 0 1.25 0.56 1.25 1.25v0c0 0.69-0.56 1.25-1.25 1.25v0z"></path>
<path fill="#444" d="M16.031 23.222c-0.69 0-1.25-0.56-1.25-1.25v-7.5c0-0.69 0.56-1.25 1.25-1.25v0c0.69 0 1.25 0.56 1.25 1.25v7.5c0 0.69-0.56 1.25-1.25 1.25v0z"></path>
</svg>
