<?xml version="1.0" encoding="utf-8"?>
<!-- Generated by IcoMoon.io -->
<!DOCTYPE svg PUBLIC "-//W3C//DTD SVG 1.1//EN" "http://www.w3.org/Graphics/SVG/1.1/DTD/svg11.dtd">
<svg version="1.1" xmlns="http://www.w3.org/2000/svg" xmlns:xlink="http://www.w3.org/1999/xlink" width="32" height="32" viewBox="0 0 32 32">
<path fill="#444" d="M24.001 10.001c0 1.105-0.895 2-2 2s-2-0.895-2-2c0-1.105 0.895-2 2-2s2 0.895 2 2z"></path>
<path fill="#444" d="M21.001 2.034c-4.971 0-9 4.030-9 9 0 1.104 0.199 2.161 0.563 3.139l-10.171 10.171c-0.186 0.176-0.319 0.408-0.369 0.67-0.001 0.004-0.001 0.008-0.002 0.012-0.006 0.035-0.012 0.070-0.015 0.106-0.002 0.019-0.002 0.039-0.003 0.058-0.001 0.020-0.003 0.041-0.003 0.061v3.5c0 0.261 0.080 0.502 0.216 0.702 0.225 0.33 0.604 0.548 1.034 0.548h5.5c0.001 0 0.001 0 0.002 0s0.001 0 0.002 0c0.69 0 1.25-0.56 1.25-1.25l0-1.959h2.25c0.043 0 0.086-0.002 0.128-0.006 0.294-0.030 0.558-0.162 0.756-0.36 0.226-0.226 0.366-0.539 0.366-0.884 0 0-0-0.001-0-0.001l0-2.249h2.242c0.043 0 0.086-0.002 0.128-0.006 0.294-0.030 0.558-0.162 0.756-0.36 0.226-0.226 0.366-0.539 0.366-0.884 0-0-0-0.001-0-0.001l0-1.702 0.867-0.867c0.977 0.363 2.034 0.562 3.137 0.562 4.971 0 9-4.030 9-9s-4.029-9-9-9zM21.001 17.534c-1.332 0-2.572-0.403-3.604-1.093l-0.584 0.584c-0.070 0.046-0.137 0.1-0.199 0.162l-1.75 1.75c-0.244 0.244-0.366 0.563-0.366 0.883-0 0.005-0.001 0.009-0.001 0.014v0.959h-2.25c-0.69 0-1.25 0.56-1.25 1.25 0 0.046 0.003 0.091 0.008 0.136v2.114h-2.25c-0.043 0-0.086 0.002-0.128 0.006-0.504 0.051-0.92 0.402-1.066 0.872-0 0.001-0.001 0.002-0.001 0.004-0.012 0.038-0.022 0.077-0.030 0.116-0 0.001-0 0.002-0 0.003-0.008 0.040-0.014 0.080-0.019 0.121-0.002 0.020-0.002 0.041-0.003 0.062-0.001 0.022-0.003 0.043-0.003 0.065v1.959h-3.004l0-1.73 9.316-9.316c0.004 0.006 0.008 0.011 0.013 0.017l1.793-1.793c-0.707-1.040-1.121-2.296-1.121-3.646 0-3.584 2.916-6.5 6.5-6.5s6.5 2.916 6.5 6.5-2.916 6.5-6.5 6.5z"></path>
</svg>
