<?xml version="1.0" encoding="utf-8"?>
<!-- Generated by IcoMoon.io -->
<!DOCTYPE svg PUBLIC "-//W3C//DTD SVG 1.1//EN" "http://www.w3.org/Graphics/SVG/1.1/DTD/svg11.dtd">
<svg version="1.1" xmlns="http://www.w3.org/2000/svg" xmlns:xlink="http://www.w3.org/1999/xlink" width="32" height="32" viewBox="0 0 32 32">
<path fill="#444" d="M10.001 31.958c-0.232 0-0.464-0.064-0.67-0.195-0.478-0.304-0.692-0.89-0.522-1.43l3.6-11.435-6.705-1.643c-0.46-0.113-0.817-0.475-0.921-0.937s0.060-0.943 0.426-1.243l18-14.771c0.452-0.371 1.1-0.379 1.561-0.020s0.611 0.99 0.362 1.519l-5.35 11.352 6.52 1.617c0.447 0.111 0.796 0.458 0.91 0.904s-0.026 0.918-0.365 1.23l-16 14.722c-0.237 0.218-0.541 0.33-0.847 0.33zM8.726 15.422l5.572 1.365c0.336 0.082 0.622 0.3 0.792 0.601s0.207 0.659 0.103 0.989l-2.595 8.242 10.846-9.98-5.744-1.425c-0.363-0.090-0.667-0.338-0.828-0.677s-0.161-0.731-0.002-1.069l3.635-7.712-11.779 9.666z"></path>
</svg>
