<?xml version="1.0" encoding="utf-8"?>
<!-- Generated by IcoMoon.io -->
<!DOCTYPE svg PUBLIC "-//W3C//DTD SVG 1.1//EN" "http://www.w3.org/Graphics/SVG/1.1/DTD/svg11.dtd">
<svg version="1.1" xmlns="http://www.w3.org/2000/svg" xmlns:xlink="http://www.w3.org/1999/xlink" width="32" height="32" viewBox="0 0 32 32">
<path fill="#444" d="M21.999 1.999c-2.135 0-4.074 0.835-5.508 2.197-0.008 0.008-3.309 3.308-3.316 3.316-0.066 0.070-0.131 0.141-0.195 0.213-0.010 0.011-0.019 0.022-0.029 0.033-0.062 0.071-0.123 0.143-0.182 0.216-0.008 0.010-0.016 0.020-0.024 0.029-1.106 1.372-1.768 3.116-1.768 5.017 0 1.166 0.25 2.274 0.698 3.273-0 0-0 0-0 0 0.008 0.018 0.017 0.036 0.025 0.054 0.021 0.047 0.043 0.094 0.065 0.14 0.012 0.026 0.025 0.051 0.038 0.077 0.021 0.042 0.042 0.084 0.063 0.126 0.014 0.027 0.028 0.054 0.043 0.081 0.021 0.040 0.043 0.080 0.064 0.119 0.015 0.027 0.030 0.054 0.045 0.081 0.022 0.039 0.045 0.078 0.068 0.117 0.015 0.026 0.031 0.052 0.047 0.078 0.024 0.039 0.048 0.078 0.072 0.117 0.016 0.025 0.031 0.049 0.047 0.074 0.026 0.040 0.053 0.080 0.079 0.12 0.015 0.022 0.030 0.044 0.045 0.067 0.030 0.043 0.060 0.086 0.090 0.128 0.013 0.018 0.026 0.037 0.039 0.055 0.036 0.049 0.072 0.098 0.109 0.146 0.008 0.011 0.016 0.022 0.025 0.033 0.141 0.183 0.29 0.359 0.446 0.529 0 0 0.001 0.001 0.001 0.001 0.051 0.055 0.103 0.11 0.155 0.164 0.006 0.006 0.012 0.012 0.018 0.018 0.047 0.048 0.095 0.096 0.143 0.143 0.008 0.008 0.017 0.016 0.025 0.024 0.046 0.045 0.093 0.089 0.141 0.132 0.009 0.009 0.019 0.017 0.029 0.026 0.047 0.043 0.095 0.085 0.143 0.127 0.010 0.009 0.020 0.017 0.030 0.026 0.023 0.020 0.046 0.040 0.069 0.059v-0.002c0.031 0.026 0.063 0.053 0.094 0.079 0.017 0.015 0.034 0.029 0.052 0.043s0.034 0.026 0.050 0.037c0.203 0.142 0.45 0.227 0.717 0.227 0.69 0 1.25-0.56 1.25-1.25 0-0.405-0.194-0.765-0.493-0.993-0.002-0.003-0.003-0.005-0.005-0.007-0.144-0.117-0.283-0.243-0.416-0.376-0.113-0.113-0.22-0.232-0.322-0.353-0.834-0.989-1.289-2.227-1.289-3.537 0-1.407 0.53-2.744 1.492-3.767 0.060-0.060 0.242-0.243 0.492-0.492 0.061-0.061 0.127-0.127 0.196-0.196 0.008-0.008 0.016-0.016 0.024-0.024 0.026-0.026 0.053-0.053 0.080-0.080 0.050-0.050 0.1-0.1 0.152-0.152 0.002-0.002 0.004-0.004 0.006-0.006 0.15-0.15 0.309-0.309 0.471-0.471 0.091-0.091 0.183-0.183 0.274-0.274 0.006-0.006 0.011-0.011 0.017-0.017 0.031-0.031 0.061-0.061 0.092-0.092 0.035-0.035 0.069-0.069 0.104-0.104 0.003-0.003 0.006-0.006 0.009-0.010 0.644-0.644 1.228-1.228 1.346-1.346 1.023-0.962 2.36-1.491 3.767-1.491 1.47 0 2.851 0.572 3.889 1.61s1.611 2.42 1.611 3.89c0 1.411-0.532 2.75-1.499 3.775-0.169 0.169-1.275 1.275-2.155 2.155-0.224 0.224-0.434 0.434-0.61 0.609v0c-0.011 0.011-0.023 0.023-0.034 0.034h0.042c0.182 0.772 0.279 1.577 0.279 2.404 0 0.216-0.007 0.43-0.020 0.644 0.218-0.15 0.427-0.311 0.628-0.481v0.002c0.023-0.019 0.045-0.039 0.068-0.059 0.030-0.026 0.061-0.052 0.091-0.079 0.070-0.062 0.139-0.125 0.206-0.189 0.005-0.005 3.292-3.292 3.296-3.296 1.368-1.435 2.208-3.378 2.208-5.519-0-4.422-3.582-8-8-8z"></path>
<path fill="#444" d="M10 30c2.135 0 4.074-0.835 5.508-2.197 0.008-0.008 3.309-3.308 3.316-3.316 0.066-0.070 0.131-0.141 0.195-0.213 0.010-0.011 0.019-0.022 0.029-0.033 0.062-0.071 0.123-0.143 0.182-0.216 0.008-0.010 0.016-0.020 0.024-0.029 1.106-1.372 1.768-3.116 1.768-5.017 0-1.166-0.25-2.274-0.698-3.273 0 0 0-0 0-0-0.008-0.018-0.017-0.036-0.025-0.054-0.021-0.047-0.043-0.094-0.065-0.14-0.012-0.026-0.025-0.051-0.038-0.077-0.021-0.042-0.042-0.084-0.063-0.126-0.014-0.027-0.028-0.054-0.043-0.081-0.021-0.040-0.043-0.080-0.064-0.119-0.015-0.027-0.030-0.054-0.045-0.081-0.022-0.039-0.045-0.078-0.068-0.117-0.015-0.026-0.031-0.052-0.047-0.078-0.024-0.039-0.048-0.078-0.072-0.117-0.016-0.025-0.031-0.049-0.047-0.074-0.026-0.040-0.053-0.080-0.079-0.12-0.015-0.022-0.030-0.044-0.045-0.066-0.030-0.043-0.060-0.086-0.090-0.128-0.013-0.018-0.026-0.037-0.039-0.055-0.036-0.049-0.072-0.098-0.109-0.146-0.008-0.011-0.016-0.022-0.025-0.033-0.141-0.183-0.29-0.359-0.446-0.529-0-0-0.001-0.001-0.001-0.001-0.051-0.055-0.103-0.11-0.155-0.164-0.006-0.006-0.012-0.012-0.018-0.018-0.047-0.048-0.095-0.096-0.143-0.143-0.009-0.008-0.017-0.016-0.025-0.024-0.046-0.045-0.093-0.089-0.141-0.132-0.009-0.009-0.019-0.017-0.029-0.026-0.047-0.043-0.095-0.085-0.142-0.127-0.010-0.009-0.020-0.017-0.030-0.026-0.023-0.020-0.046-0.040-0.069-0.059v0.002c-0.031-0.026-0.063-0.053-0.094-0.079-0.017-0.015-0.035-0.029-0.052-0.043s-0.034-0.026-0.050-0.037c-0.203-0.143-0.45-0.227-0.717-0.227-0.69 0-1.25 0.56-1.25 1.25 0 0.405 0.194 0.765 0.493 0.993 0.002 0.002 0.003 0.005 0.005 0.007 0.144 0.117 0.283 0.243 0.416 0.376 0.113 0.113 0.22 0.232 0.322 0.353 0.834 0.989 1.289 2.227 1.289 3.537 0 1.407-0.529 2.744-1.492 3.767-0.060 0.060-0.242 0.243-0.492 0.492-0.061 0.061-0.127 0.127-0.196 0.196-0.008 0.008-0.016 0.016-0.024 0.024-0.026 0.026-0.053 0.053-0.080 0.080-0.050 0.050-0.1 0.1-0.152 0.152-0.002 0.002-0.004 0.004-0.006 0.006-0.15 0.15-0.309 0.309-0.471 0.471-0.091 0.091-0.182 0.183-0.274 0.274-0.006 0.006-0.011 0.011-0.017 0.017-0.031 0.031-0.061 0.061-0.092 0.092-0.035 0.035-0.069 0.069-0.104 0.104-0.003 0.003-0.006 0.006-0.009 0.009-0.644 0.644-1.228 1.228-1.346 1.346-1.023 0.962-2.36 1.491-3.767 1.491-1.47 0-2.851-0.572-3.889-1.61s-1.611-2.42-1.611-3.89c0-1.411 0.532-2.75 1.499-3.775 0.169-0.169 1.275-1.275 2.155-2.155 0.224-0.224 0.434-0.434 0.61-0.609v-0c0.011-0.011 0.023-0.023 0.034-0.034h-0.042c-0.182-0.772-0.279-1.577-0.279-2.404 0-0.216 0.007-0.43 0.020-0.644-0.218 0.15-0.427 0.311-0.628 0.481v-0.002c-0.023 0.019-0.045 0.039-0.068 0.059-0.030 0.026-0.061 0.052-0.091 0.079-0.070 0.062-0.139 0.125-0.207 0.189-0.005 0.005-3.292 3.292-3.296 3.296-1.368 1.435-2.208 3.378-2.208 5.519 0 4.422 3.582 8 8 8z"></path>
</svg>
