<?xml version="1.0" encoding="utf-8"?>
<!-- Generated by IcoMoon.io -->
<!DOCTYPE svg PUBLIC "-//W3C//DTD SVG 1.1//EN" "http://www.w3.org/Graphics/SVG/1.1/DTD/svg11.dtd">
<svg version="1.1" xmlns="http://www.w3.org/2000/svg" xmlns:xlink="http://www.w3.org/1999/xlink" width="32" height="32" viewBox="0 0 32 32">
<path fill="#444" d="M30.031 7.281c0 0.69-0.56 1.25-1.25 1.25h-19c-0.69 0-1.25-0.56-1.25-1.25v0c0-0.69 0.56-1.25 1.25-1.25h19c0.69 0 1.25 0.56 1.25 1.25v0z"></path>
<path fill="#444" d="M30.031 24.781c0 0.69-0.56 1.25-1.25 1.25h-19c-0.69 0-1.25-0.56-1.25-1.25v0c0-0.69 0.56-1.25 1.25-1.25h19c0.69 0 1.25 0.56 1.25 1.25v0z"></path>
<path fill="#444" d="M30.031 18.948c0 0.69-0.56 1.25-1.25 1.25h-19c-0.69 0-1.25-0.56-1.25-1.25v0c0-0.69 0.56-1.25 1.25-1.25h19c0.69 0 1.25 0.56 1.25 1.25v0z"></path>
<path fill="#444" d="M30.031 13.115c0 0.69-0.56 1.25-1.25 1.25h-19c-0.69 0-1.25-0.56-1.25-1.25v0c0-0.69 0.56-1.25 1.25-1.25h19c0.69 0 1.25 0.56 1.25 1.25v0z"></path>
<path fill="#444" d="M6.031 7.281c0 1.105-0.895 2-2 2s-2-0.895-2-2c0-1.105 0.895-2 2-2s2 0.895 2 2z"></path>
<path fill="#444" d="M6.031 24.781c0 1.105-0.895 2-2 2s-2-0.895-2-2c0-1.105 0.895-2 2-2s2 0.895 2 2z"></path>
<path fill="#444" d="M6.031 18.948c0 1.105-0.895 2-2 2s-2-0.895-2-2c0-1.105 0.895-2 2-2s2 0.895 2 2z"></path>
<path fill="#444" d="M6.031 13.114c0 1.105-0.895 2-2 2s-2-0.895-2-2c0-1.105 0.895-2 2-2s2 0.895 2 2z"></path>
</svg>
