<?xml version="1.0" encoding="utf-8"?>
<!-- Generated by IcoMoon.io -->
<!DOCTYPE svg PUBLIC "-//W3C//DTD SVG 1.1//EN" "http://www.w3.org/Graphics/SVG/1.1/DTD/svg11.dtd">
<svg version="1.1" xmlns="http://www.w3.org/2000/svg" xmlns:xlink="http://www.w3.org/1999/xlink" width="32" height="32" viewBox="0 0 32 32">
<path fill="#444" d="M30 16l-0-0.001c-0-3.583-1.367-7.165-4.101-9.899-5.467-5.467-14.332-5.467-19.799 0s-5.467 14.332 0 19.799c2.733 2.733 6.314 4.1 9.896 4.1 0.001 0 0.001 0 0.002 0s0.001-0 0.001-0c3.583 0 7.166-1.367 9.9-4.1s4.1-6.316 4.101-9.899v-0.001zM24.132 24.132c-1.875 1.875-4.284 3.022-6.883 3.301v-4.183c0-0.69-0.56-1.25-1.25-1.25s-1.25 0.56-1.25 1.25v4.182c-2.599-0.279-5.006-1.426-6.88-3.301s-3.021-4.283-3.301-6.882h4.182c0.69 0 1.25-0.56 1.25-1.25s-0.56-1.25-1.25-1.25h-4.183c0.279-2.599 1.426-5.007 3.301-6.882s4.282-3.021 6.88-3.301v4.182c0 0.69 0.56 1.25 1.25 1.25s1.25-0.56 1.25-1.25v-4.183c2.599 0.279 5.008 1.426 6.883 3.301s3.021 4.283 3.301 6.882h-4.182c-0.69 0-1.25 0.56-1.25 1.25s0.56 1.25 1.25 1.25h4.182c-0.279 2.599-1.426 5.007-3.301 6.882z"></path>
</svg>
