<?xml version="1.0" encoding="utf-8"?>
<!-- Generated by IcoMoon.io -->
<!DOCTYPE svg PUBLIC "-//W3C//DTD SVG 1.1//EN" "http://www.w3.org/Graphics/SVG/1.1/DTD/svg11.dtd">
<svg version="1.1" xmlns="http://www.w3.org/2000/svg" xmlns:xlink="http://www.w3.org/1999/xlink" width="32" height="32" viewBox="0 0 32 32">
<path fill="#444" d="M28.001 28.61v-14.609c0-0.597-0.419-1.095-0.978-1.22-0.007-0.001-0.013-0.004-0.020-0.005-0.014-0.003-0.028-0.004-0.042-0.007-0.068-0.012-0.138-0.019-0.21-0.019h-1.747l0-1.745h0.001c0-4.973-4.032-9.005-9.005-9.005s-9.004 4.031-9.005 9.004v1.746h-1.714c-0.647 0-1.18 0.492-1.244 1.122-0.004 0.042-0.006 0.085-0.006 0.128v14.479c-0.019 0.087-0.030 0.178-0.030 0.271 0 0.69 0.56 1.25 1.25 1.25h21.508c0.69 0 1.25-0.56 1.25-1.25-0-0.048-0.003-0.095-0.008-0.141zM6.531 15.251h18.97v12.25h-18.97v-12.25zM9.495 11.006c0-3.587 2.918-6.505 6.505-6.505 3.581 0 6.495 2.909 6.504 6.487 0 0.003-0 0.005-0 0.008v1.755h-13.009l0-1.745zM17.255 21.621l-0 1.818c0 0.69-0.56 1.25-1.25 1.25s-1.25-0.56-1.25-1.25v-1.812c-0.46-0.366-0.754-0.931-0.754-1.564 0-1.105 0.895-2 2-2s2 0.895 2 2c0 0.629-0.291 1.191-0.746 1.557z"></path>
</svg>
