<svg width="500" height="70" viewBox="0 0 251 34" fill="none" xmlns="http://www.w3.org/2000/svg">
<rect width="251" height="33.9198" />
<g opacity="0.8">
<circle cx="17.3368" cy="1.88438" r="1.50755" fill="white"/>
<circle cx="2.26132" cy="9.42221" r="2.26132" fill="white"/>
<circle cx="24.8745" cy="9.42222" r="1.50755" fill="white"/>
<circle cx="24.8745" cy="32.0354" r="1.50755" fill="white"/>
<circle cx="32.4123" cy="9.42216" r="1.13066" fill="white"/>
<circle cx="2.26133" cy="16.9599" r="1.50755" fill="white"/>
<circle cx="9.7991" cy="32.0353" r="1.88443" fill="white"/>
<circle cx="9.79899" cy="1.88444" r="1.13066" fill="white"/>
<circle cx="9.79906" cy="24.4977" r="0.753773" fill="white"/>
<circle cx="32.4122" cy="16.9598" r="0.753773" fill="white"/>
<circle cx="2.26127" cy="24.4976" r="1.13066" fill="white"/>
<circle cx="17.3367" cy="32.0353" r="1.13066" fill="white"/>
<circle cx="24.8745" cy="1.88443" r="1.88443" fill="white"/>
<circle cx="32.0353" cy="24.4976" r="1.88443" fill="white"/>
</g>
<path d="M26.4734 22.8986C27.3565 23.7817 27.3565 25.2134 26.4734 26.0965C25.5903 26.9796 24.1585 26.9797 23.2754 26.0966C22.3923 25.2135 7.40843 8.79774 8.29153 7.91464C9.17463 7.03154 25.5903 22.0155 26.4734 22.8986Z" fill="white"/>
<path d="M25.9403 15.894C26.5291 16.4827 26.5291 17.4372 25.9403 18.026C25.3516 18.6147 24.3971 18.6147 23.8083 18.026C23.2196 17.4372 15.2405 8.50339 15.8293 7.91465C16.418 7.32592 25.3516 15.3053 25.9403 15.894Z" fill="white"/>
<path d="M18.4029 23.4319C18.9916 24.0206 18.9916 24.9752 18.4029 25.5639C17.8142 26.1526 16.8597 26.1526 16.2709 25.5639C15.6822 24.9752 7.70282 16.041 8.29155 15.4523C8.88028 14.8636 17.8142 22.8432 18.4029 23.4319Z" fill="white"/>
<mask id="path-18-outside-1" maskUnits="userSpaceOnUse" x="47.998" y="6.91296" width="108" height="20" fill="black">
<rect fill="white" x="47.998" y="6.91296" width="108" height="20"/>
<path d="M52.2444 25.4817H48.998V8.29489H52.2444L57.5198 17.5805L62.7952 8.24715H66.0416V25.4817H62.7475V14.8116L58.8566 21.8295H56.2308L52.2444 14.74V25.4817Z"/>
<path d="M70.8144 8.43812H81.6278V11.5652H74.2757V15.3128H80.864V18.3921H74.2518V22.4263H81.6756V25.4817H70.8144V8.43812Z"/>
<path d="M85.976 11.4458V8.22328H98.89V11.4458H94.1636V25.5295H90.6308V11.4458H85.976Z"/>
<path d="M103.188 8.43812H114.001V11.5652H106.649V15.3128H113.237V18.3921H106.625V22.4263H114.049V25.4817H103.188V8.43812Z"/>
<path d="M127.635 26.0069C126.044 26.0069 124.572 25.6011 123.219 24.7895C121.866 23.9779 120.792 22.8798 119.997 21.4953C119.217 20.1108 118.827 18.599 118.827 16.9599C118.827 15.3208 119.217 13.809 119.997 12.4245C120.792 11.04 121.866 9.94196 123.219 9.13036C124.572 8.31876 126.044 7.91296 127.635 7.91296C129.227 7.91296 130.691 8.31876 132.027 9.13036C133.38 9.94196 134.446 11.04 135.226 12.4245C136.022 13.809 136.42 15.3208 136.42 16.9599C136.42 18.599 136.022 20.1108 135.226 21.4953C134.446 22.8798 133.38 23.9779 132.027 24.7895C130.691 25.6011 129.227 26.0069 127.635 26.0069ZM127.731 22.6889C128.717 22.6889 129.624 22.4342 130.452 21.925C131.295 21.3998 131.956 20.6996 132.433 19.8244C132.926 18.9491 133.173 18.0023 133.173 16.9838C133.173 15.9653 132.926 15.0184 132.433 14.1432C131.956 13.252 131.295 12.5518 130.452 12.0426C129.624 11.5174 128.717 11.2548 127.731 11.2548C126.744 11.2548 125.829 11.5174 124.986 12.0426C124.158 12.5518 123.498 13.252 123.004 14.1432C122.527 15.0184 122.288 15.9653 122.288 16.9838C122.288 18.0023 122.527 18.9491 123.004 19.8244C123.498 20.6996 124.158 21.3998 124.986 21.925C125.829 22.4342 126.744 22.6889 127.731 22.6889Z"/>
<path d="M141.669 8.34263H147.661C148.95 8.34263 150.056 8.58134 150.979 9.05875C151.902 9.52025 152.594 10.1568 153.055 10.9684C153.533 11.78 153.771 12.6871 153.771 13.6896C153.771 14.6286 153.572 15.464 153.175 16.1961C152.793 16.9281 152.307 17.493 151.719 17.8909C151.13 18.2887 150.533 18.4876 149.928 18.4876L154.822 25.5056H150.979L146.491 19.0605H144.963V25.5295L141.669 25.4817V8.34263ZM148.377 16.029C149.013 16.029 149.53 15.83 149.928 15.4322C150.342 15.0344 150.549 14.4535 150.549 13.6896C150.549 13.1963 150.406 12.7666 150.119 12.4006C149.849 12.0346 149.514 11.7641 149.117 11.589C148.719 11.3981 148.329 11.3026 147.947 11.3026H144.987V16.029H148.377Z"/>
</mask>
<path d="M52.2444 25.4817H48.998V8.29489H52.2444L57.5198 17.5805L62.7952 8.24715H66.0416V25.4817H62.7475V14.8116L58.8566 21.8295H56.2308L52.2444 14.74V25.4817Z" fill="white"/>
<path d="M70.8144 8.43812H81.6278V11.5652H74.2757V15.3128H80.864V18.3921H74.2518V22.4263H81.6756V25.4817H70.8144V8.43812Z" fill="white"/>
<path d="M85.976 11.4458V8.22328H98.89V11.4458H94.1636V25.5295H90.6308V11.4458H85.976Z" fill="white"/>
<path d="M103.188 8.43812H114.001V11.5652H106.649V15.3128H113.237V18.3921H106.625V22.4263H114.049V25.4817H103.188V8.43812Z" fill="white"/>
<path d="M127.635 26.0069C126.044 26.0069 124.572 25.6011 123.219 24.7895C121.866 23.9779 120.792 22.8798 119.997 21.4953C119.217 20.1108 118.827 18.599 118.827 16.9599C118.827 15.3208 119.217 13.809 119.997 12.4245C120.792 11.04 121.866 9.94196 123.219 9.13036C124.572 8.31876 126.044 7.91296 127.635 7.91296C129.227 7.91296 130.691 8.31876 132.027 9.13036C133.38 9.94196 134.446 11.04 135.226 12.4245C136.022 13.809 136.42 15.3208 136.42 16.9599C136.42 18.599 136.022 20.1108 135.226 21.4953C134.446 22.8798 133.38 23.9779 132.027 24.7895C130.691 25.6011 129.227 26.0069 127.635 26.0069ZM127.731 22.6889C128.717 22.6889 129.624 22.4342 130.452 21.925C131.295 21.3998 131.956 20.6996 132.433 19.8244C132.926 18.9491 133.173 18.0023 133.173 16.9838C133.173 15.9653 132.926 15.0184 132.433 14.1432C131.956 13.252 131.295 12.5518 130.452 12.0426C129.624 11.5174 128.717 11.2548 127.731 11.2548C126.744 11.2548 125.829 11.5174 124.986 12.0426C124.158 12.5518 123.498 13.252 123.004 14.1432C122.527 15.0184 122.288 15.9653 122.288 16.9838C122.288 18.0023 122.527 18.9491 123.004 19.8244C123.498 20.6996 124.158 21.3998 124.986 21.925C125.829 22.4342 126.744 22.6889 127.731 22.6889Z" fill="white"/>
<path d="M141.669 8.34263H147.661C148.95 8.34263 150.056 8.58134 150.979 9.05875C151.902 9.52025 152.594 10.1568 153.055 10.9684C153.533 11.78 153.771 12.6871 153.771 13.6896C153.771 14.6286 153.572 15.464 153.175 16.1961C152.793 16.9281 152.307 17.493 151.719 17.8909C151.13 18.2887 150.533 18.4876 149.928 18.4876L154.822 25.5056H150.979L146.491 19.0605H144.963V25.5295L141.669 25.4817V8.34263ZM148.377 16.029C149.013 16.029 149.53 15.83 149.928 15.4322C150.342 15.0344 150.549 14.4535 150.549 13.6896C150.549 13.1963 150.406 12.7666 150.119 12.4006C149.849 12.0346 149.514 11.7641 149.117 11.589C148.719 11.3981 148.329 11.3026 147.947 11.3026H144.987V16.029H148.377Z" fill="white"/>
<path d="M52.2444 25.4817H48.998V8.29489H52.2444L57.5198 17.5805L62.7952 8.24715H66.0416V25.4817H62.7475V14.8116L58.8566 21.8295H56.2308L52.2444 14.74V25.4817Z" stroke="white" stroke-width="0.301565" mask="url(#path-18-outside-1)"/>
<path d="M70.8144 8.43812H81.6278V11.5652H74.2757V15.3128H80.864V18.3921H74.2518V22.4263H81.6756V25.4817H70.8144V8.43812Z" stroke="white" stroke-width="0.301565" mask="url(#path-18-outside-1)"/>
<path d="M85.976 11.4458V8.22328H98.89V11.4458H94.1636V25.5295H90.6308V11.4458H85.976Z" stroke="white" stroke-width="0.301565" mask="url(#path-18-outside-1)"/>
<path d="M103.188 8.43812H114.001V11.5652H106.649V15.3128H113.237V18.3921H106.625V22.4263H114.049V25.4817H103.188V8.43812Z" stroke="white" stroke-width="0.301565" mask="url(#path-18-outside-1)"/>
<path d="M127.635 26.0069C126.044 26.0069 124.572 25.6011 123.219 24.7895C121.866 23.9779 120.792 22.8798 119.997 21.4953C119.217 20.1108 118.827 18.599 118.827 16.9599C118.827 15.3208 119.217 13.809 119.997 12.4245C120.792 11.04 121.866 9.94196 123.219 9.13036C124.572 8.31876 126.044 7.91296 127.635 7.91296C129.227 7.91296 130.691 8.31876 132.027 9.13036C133.38 9.94196 134.446 11.04 135.226 12.4245C136.022 13.809 136.42 15.3208 136.42 16.9599C136.42 18.599 136.022 20.1108 135.226 21.4953C134.446 22.8798 133.38 23.9779 132.027 24.7895C130.691 25.6011 129.227 26.0069 127.635 26.0069ZM127.731 22.6889C128.717 22.6889 129.624 22.4342 130.452 21.925C131.295 21.3998 131.956 20.6996 132.433 19.8244C132.926 18.9491 133.173 18.0023 133.173 16.9838C133.173 15.9653 132.926 15.0184 132.433 14.1432C131.956 13.252 131.295 12.5518 130.452 12.0426C129.624 11.5174 128.717 11.2548 127.731 11.2548C126.744 11.2548 125.829 11.5174 124.986 12.0426C124.158 12.5518 123.498 13.252 123.004 14.1432C122.527 15.0184 122.288 15.9653 122.288 16.9838C122.288 18.0023 122.527 18.9491 123.004 19.8244C123.498 20.6996 124.158 21.3998 124.986 21.925C125.829 22.4342 126.744 22.6889 127.731 22.6889Z" stroke="white" stroke-width="0.301565" mask="url(#path-18-outside-1)"/>
<path d="M141.669 8.34263H147.661C148.95 8.34263 150.056 8.58134 150.979 9.05875C151.902 9.52025 152.594 10.1568 153.055 10.9684C153.533 11.78 153.771 12.6871 153.771 13.6896C153.771 14.6286 153.572 15.464 153.175 16.1961C152.793 16.9281 152.307 17.493 151.719 17.8909C151.13 18.2887 150.533 18.4876 149.928 18.4876L154.822 25.5056H150.979L146.491 19.0605H144.963V25.5295L141.669 25.4817V8.34263ZM148.377 16.029C149.013 16.029 149.53 15.83 149.928 15.4322C150.342 15.0344 150.549 14.4535 150.549 13.6896C150.549 13.1963 150.406 12.7666 150.119 12.4006C149.849 12.0346 149.514 11.7641 149.117 11.589C148.719 11.3981 148.329 11.3026 147.947 11.3026H144.987V16.029H148.377Z" stroke="white" stroke-width="0.301565" mask="url(#path-18-outside-1)"/>
<g opacity="0.8">
<path d="M162.361 17.1031C162.361 15.4163 162.775 13.8886 163.602 12.52C164.43 11.1355 165.52 10.0534 166.872 9.27359C168.241 8.49382 169.697 8.10393 171.241 8.10393C172.434 8.10393 173.564 8.34264 174.63 8.82005C175.712 9.28155 176.659 9.93401 177.471 10.7774C178.298 11.6049 178.935 12.5598 179.381 13.6419L176.946 14.0716C176.357 12.9894 175.593 12.0903 174.654 11.3742C173.715 10.6581 172.585 10.3 171.265 10.3C169.928 10.3 168.766 10.5785 167.779 11.1355C166.809 11.6925 166.053 12.4882 165.512 13.5226C164.987 14.541 164.724 15.7346 164.724 17.1031C164.724 18.3762 165.018 19.5061 165.607 20.4928C166.196 21.4794 166.984 22.2433 167.97 22.7843C168.973 23.3254 170.071 23.5959 171.265 23.5959C172.824 23.5959 174.065 23.2299 174.988 22.4979C175.911 21.7499 176.588 20.8269 177.017 19.7289L179.452 20.3018C179.134 21.2884 178.553 22.2114 177.71 23.0708C176.882 23.9142 175.895 24.5905 174.75 25.0998C173.604 25.609 172.434 25.8636 171.241 25.8636C169.665 25.8636 168.193 25.4817 166.825 24.7179C165.472 23.954 164.39 22.9037 163.578 21.5669C162.767 20.2302 162.361 18.7422 162.361 17.1031Z" fill="white"/>
<path d="M193.915 25.5056H184.224V8.36651H186.444V23.3572H193.915V25.5056Z" fill="white"/>
<path d="M206.073 26.0069C204.482 26.0069 203.01 25.6011 201.657 24.7895C200.304 23.9779 199.23 22.8798 198.435 21.4953C197.655 20.1108 197.265 18.599 197.265 16.9599C197.265 15.3208 197.655 13.809 198.435 12.4245C199.23 11.04 200.304 9.94196 201.657 9.13036C203.01 8.31876 204.482 7.91296 206.073 7.91296C207.665 7.91296 209.129 8.31876 210.465 9.13036C211.818 9.94196 212.884 11.04 213.664 12.4245C214.46 13.809 214.858 15.3208 214.858 16.9599C214.858 18.599 214.46 20.1108 213.664 21.4953C212.884 22.8798 211.818 23.9779 210.465 24.7895C209.129 25.6011 207.665 26.0069 206.073 26.0069ZM206.073 23.8108C207.251 23.8108 208.333 23.5005 209.32 22.8798C210.322 22.2592 211.118 21.4237 211.707 20.3734C212.295 19.3231 212.59 18.1932 212.59 16.9838C212.59 15.7584 212.295 14.6206 211.707 13.5703C211.134 12.52 210.346 11.6845 209.343 11.0639C208.341 10.4273 207.251 10.1091 206.073 10.1091C204.896 10.1091 203.805 10.4273 202.803 11.0639C201.816 11.6845 201.029 12.5279 200.44 13.5942C199.851 14.6445 199.557 15.7743 199.557 16.9838C199.557 18.1932 199.851 19.3231 200.44 20.3734C201.029 21.4237 201.816 22.2592 202.803 22.8798C203.805 23.5005 204.896 23.8108 206.073 23.8108Z" fill="white"/>
<path d="M232.209 18.9889C232.209 20.7712 231.756 22.3626 230.849 23.763C229.942 25.1475 228.303 25.8398 225.931 25.8398C224.245 25.8398 222.908 25.4658 221.921 24.7179C220.95 23.9699 220.282 23.0947 219.916 22.0921C219.566 21.0736 219.391 20.0949 219.391 19.156V8.43812H221.659V19.4186C221.659 20.2143 221.826 20.9463 222.16 21.6147C222.494 22.2671 222.979 22.7923 223.616 23.1901C224.253 23.588 224.993 23.7869 225.836 23.7869C226.663 23.7869 227.388 23.5959 228.008 23.214C228.629 22.8162 229.106 22.291 229.44 21.6385C229.775 20.9861 229.942 20.2859 229.942 19.5379V8.46199H232.209V18.9889Z" fill="white"/>
<path d="M236.988 8.46199H243.027C244.682 8.46199 246.107 8.82005 247.3 9.53617C248.51 10.2364 249.425 11.231 250.045 12.52C250.682 13.7931 251 15.2731 251 16.9599C251 18.7104 250.666 20.2302 249.997 21.5192C249.329 22.7923 248.366 23.7789 247.109 24.4791C245.868 25.1634 244.404 25.5056 242.717 25.5056H236.988V8.46199ZM239.208 23.4527C239.606 23.4527 239.9 23.4448 240.091 23.4288L243.099 23.405C243.942 23.405 244.802 23.1742 245.677 22.7127C246.552 22.2353 247.284 21.5033 247.873 20.5166C248.462 19.5141 248.756 18.2728 248.756 16.7928C248.756 15.3288 248.438 14.1352 247.801 13.2122C247.181 12.2733 246.425 11.597 245.534 11.1832C244.658 10.7695 243.831 10.5706 243.051 10.5865L239.208 10.6103V23.4527Z" fill="white"/>
</g>
</svg>
