<svg width="251" height="34" viewBox="0 0 251 34" fill="none" xmlns="http://www.w3.org/2000/svg">
<g opacity="0.8">
<circle cx="17.3368" cy="1.8845" r="1.50755" fill="#FF6A3E"/>
<circle cx="2.26132" cy="9.42221" r="2.26132" fill="#FF6A3E"/>
<circle cx="24.8745" cy="9.4221" r="1.50755" fill="#FF6A3E"/>
<circle cx="24.8745" cy="32.0354" r="1.50755" fill="#FF6A3E"/>
<circle cx="32.4122" cy="9.42216" r="1.13066" fill="#FF6A3E"/>
<circle cx="2.26133" cy="16.9599" r="1.50755" fill="#FF6A3E"/>
<circle cx="9.79904" cy="32.0353" r="1.88443" fill="#FF6A3E"/>
<circle cx="9.79906" cy="1.88432" r="1.13066" fill="#FF6A3E"/>
<circle cx="9.79906" cy="24.4977" r="0.753773" fill="#FF6A3E"/>
<circle cx="32.4122" cy="16.9598" r="0.753773" fill="#FF6A3E"/>
<circle cx="2.26134" cy="24.4976" r="1.13066" fill="#FF6A3E"/>
<circle cx="17.3368" cy="32.0354" r="1.13066" fill="#FF6A3E"/>
<circle cx="24.8745" cy="1.88443" r="1.88443" fill="#FF6A3E"/>
<circle cx="32.0353" cy="24.4977" r="1.88443" fill="#FF6A3E"/>
</g>
<path d="M26.4734 22.8986C27.3565 23.7817 27.3565 25.2134 26.4734 26.0965C25.5903 26.9796 24.1585 26.9797 23.2754 26.0966C22.3923 25.2135 7.40843 8.79774 8.29153 7.91464C9.17463 7.03154 25.5903 22.0155 26.4734 22.8986Z" fill="#FF6A3E"/>
<path d="M25.9403 15.8939C26.5291 16.4826 26.5291 17.4371 25.9403 18.0259C25.3516 18.6146 24.3971 18.6146 23.8083 18.0259C23.2196 17.4371 15.2405 8.50327 15.8293 7.91453C16.418 7.3258 25.3516 15.3051 25.9403 15.8939Z" fill="#FF6A3E"/>
<path d="M18.4029 23.432C18.9916 24.0208 18.9916 24.9753 18.4029 25.564C17.8142 26.1527 16.8597 26.1527 16.2709 25.564C15.6822 24.9753 7.70282 16.0412 8.29155 15.4524C8.88028 14.8637 17.8142 22.8433 18.4029 23.432Z" fill="#FF6A3E"/>
<mask id="path-18-outside-1" maskUnits="userSpaceOnUse" x="47.998" y="6.91309" width="108" height="20" fill="black">
<rect fill="white" x="47.998" y="6.91309" width="108" height="20"/>
<path d="M52.2444 25.4818H48.998V8.29502H52.2444L57.5198 17.5807L62.7952 8.24727H66.0416V25.4818H62.7475V14.8117L58.8566 21.8296H56.2308L52.2444 14.7401V25.4818Z"/>
<path d="M70.8144 8.43824H81.6278V11.5653H74.2757V15.313H80.864V18.3923H74.2518V22.4264H81.6756V25.4818H70.8144V8.43824Z"/>
<path d="M85.976 11.4459V8.2234H98.89V11.4459H94.1636V25.5296H90.6308V11.4459H85.976Z"/>
<path d="M103.188 8.43824H114.001V11.5653H106.649V15.313H113.237V18.3923H106.625V22.4264H114.049V25.4818H103.188V8.43824Z"/>
<path d="M127.635 26.007C126.044 26.007 124.572 25.6012 123.219 24.7896C121.866 23.978 120.792 22.8799 119.997 21.4954C119.217 20.111 118.827 18.5991 118.827 16.96C118.827 15.3209 119.217 13.8091 119.997 12.4246C120.792 11.0401 121.866 9.94209 123.219 9.13049C124.572 8.31889 126.044 7.91309 127.635 7.91309C129.227 7.91309 130.691 8.31889 132.027 9.13049C133.38 9.94209 134.446 11.0401 135.226 12.4246C136.022 13.8091 136.42 15.3209 136.42 16.96C136.42 18.5991 136.022 20.111 135.226 21.4954C134.446 22.8799 133.38 23.978 132.027 24.7896C130.691 25.6012 129.227 26.007 127.635 26.007ZM127.731 22.689C128.717 22.689 129.624 22.4344 130.452 21.9251C131.295 21.4 131.956 20.6998 132.433 19.8245C132.926 18.9493 133.173 18.0024 133.173 16.9839C133.173 15.9654 132.926 15.0186 132.433 14.1433C131.956 13.2521 131.295 12.5519 130.452 12.0427C129.624 11.5175 128.717 11.255 127.731 11.255C126.744 11.255 125.829 11.5175 124.986 12.0427C124.158 12.5519 123.498 13.2521 123.004 14.1433C122.527 15.0186 122.288 15.9654 122.288 16.9839C122.288 18.0024 122.527 18.9493 123.004 19.8245C123.498 20.6998 124.158 21.4 124.986 21.9251C125.829 22.4344 126.744 22.689 127.731 22.689Z"/>
<path d="M141.669 8.34276H147.661C148.95 8.34276 150.056 8.58146 150.979 9.05887C151.902 9.52037 152.594 10.1569 153.055 10.9685C153.533 11.7801 153.771 12.6872 153.771 13.6898C153.771 14.6287 153.572 15.4641 153.175 16.1962C152.793 16.9282 152.307 17.4931 151.719 17.891C151.13 18.2888 150.533 18.4878 149.928 18.4878L154.822 25.5057H150.979L146.491 19.0606H144.963V25.5296L141.669 25.4818V8.34276ZM148.377 16.0291C149.013 16.0291 149.53 15.8302 149.928 15.4323C150.342 15.0345 150.549 14.4536 150.549 13.6898C150.549 13.1964 150.406 12.7668 150.119 12.4008C149.849 12.0347 149.514 11.7642 149.117 11.5892C148.719 11.3982 148.329 11.3027 147.947 11.3027H144.987V16.0291H148.377Z"/>
</mask>
<path d="M52.2444 25.4818H48.998V8.29502H52.2444L57.5198 17.5807L62.7952 8.24727H66.0416V25.4818H62.7475V14.8117L58.8566 21.8296H56.2308L52.2444 14.7401V25.4818Z" fill="#1B2448"/>
<path d="M70.8144 8.43824H81.6278V11.5653H74.2757V15.313H80.864V18.3923H74.2518V22.4264H81.6756V25.4818H70.8144V8.43824Z" fill="#1B2448"/>
<path d="M85.976 11.4459V8.2234H98.89V11.4459H94.1636V25.5296H90.6308V11.4459H85.976Z" fill="#1B2448"/>
<path d="M103.188 8.43824H114.001V11.5653H106.649V15.313H113.237V18.3923H106.625V22.4264H114.049V25.4818H103.188V8.43824Z" fill="#1B2448"/>
<path d="M127.635 26.007C126.044 26.007 124.572 25.6012 123.219 24.7896C121.866 23.978 120.792 22.8799 119.997 21.4954C119.217 20.111 118.827 18.5991 118.827 16.96C118.827 15.3209 119.217 13.8091 119.997 12.4246C120.792 11.0401 121.866 9.94209 123.219 9.13049C124.572 8.31889 126.044 7.91309 127.635 7.91309C129.227 7.91309 130.691 8.31889 132.027 9.13049C133.38 9.94209 134.446 11.0401 135.226 12.4246C136.022 13.8091 136.42 15.3209 136.42 16.96C136.42 18.5991 136.022 20.111 135.226 21.4954C134.446 22.8799 133.38 23.978 132.027 24.7896C130.691 25.6012 129.227 26.007 127.635 26.007ZM127.731 22.689C128.717 22.689 129.624 22.4344 130.452 21.9251C131.295 21.4 131.956 20.6998 132.433 19.8245C132.926 18.9493 133.173 18.0024 133.173 16.9839C133.173 15.9654 132.926 15.0186 132.433 14.1433C131.956 13.2521 131.295 12.5519 130.452 12.0427C129.624 11.5175 128.717 11.255 127.731 11.255C126.744 11.255 125.829 11.5175 124.986 12.0427C124.158 12.5519 123.498 13.2521 123.004 14.1433C122.527 15.0186 122.288 15.9654 122.288 16.9839C122.288 18.0024 122.527 18.9493 123.004 19.8245C123.498 20.6998 124.158 21.4 124.986 21.9251C125.829 22.4344 126.744 22.689 127.731 22.689Z" fill="#1B2448"/>
<path d="M141.669 8.34276H147.661C148.95 8.34276 150.056 8.58146 150.979 9.05887C151.902 9.52037 152.594 10.1569 153.055 10.9685C153.533 11.7801 153.771 12.6872 153.771 13.6898C153.771 14.6287 153.572 15.4641 153.175 16.1962C152.793 16.9282 152.307 17.4931 151.719 17.891C151.13 18.2888 150.533 18.4878 149.928 18.4878L154.822 25.5057H150.979L146.491 19.0606H144.963V25.5296L141.669 25.4818V8.34276ZM148.377 16.0291C149.013 16.0291 149.53 15.8302 149.928 15.4323C150.342 15.0345 150.549 14.4536 150.549 13.6898C150.549 13.1964 150.406 12.7668 150.119 12.4008C149.849 12.0347 149.514 11.7642 149.117 11.5892C148.719 11.3982 148.329 11.3027 147.947 11.3027H144.987V16.0291H148.377Z" fill="#1B2448"/>
<path d="M52.2444 25.4818H48.998V8.29502H52.2444L57.5198 17.5807L62.7952 8.24727H66.0416V25.4818H62.7475V14.8117L58.8566 21.8296H56.2308L52.2444 14.7401V25.4818Z" stroke="#1B2448" stroke-width="0.301565" mask="url(#path-18-outside-1)"/>
<path d="M70.8144 8.43824H81.6278V11.5653H74.2757V15.313H80.864V18.3923H74.2518V22.4264H81.6756V25.4818H70.8144V8.43824Z" stroke="#1B2448" stroke-width="0.301565" mask="url(#path-18-outside-1)"/>
<path d="M85.976 11.4459V8.2234H98.89V11.4459H94.1636V25.5296H90.6308V11.4459H85.976Z" stroke="#1B2448" stroke-width="0.301565" mask="url(#path-18-outside-1)"/>
<path d="M103.188 8.43824H114.001V11.5653H106.649V15.313H113.237V18.3923H106.625V22.4264H114.049V25.4818H103.188V8.43824Z" stroke="#1B2448" stroke-width="0.301565" mask="url(#path-18-outside-1)"/>
<path d="M127.635 26.007C126.044 26.007 124.572 25.6012 123.219 24.7896C121.866 23.978 120.792 22.8799 119.997 21.4954C119.217 20.111 118.827 18.5991 118.827 16.96C118.827 15.3209 119.217 13.8091 119.997 12.4246C120.792 11.0401 121.866 9.94209 123.219 9.13049C124.572 8.31889 126.044 7.91309 127.635 7.91309C129.227 7.91309 130.691 8.31889 132.027 9.13049C133.38 9.94209 134.446 11.0401 135.226 12.4246C136.022 13.8091 136.42 15.3209 136.42 16.96C136.42 18.5991 136.022 20.111 135.226 21.4954C134.446 22.8799 133.38 23.978 132.027 24.7896C130.691 25.6012 129.227 26.007 127.635 26.007ZM127.731 22.689C128.717 22.689 129.624 22.4344 130.452 21.9251C131.295 21.4 131.956 20.6998 132.433 19.8245C132.926 18.9493 133.173 18.0024 133.173 16.9839C133.173 15.9654 132.926 15.0186 132.433 14.1433C131.956 13.2521 131.295 12.5519 130.452 12.0427C129.624 11.5175 128.717 11.255 127.731 11.255C126.744 11.255 125.829 11.5175 124.986 12.0427C124.158 12.5519 123.498 13.2521 123.004 14.1433C122.527 15.0186 122.288 15.9654 122.288 16.9839C122.288 18.0024 122.527 18.9493 123.004 19.8245C123.498 20.6998 124.158 21.4 124.986 21.9251C125.829 22.4344 126.744 22.689 127.731 22.689Z" stroke="#1B2448" stroke-width="0.301565" mask="url(#path-18-outside-1)"/>
<path d="M141.669 8.34276H147.661C148.95 8.34276 150.056 8.58146 150.979 9.05887C151.902 9.52037 152.594 10.1569 153.055 10.9685C153.533 11.7801 153.771 12.6872 153.771 13.6898C153.771 14.6287 153.572 15.4641 153.175 16.1962C152.793 16.9282 152.307 17.4931 151.719 17.891C151.13 18.2888 150.533 18.4878 149.928 18.4878L154.822 25.5057H150.979L146.491 19.0606H144.963V25.5296L141.669 25.4818V8.34276ZM148.377 16.0291C149.013 16.0291 149.53 15.8302 149.928 15.4323C150.342 15.0345 150.549 14.4536 150.549 13.6898C150.549 13.1964 150.406 12.7668 150.119 12.4008C149.849 12.0347 149.514 11.7642 149.117 11.5892C148.719 11.3982 148.329 11.3027 147.947 11.3027H144.987V16.0291H148.377Z" stroke="#1B2448" stroke-width="0.301565" mask="url(#path-18-outside-1)"/>
<g opacity="0.8">
<path d="M162.361 17.1033C162.361 15.4164 162.775 13.8887 163.602 12.5201C164.43 11.1356 165.52 10.0535 166.872 9.27371C168.241 8.49394 169.697 8.10405 171.241 8.10405C172.434 8.10405 173.564 8.34276 174.63 8.82017C175.712 9.28167 176.659 9.93413 177.471 10.7776C178.298 11.6051 178.935 12.5599 179.381 13.642L176.946 14.0717C176.357 12.9896 175.593 12.0904 174.654 11.3743C173.715 10.6582 172.585 10.3001 171.265 10.3001C169.928 10.3001 168.766 10.5786 167.779 11.1356C166.809 11.6926 166.053 12.4883 165.512 13.5227C164.987 14.5412 164.724 15.7347 164.724 17.1033C164.724 18.3764 165.018 19.5062 165.607 20.4929C166.196 21.4795 166.984 22.2434 167.97 22.7845C168.973 23.3255 170.071 23.5961 171.265 23.5961C172.824 23.5961 174.065 23.23 174.988 22.498C175.911 21.7501 176.588 20.8271 177.017 19.729L179.452 20.3019C179.134 21.2886 178.553 22.2116 177.71 23.0709C176.882 23.9143 175.895 24.5907 174.75 25.0999C173.604 25.6091 172.434 25.8638 171.241 25.8638C169.665 25.8638 168.193 25.4818 166.825 24.718C165.472 23.9541 164.39 22.9038 163.578 21.5671C162.767 20.2303 162.361 18.7424 162.361 17.1033Z" fill="#FF6A3E"/>
<path d="M193.915 25.5057H184.224V8.36663H186.444V23.3574H193.915V25.5057Z" fill="#FF6A3E"/>
<path d="M206.073 26.007C204.482 26.007 203.01 25.6012 201.657 24.7896C200.304 23.978 199.23 22.8799 198.435 21.4954C197.655 20.111 197.265 18.5992 197.265 16.96C197.265 15.3209 197.655 13.8091 198.435 12.4246C199.23 11.0401 200.304 9.94209 201.657 9.13049C203.01 8.31889 204.482 7.91309 206.073 7.91309C207.665 7.91309 209.129 8.31889 210.465 9.13049C211.818 9.94209 212.884 11.0401 213.664 12.4246C214.46 13.8091 214.858 15.3209 214.858 16.96C214.858 18.5992 214.46 20.111 213.664 21.4954C212.884 22.8799 211.818 23.978 210.465 24.7896C209.129 25.6012 207.665 26.007 206.073 26.007ZM206.073 23.8109C207.251 23.8109 208.333 23.5006 209.32 22.8799C210.322 22.2593 211.118 21.4238 211.707 20.3735C212.295 19.3232 212.59 18.1933 212.59 16.9839C212.59 15.7586 212.295 14.6207 211.707 13.5704C211.134 12.5201 210.346 11.6846 209.343 11.064C208.341 10.4275 207.251 10.1092 206.073 10.1092C204.896 10.1092 203.805 10.4275 202.803 11.064C201.816 11.6846 201.029 12.5281 200.44 13.5943C199.851 14.6446 199.557 15.7745 199.557 16.9839C199.557 18.1933 199.851 19.3232 200.44 20.3735C201.029 21.4238 201.816 22.2593 202.803 22.8799C203.805 23.5006 204.896 23.8109 206.073 23.8109Z" fill="#FF6A3E"/>
<path d="M232.209 18.989C232.209 20.7714 231.756 22.3627 230.849 23.7632C229.942 25.1476 228.303 25.8399 225.931 25.8399C224.245 25.8399 222.908 25.4659 221.921 24.718C220.95 23.97 220.282 23.0948 219.916 22.0922C219.566 21.0737 219.391 20.095 219.391 19.1561V8.43824H221.659V19.4187C221.659 20.2144 221.826 20.9464 222.16 21.6148C222.494 22.2673 222.979 22.7924 223.616 23.1903C224.253 23.5881 224.993 23.787 225.836 23.787C226.663 23.787 227.388 23.5961 228.008 23.2141C228.629 22.8163 229.106 22.2911 229.44 21.6387C229.775 20.9862 229.942 20.286 229.942 19.5381V8.46211H232.209V18.989Z" fill="#FF6A3E"/>
<path d="M236.988 8.46211H243.027C244.682 8.46211 246.107 8.82017 247.3 9.53629C248.51 10.2365 249.425 11.2311 250.045 12.5201C250.682 13.7932 251 15.2732 251 16.96C251 18.7105 250.666 20.2303 249.997 21.5193C249.329 22.7924 248.366 23.7791 247.109 24.4793C245.868 25.1636 244.404 25.5057 242.717 25.5057H236.988V8.46211ZM239.208 23.4528C239.606 23.4528 239.9 23.4449 240.091 23.429L243.099 23.4051C243.942 23.4051 244.802 23.1743 245.677 22.7128C246.552 22.2354 247.284 21.5034 247.873 20.5168C248.462 19.5142 248.756 18.2729 248.756 16.7929C248.756 15.3289 248.438 14.1354 247.801 13.2124C247.181 12.2734 246.425 11.5971 245.534 11.1834C244.658 10.7696 243.831 10.5707 243.051 10.5866L239.208 10.6105V23.4528Z" fill="#FF6A3E"/>
</g>
</svg>
