<?xml version="1.0" encoding="utf-8"?>
<!-- Generated by IcoMoon.io -->
<!DOCTYPE svg PUBLIC "-//W3C//DTD SVG 1.1//EN" "http://www.w3.org/Graphics/SVG/1.1/DTD/svg11.dtd">
<svg version="1.1" xmlns="http://www.w3.org/2000/svg" xmlns:xlink="http://www.w3.org/1999/xlink" width="32" height="32" viewBox="0 0 32 32">
<path fill="#444" d="M10.001 13.001v-4.78c0-0.69 0.56-1.25 1.25-1.25s1.25 0.56 1.25 1.25v4.78c0 0.69-0.56 1.25-1.25 1.25s-1.25-0.56-1.25-1.25zM16 14.251c0.69 0 1.25-0.56 1.25-1.25v-4.78c0-0.69-0.56-1.25-1.25-1.25s-1.25 0.56-1.25 1.25v4.78c0 0.69 0.56 1.25 1.25 1.25zM20.751 14.251c0.69 0 1.25-0.56 1.25-1.25v-2.594c0-0.69-0.56-1.25-1.25-1.25s-1.25 0.56-1.25 1.25v2.594c0 0.69 0.56 1.25 1.25 1.25zM27.001 9.894v18.857c0 0 0 0 0 0 0 0.212-0.053 0.412-0.147 0.588-0.001 0.003-0.002 0.005-0.004 0.008-0.016 0.030-0.035 0.060-0.054 0.089-0.003 0.005-0.006 0.010-0.009 0.014-0.225 0.332-0.605 0.551-1.037 0.551h-19.5c-0.69 0-1.25-0.56-1.25-1.25v-10.737c-0-0.005-0.001-0.009-0.001-0.013s0.001-0.009 0.001-0.013v-14.737c0-0.636 0.475-1.159 1.089-1.238 0.053-0.007 0.106-0.012 0.161-0.012l12.852 0.002c0.331-0.009 0.665 0.112 0.918 0.365l6.615 6.631c0.247 0.247 0.369 0.572 0.366 0.896zM7.501 4.501v12.25h17v-6.352l-5.883-5.898h-11.117zM24.5 27.501v-8.25h-17v8.25h17z"></path>
</svg>
