<?xml version="1.0" encoding="utf-8"?>
<!-- Generated by IcoMoon.io -->
<!DOCTYPE svg PUBLIC "-//W3C//DTD SVG 1.1//EN" "http://www.w3.org/Graphics/SVG/1.1/DTD/svg11.dtd">
<svg version="1.1" xmlns="http://www.w3.org/2000/svg" xmlns:xlink="http://www.w3.org/1999/xlink" width="32" height="32" viewBox="0 0 32 32">
<path fill="#444" d="M30 7.25c0 0.69-0.56 1.25-1.25 1.25h-25.5c-0.69 0-1.25-0.56-1.25-1.25v0c0-0.69 0.56-1.25 1.25-1.25h25.5c0.69 0 1.25 0.56 1.25 1.25v0zM24 13c0 0.69-0.56 1.25-1.25 1.25h-19.5c-0.69 0-1.25-0.56-1.25-1.25v0c0-0.69 0.56-1.25 1.25-1.25h19.5c0.69 0 1.25 0.56 1.25 1.25v0zM26 19c0 0.69-0.56 1.25-1.25 1.25h-21.5c-0.69 0-1.25-0.56-1.25-1.25v0c0-0.69 0.56-1.25 1.25-1.25h21.5c0.69 0 1.25 0.56 1.25 1.25v0zM18 24.75c0 0.69-0.56 1.25-1.25 1.25h-13.5c-0.69 0-1.25-0.56-1.25-1.25v0c0-0.69 0.56-1.25 1.25-1.25h13.5c0.69 0 1.25 0.56 1.25 1.25v0z"></path>
</svg>
