<?xml version="1.0" encoding="utf-8"?>
<!-- Generated by IcoMoon.io -->
<!DOCTYPE svg PUBLIC "-//W3C//DTD SVG 1.1//EN" "http://www.w3.org/Graphics/SVG/1.1/DTD/svg11.dtd">
<svg version="1.1" xmlns="http://www.w3.org/2000/svg" xmlns:xlink="http://www.w3.org/1999/xlink" width="32" height="32" viewBox="0 0 32 32">
<path fill="#444" d="M23.917 25.415l-23.916-25.414 25.414 23.916c0.426 0.401 0.447 1.071 0.045 1.498s-1.071 0.447-1.498 0.046c-0.015-0.014-0.032-0.031-0.046-0.046z"></path>
<path fill="#444" d="M20.402 27.207l-18.033-19.531 19.531 18.033c0.43 0.397 0.457 1.068 0.060 1.498s-1.068 0.457-1.498 0.060c-0.020-0.019-0.041-0.040-0.060-0.060z"></path>
<path fill="#444" d="M16.748 27.26l-11.984-12.983 12.982 11.984c0.287 0.265 0.305 0.712 0.040 0.999s-0.712 0.305-0.998 0.040c-0.014-0.013-0.028-0.027-0.040-0.040z"></path>
<path fill="#444" d="M26.789 18.274l-12.512-13.51 13.51 12.512c0.287 0.265 0.304 0.712 0.039 0.998s-0.712 0.304-0.999 0.038c-0.013-0.012-0.026-0.026-0.038-0.038z"></path>
<path fill="#444" d="M25.71 22.056l-18.112-19.609 19.609 18.111c0.43 0.397 0.457 1.067 0.060 1.498s-1.068 0.457-1.497 0.059c-0.020-0.019-0.041-0.040-0.059-0.059z"></path>
<path fill="#444" d="M13.012 26.195l-5.701-6.2 6.2 5.701c0.144 0.132 0.153 0.355 0.021 0.499s-0.355 0.153-0.499 0.021c-0.007-0.007-0.014-0.014-0.021-0.021z"></path>
<path fill="#444" d="M26.342 13.785l-5.701-6.201 6.2 5.701c0.144 0.132 0.153 0.356 0.021 0.499s-0.356 0.153-0.499 0.021c-0.007-0.007-0.014-0.014-0.021-0.021z"></path>
</svg>
