<?xml version="1.0" encoding="utf-8"?>
<!-- Generated by IcoMoon.io -->
<!DOCTYPE svg PUBLIC "-//W3C//DTD SVG 1.1//EN" "http://www.w3.org/Graphics/SVG/1.1/DTD/svg11.dtd">
<svg version="1.1" xmlns="http://www.w3.org/2000/svg" xmlns:xlink="http://www.w3.org/1999/xlink" width="32" height="32" viewBox="0 0 32 32">
<path fill="#000" d="M20.25 2h-8.5c-2.071 0-3.75 1.679-3.75 3.75v20.5c0 2.071 1.679 3.75 3.75 3.75h8.5c2.071 0 3.75-1.679 3.75-3.75v-20.5c0-2.071-1.679-3.75-3.75-3.75zM11.75 4.5h8.5c0.689 0 1.25 0.561 1.25 1.25v15.499h-11v-15.499c0-0.689 0.561-1.25 1.25-1.25zM20.25 27.5h-8.5c-0.689 0-1.25-0.561-1.25-1.25v-2.501h11v2.501c0 0.689-0.561 1.25-1.25 1.25z"></path>
<path fill="#000" d="M17.001 25.624c0 0.552-0.448 1-1 1s-1-0.448-1-1c0-0.552 0.448-1 1-1s1 0.448 1 1z"></path>
</svg>
