<?xml version="1.0" encoding="utf-8"?>
<!-- Generated by IcoMoon.io -->
<!DOCTYPE svg PUBLIC "-//W3C//DTD SVG 1.1//EN" "http://www.w3.org/Graphics/SVG/1.1/DTD/svg11.dtd">
<svg version="1.1" xmlns="http://www.w3.org/2000/svg" xmlns:xlink="http://www.w3.org/1999/xlink" width="32" height="32" viewBox="0 0 32 32">
<path fill="#444" d="M16.001 4.501l9.959 5.75v11.5l-9.959 5.75-9.959-5.75v-11.5l9.959-5.75zM16.001 2.001c-0.432 0-0.863 0.112-1.25 0.335l-9.959 5.75c-0.774 0.447-1.25 1.272-1.25 2.165v11.5c0 0.893 0.476 1.718 1.25 2.165l9.959 5.75c0.387 0.223 0.818 0.335 1.25 0.335s0.863-0.112 1.25-0.335l9.959-5.75c0.773-0.447 1.25-1.272 1.25-2.165v-11.5c0-0.893-0.477-1.719-1.25-2.165l-9.959-5.75c-0.387-0.223-0.818-0.335-1.25-0.335v0zM15.988 9.82c-3.407 0-6.168 2.762-6.168 6.168s2.762 6.168 6.168 6.168v0.004c0.023 0 0.047 0 0.070 0 0.463-0.005 0.913-0.061 1.346-0.162 0.032-0.007 0.060-0.015 0.087-0.024 0.541-0.156 0.936-0.657 0.929-1.247-0.008-0.71-0.589-1.279-1.299-1.271-0.094 0.001-0.184 0.013-0.272 0.033-0.003 0-0.006 0-0.008 0.001-0.256 0.062-0.522 0.097-0.796 0.101-0.018-0.002-0.037-0.004-0.057-0.004-1.984 0-3.598-1.614-3.598-3.598s1.614-3.598 3.598-3.598c1.984 0 3.598 1.614 3.598 3.598 0 0.279-0.032 0.55-0.093 0.811-0.001 0.003-0 0.006-0.001 0.008-0.019 0.088-0.030 0.179-0.030 0.273 0 0.71 0.575 1.285 1.285 1.285 0.591 0 1.087-0.399 1.237-0.942 0.008-0.027 0.016-0.056 0.023-0.088 0.097-0.434 0.148-0.884 0.148-1.347 0-3.407-2.762-6.168-6.168-6.168z"></path>
</svg>
