<?xml version="1.0" encoding="utf-8"?>
<!-- Generated by IcoMoon.io -->
<!DOCTYPE svg PUBLIC "-//W3C//DTD SVG 1.1//EN" "http://www.w3.org/Graphics/SVG/1.1/DTD/svg11.dtd">
<svg version="1.1" xmlns="http://www.w3.org/2000/svg" xmlns:xlink="http://www.w3.org/1999/xlink" width="32" height="32" viewBox="0 0 32 32">
<path fill="#444" d="M30.002 19.25v9.5c0 0.043-0.002 0.086-0.006 0.128-0.064 0.63-0.596 1.122-1.244 1.122h-25.5c-0.69 0-1.25-0.56-1.25-1.25v-9.5c0-0.69 0.56-1.25 1.25-1.25s1.25 0.56 1.25 1.25v8.25h23v-8.25c0-0.69 0.56-1.25 1.25-1.25s1.25 0.56 1.25 1.25zM20.773 6.255l-3.888-3.888c-0-0-0.001-0.001-0.001-0.001-0.112-0.112-0.239-0.196-0.376-0.257-0.166-0.074-0.345-0.111-0.523-0.108-0.004-0-0.009-0.001-0.013-0.001-0.424 0-0.797 0.211-1.023 0.534l-3.722 3.722c-0.488 0.488-0.488 1.28 0 1.768s1.28 0.488 1.768 0l1.727-1.727v14.454c0 0.69 0.56 1.25 1.25 1.25s1.25-0.56 1.25-1.25v-14.51l1.783 1.783c0.488 0.488 1.28 0.488 1.768 0s0.488-1.28 0-1.768z"></path>
</svg>
