<?xml version="1.0" encoding="utf-8"?>
<!-- Generated by IcoMoon.io -->
<!DOCTYPE svg PUBLIC "-//W3C//DTD SVG 1.1//EN" "http://www.w3.org/Graphics/SVG/1.1/DTD/svg11.dtd">
<svg version="1.1" xmlns="http://www.w3.org/2000/svg" xmlns:xlink="http://www.w3.org/1999/xlink" width="32" height="32" viewBox="0 0 32 32">
<path fill="#444" d="M29.581 9.177c0.397-0.397 0.471-0.995 0.222-1.467-0.057-0.11-0.132-0.213-0.225-0.306-0.009-0.009-0.018-0.016-0.027-0.025l-4.042-4.020c-0.001-0.001-0.003-0.003-0.004-0.005-0.244-0.244-0.564-0.366-0.884-0.366s-0.64 0.122-0.884 0.366c-0.002 0.002-0.004 0.004-0.006 0.006l-17.408 17.408c-0.069 0.069-0.126 0.143-0.176 0.222-2.207 2.734-0.56 6.107-5.461 7.486 0 0 2.024 0.566 4.51 0.566 2.324 0 5.052-0.494 6.913-2.407 0.012-0.011 0.025-0.022 0.037-0.034l0.054-0.054c0.027-0.025 0.052-0.049 0.078-0.076 0.011-0.011 0.021-0.023 0.032-0.034l5.274-5.274c0.035-0.028 0.070-0.058 0.102-0.091s0.063-0.067 0.091-0.102l11.725-11.725c0.026-0.022 0.052-0.044 0.077-0.069zM16.796 18.419l-2.3-2.288 10.127-10.127 2.3 2.287-10.127 10.127zM12.131 20.865c-0.415-0.426-0.893-0.749-1.399-0.969l1.997-1.997 2.3 2.288-2.008 2.008c-0.203-0.476-0.499-0.928-0.89-1.329zM7.183 24.748c0.259-0.948 0.464-1.698 1.013-2.308 0.026-0.027 0.083-0.084 0.133-0.134 0.251-0.212 0.548-0.258 0.756-0.258 0.45 0 0.907 0.205 1.255 0.562 0.612 0.628 0.685 1.539 0.175 2.090l-0.053 0.053c-0.025 0.023-0.050 0.048-0.077 0.074l-0.027 0.026-0.026 0.027c-0.958 0.993-2.372 1.419-3.691 1.579 0.235-0.59 0.394-1.17 0.542-1.712z"></path>
</svg>
