<?xml version="1.0" encoding="utf-8"?>
<!-- Generated by IcoMoon.io -->
<!DOCTYPE svg PUBLIC "-//W3C//DTD SVG 1.1//EN" "http://www.w3.org/Graphics/SVG/1.1/DTD/svg11.dtd">
<svg version="1.1" xmlns="http://www.w3.org/2000/svg" xmlns:xlink="http://www.w3.org/1999/xlink" width="32" height="32" viewBox="0 0 32 32">
<path fill="#444" d="M25.758 11.542c2.13-2.202 2.109-5.712-0.065-7.886-2.197-2.197-5.758-2.197-7.955 0-0 0-0.001 0.001-0.001 0.001s-0 0-0 0l-13.536 13.536c-0.001 0.001-0.002 0.002-0.003 0.003s-0.003 0.003-0.005 0.005l-0.083 0.083c-0.009 0.009-0.016 0.019-0.025 0.028-1.345 1.402-2.083 3.238-2.083 5.187 0 2.003 0.78 3.887 2.197 5.303s3.3 2.197 5.303 2.197c1.582 0 3.088-0.487 4.35-1.388 0.154-0.061 0.299-0.153 0.423-0.278l0.525-0.525c0.002-0.002 0.004-0.003 0.005-0.005s0.002-0.002 0.004-0.004l9.032-9.032c0.488-0.488 0.488-1.279 0-1.768s-1.28-0.488-1.768 0l-9.035 9.035c-1.953 1.953-5.119 1.953-7.071 0s-1.953-5.118 0-7.071h-0l13.535-13.535c0.002-0.002 0.003-0.004 0.005-0.006 1.218-1.218 3.201-1.218 4.419 0s1.218 3.201 0 4.419c-0.002 0.002-0.004 0.004-0.006 0.005l0 0-8.767 8.767c-0-0-0-0-0-0l-2.499 2.499c-0 0-0.001 0.001-0.001 0.001s-0.001 0.001-0.001 0.001l-0.002 0.002c-0.488 0.488-1.28 0.488-1.768 0s-0.488-1.279-0-1.768l0.002-0.002c0-0 0.001-0.001 0.001-0.001s0.001-0.001 0.001-0.001l2.499-2.499c-0-0-0-0-0-0l4.266-4.266c0.488-0.488 0.488-1.28-0-1.768s-1.28-0.488-1.768 0l-6.854 6.854c-0.040 0.040-0.076 0.083-0.109 0.127-1.263 1.473-1.197 3.693 0.198 5.088s3.615 1.46 5.088 0.198c0.044-0.034 0.087-0.069 0.127-0.109l0.088-0.088c0 0 0 0 0 0s0 0 0 0l11.267-11.267c0.002-0.002 0.004-0.004 0.006-0.005s0.003-0.003 0.005-0.005l0.031-0.031c0.011-0.011 0.020-0.022 0.030-0.033z"></path>
</svg>
