<?xml version="1.0" encoding="utf-8"?>
<!-- Generated by IcoMoon.io -->
<!DOCTYPE svg PUBLIC "-//W3C//DTD SVG 1.1//EN" "http://www.w3.org/Graphics/SVG/1.1/DTD/svg11.dtd">
<svg version="1.1" xmlns="http://www.w3.org/2000/svg" xmlns:xlink="http://www.w3.org/1999/xlink" width="32" height="32" viewBox="0 0 32 32">
<path fill="#444" d="M22.751 3.001h-3.656c-0.001 0-0.002-0-0.002-0s-0.002 0-0.002 0h-6.245c-0.001 0-0.002-0-0.002-0s-0.002 0-0.002 0h-0.998c-3.866 0-7 3.134-7 7 0 3.782 3 6.863 6.75 6.995v10.755c0 0.69 0.56 1.25 1.25 1.25s1.25-0.56 1.25-1.25v-22.25h3.75v22.25c0 0.69 0.56 1.25 1.25 1.25s1.25-0.56 1.25-1.25v-22.25h2.408c0.69 0 1.25-0.56 1.25-1.25s-0.56-1.25-1.25-1.25z"></path>
</svg>
