<?xml version="1.0" encoding="utf-8"?>
<!-- Generated by IcoMoon.io -->
<!DOCTYPE svg PUBLIC "-//W3C//DTD SVG 1.1//EN" "http://www.w3.org/Graphics/SVG/1.1/DTD/svg11.dtd">
<svg version="1.1" xmlns="http://www.w3.org/2000/svg" xmlns:xlink="http://www.w3.org/1999/xlink" width="32" height="32" viewBox="0 0 32 32">
<path fill="#444" d="M23.204 30c-2.383 0-5.099-1.011-8.073-3.006-2.306-1.547-4.263-3.341-5.498-4.573-1.353-1.351-3.3-3.48-4.901-5.959-2.080-3.221-2.98-6.126-2.672-8.636 0.28-2.291 1.584-4.197 3.771-5.51 0.342-0.207 0.742-0.317 1.158-0.317 1.023 0 2.223 0.73 3.774 2.297 1.139 1.15 2.191 2.476 2.796 3.333 1.459 2.068 1.896 3.355 1.509 4.442-0.395 1.111-1.11 1.741-1.633 2.201-0.177 0.156-0.311 0.277-0.408 0.383 0.126 0.236 0.367 0.621 0.814 1.171 1.325 1.627 2.83 2.782 3.499 3.152 0.103-0.093 0.222-0.224 0.386-0.411 0.465-0.525 1.096-1.239 2.203-1.634 0.249-0.089 0.516-0.134 0.792-0.134 1.38 0 3.4 1.377 4.851 2.533 1.432 1.14 3.228 2.828 3.972 4.144 0.706 1.237 0.468 2.145 0.144 2.688-1.504 2.509-3.746 3.835-6.482 3.835zM7.024 4.517c-1.486 0.92-2.299 2.103-2.483 3.613-0.234 1.913 0.537 4.26 2.291 6.976 1.559 2.414 3.531 4.511 4.568 5.546 0.947 0.944 2.872 2.755 5.125 4.266 2.554 1.713 4.802 2.582 6.68 2.582 1.832 0 3.235-0.829 4.286-2.534-0.015-0.048-0.048-0.127-0.12-0.254-0.456-0.806-1.781-2.163-3.301-3.38-1.837-1.471-3.022-1.997-3.336-2.031-0.48 0.182-0.782 0.524-1.131 0.918-0.392 0.447-0.885 1.010-1.734 1.298l-0.195 0.066h-0.206c-0.272 0-0.995 0-2.71-1.356-1.006-0.795-2.020-1.798-2.856-2.824-1.116-1.373-1.607-2.43-1.459-3.142l0.017-0.083 0.028-0.080c0.287-0.813 0.821-1.285 1.293-1.702 0.398-0.35 0.741-0.652 0.922-1.137-0.019-0.137-0.159-0.734-1.186-2.19-0.496-0.703-1.43-1.887-2.425-2.909-1.248-1.281-1.878-1.58-2.066-1.646z"></path>
</svg>
