<?xml version="1.0" encoding="utf-8"?>
<!-- Generated by IcoMoon.io -->
<!DOCTYPE svg PUBLIC "-//W3C//DTD SVG 1.1//EN" "http://www.w3.org/Graphics/SVG/1.1/DTD/svg11.dtd">
<svg version="1.1" xmlns="http://www.w3.org/2000/svg" xmlns:xlink="http://www.w3.org/1999/xlink" width="32" height="32" viewBox="0 0 32 32">
<path fill="#444" d="M28.75 2h-25.5c-0.69 0-1.25 0.56-1.25 1.25v25.5c0 0.69 0.56 1.25 1.25 1.25h25.5c0.69 0 1.25-0.56 1.25-1.25v-25.5c0-0.69-0.56-1.25-1.25-1.25zM27.5 4.5v14.056l-7.356-7.356c-0.234-0.234-0.552-0.366-0.884-0.366s-0.649 0.132-0.884 0.366l-5.306 5.306-1.28-1.28c-0.488-0.488-1.28-0.488-1.768 0l-5.522 5.522v-16.248h23zM4.5 27.5v-3.216l6.406-6.406 6.749 6.749c0.244 0.244 0.564 0.366 0.884 0.366s0.64-0.122 0.884-0.366c0.488-0.488 0.488-1.28 0-1.768l-4.585-4.585 4.423-4.423 8.24 8.24v5.409h-23zM11.13 12.517c1.64 0 2.969-1.329 2.969-2.969s-1.329-2.969-2.969-2.969-2.969 1.329-2.969 2.969 1.329 2.969 2.969 2.969zM11.13 7.829c0.948 0 1.719 0.771 1.719 1.719s-0.771 1.719-1.719 1.719-1.719-0.771-1.719-1.719 0.771-1.719 1.719-1.719z"></path>
</svg>
