<?xml version="1.0" encoding="utf-8"?>
<!-- Generated by IcoMoon.io -->
<!DOCTYPE svg PUBLIC "-//W3C//DTD SVG 1.1//EN" "http://www.w3.org/Graphics/SVG/1.1/DTD/svg11.dtd">
<svg version="1.1" xmlns="http://www.w3.org/2000/svg" xmlns:xlink="http://www.w3.org/1999/xlink" width="32" height="32" viewBox="0 0 32 32">
<path fill="#444" d="M16 29.997c-0.418 0-0.807-0.209-1.039-0.556l-7.565-11.323c-0.004-0.006-0.007-0.011-0.011-0.017-1.137-1.703-1.738-3.689-1.738-5.744 0-5.709 4.645-10.354 10.354-10.354s10.354 4.645 10.354 10.354c0 1.897-0.517 3.749-1.497 5.364-0.024 0.048-0.051 0.094-0.081 0.139l-0.181 0.271c-0.002 0.003-0.003 0.005-0.005 0.008s-0.003 0.005-0.005 0.007l-7.546 11.295c-0.232 0.347-0.622 0.556-1.039 0.556zM9.483 16.743l0.001 0.001c0.001 0.002 0.005 0.007 0.006 0.009l6.51 9.744 6.637-9.933c0.012-0.022 0.024-0.043 0.037-0.064 0.772-1.241 1.18-2.673 1.18-4.141 0-4.331-3.523-7.854-7.854-7.854s-7.854 3.523-7.854 7.854c0 1.564 0.459 3.075 1.326 4.368 0.004 0.006 0.007 0.011 0.011 0.017z"></path>
<path fill="#444" d="M16 9.512c1.562 0 2.832 1.271 2.832 2.832s-1.271 2.832-2.832 2.832-2.832-1.271-2.832-2.832c0-1.562 1.271-2.832 2.832-2.832zM16 7.013c-2.945 0-5.332 2.387-5.332 5.332s2.387 5.332 5.332 5.332 5.332-2.387 5.332-5.332-2.387-5.332-5.332-5.332v0z"></path>
</svg>
