<?xml version="1.0" encoding="utf-8"?>
<!-- Generated by IcoMoon.io -->
<!DOCTYPE svg PUBLIC "-//W3C//DTD SVG 1.1//EN" "http://www.w3.org/Graphics/SVG/1.1/DTD/svg11.dtd">
<svg version="1.1" xmlns="http://www.w3.org/2000/svg" xmlns:xlink="http://www.w3.org/1999/xlink" width="32" height="32" viewBox="0 0 32 32">
<path fill="#444" d="M16 16.037c0.69-0 1.25-0.56 1.25-1.25l0-11.5c0-0.69-0.56-1.25-1.25-1.25s-1.25 0.56-1.25 1.25v11.5c-0 0.69 0.56 1.25 1.25 1.25z"></path>
<path fill="#444" d="M23.338 6.304v0.006c-0.411-0.281-0.838-0.54-1.281-0.774-0.062-0.033-0.109-0.058-0.146-0.077-0.055-0.028-0.11-0.055-0.165-0.082-0-0-0-0-0-0-0.003-0.001-0.005-0.002-0.007-0.003-0.001-0-0.002-0.001-0.003-0.001l-0 0c-0.148-0.063-0.31-0.099-0.481-0.1-0.69-0.006-1.254 0.55-1.26 1.24-0.004 0.472 0.255 0.884 0.64 1.1 0.997 0.491 1.919 1.144 2.734 1.947 0.087 0.086 0.172 0.174 0.256 0.262v-0.005c1.857 1.958 2.877 4.511 2.877 7.221 0 2.805-1.092 5.441-3.075 7.425s-4.62 3.075-7.425 3.075-5.441-1.092-7.425-3.075-3.075-4.62-3.075-7.425c0-2.552 0.905-4.964 2.562-6.871 0.182-0.209 0.372-0.412 0.572-0.609 0.815-0.802 1.736-1.454 2.733-1.945 0.386-0.215 0.646-0.628 0.642-1.101-0.005-0.69-0.569-1.246-1.26-1.24-0.171 0.001-0.333 0.037-0.481 0.1l-0-0c-0.001 0-0.002 0.001-0.003 0.001s-0.003 0.001-0.004 0.002c-0.058 0.029-0.117 0.057-0.174 0.087-0.014 0.007-0.030 0.016-0.047 0.025-0.034 0.018-0.068 0.036-0.102 0.054-0.491 0.259-0.963 0.549-1.414 0.867v-0.004c-3.341 2.353-5.523 6.239-5.523 10.635 0 7.18 5.82 13 13 13s13-5.82 13-13c-0-4.458-2.244-8.391-5.664-10.733z"></path>
</svg>
