<?xml version="1.0" encoding="utf-8"?>
<!-- Generated by IcoMoon.io -->
<!DOCTYPE svg PUBLIC "-//W3C//DTD SVG 1.1//EN" "http://www.w3.org/Graphics/SVG/1.1/DTD/svg11.dtd">
<svg version="1.1" xmlns="http://www.w3.org/2000/svg" xmlns:xlink="http://www.w3.org/1999/xlink" width="32" height="32" viewBox="0 0 32 32">
<path fill="#444" d="M28.935 9.515c-0.053-0.007-0.107-0.012-0.161-0.012h-2.77v-2.923c0-0.007-0-0.013-0-0.020s0.001-0.013 0.001-0.020c0-0.015-0.002-0.029-0.002-0.044-0.001-0.020-0.001-0.040-0.003-0.060-0.002-0.024-0.005-0.048-0.009-0.072-0.002-0.017-0.005-0.033-0.008-0.050-0.005-0.026-0.011-0.051-0.017-0.076-0.004-0.015-0.007-0.030-0.012-0.045-0.007-0.025-0.016-0.050-0.025-0.075-0.005-0.014-0.010-0.029-0.016-0.043-0.010-0.025-0.021-0.048-0.032-0.072-0.006-0.014-0.013-0.027-0.020-0.041-0.013-0.025-0.027-0.049-0.042-0.073-0.007-0.011-0.013-0.023-0.020-0.034-0.020-0.030-0.041-0.060-0.064-0.088-0.003-0.004-0.006-0.008-0.009-0.012-0.031-0.038-0.064-0.075-0.099-0.109l-3.25-3.278c-0.116-0.115-0.248-0.203-0.39-0.264-0.004-0.002-0.007-0.003-0.011-0.005-0.030-0.013-0.061-0.024-0.093-0.034-0.008-0.003-0.016-0.006-0.024-0.009-0.029-0.009-0.058-0.016-0.088-0.023-0.011-0.002-0.021-0.006-0.032-0.008-0.031-0.006-0.062-0.010-0.093-0.014-0.010-0.001-0.019-0.003-0.029-0.004-0.041-0.004-0.083-0.006-0.124-0.006h-14.24c-0.055 0-0.108 0.005-0.161 0.012-0.614 0.079-1.089 0.603-1.089 1.238v6.25h-2.73c-0.055 0-0.108 0.005-0.161 0.012-0.614 0.079-1.089 0.603-1.089 1.238v10c0 0.69 0.56 1.25 1.25 1.25h2.73v6.75c0 0.69 0.56 1.25 1.25 1.25h17.5c0.432 0 0.812-0.219 1.037-0.551 0.003-0.005 0.006-0.010 0.009-0.014 0.019-0.029 0.038-0.058 0.054-0.089 0.001-0.003 0.003-0.005 0.004-0.008 0.094-0.175 0.147-0.375 0.147-0.588 0 0 0 0 0-0v-6.75h2.77c0.431 0 0.812-0.219 1.037-0.551 0.003-0.005 0.006-0.010 0.009-0.014 0.019-0.029 0.037-0.058 0.054-0.089 0.001-0.003 0.003-0.005 0.004-0.008 0.094-0.175 0.147-0.375 0.147-0.588 0 0 0 0 0-0v-10c0-0.636-0.475-1.159-1.089-1.239zM8.504 4.504h11.739v2.037c0 0.043 0.002 0.086 0.006 0.128 0.064 0.63 0.596 1.122 1.244 1.122h2.011v1.713h-15v-5zM23.504 27.504h-15v-10.25h15v10.25zM27.524 19.504h-1.52v-3.5c0-0.636-0.475-1.159-1.089-1.238-0.053-0.007-0.107-0.012-0.161-0.012h-17.5c-0.055 0-0.108 0.005-0.161 0.012-0.614 0.079-1.089 0.603-1.089 1.238v3.5h-1.48v-7.5h23v7.5z"></path>
<path fill="#444" d="M11.254 19.004c-0.69 0-1.25 0.56-1.25 1.25s0.56 1.25 1.25 1.25h9.5c0.69 0 1.25-0.56 1.25-1.25s-0.56-1.25-1.25-1.25h-9.5z"></path>
<path fill="#444" d="M20.754 23.254h-9.5c-0.69 0-1.25 0.56-1.25 1.25s0.56 1.25 1.25 1.25h9.5c0.69 0 1.25-0.56 1.25-1.25s-0.56-1.25-1.25-1.25z"></path>
</svg>
