<?xml version="1.0" encoding="utf-8"?>
<!-- Generated by IcoMoon.io -->
<!DOCTYPE svg PUBLIC "-//W3C//DTD SVG 1.1//EN" "http://www.w3.org/Graphics/SVG/1.1/DTD/svg11.dtd">
<svg version="1.1" xmlns="http://www.w3.org/2000/svg" xmlns:xlink="http://www.w3.org/1999/xlink" width="32" height="32" viewBox="0 0 32 32">
<path fill="#444" d="M12.406 16.57c-0.376-0.159-0.74-0.34-1.091-0.543 0.058-1.329 2.788-2.531 3.525-2.648 0.231-0.037 0.236-0.673 0.236-0.673s-0.679-0.673-0.828-1.577c-0.398 0-0.644-0.962-0.246-1.3-0.017-0.356-0.512-2.796 1.996-2.796s2.013 2.44 1.996 2.796c0.398 0.338 0.152 1.3-0.246 1.3-0.148 0.905-0.828 1.577-0.828 1.577s0.005 0.636 0.236 0.673c0.745 0.118 3.526 1.345 3.526 2.691v0.215c-0.201 0.102-0.405 0.197-0.614 0.285-1.213 0.513-2.503 0.773-3.833 0.773s-2.619-0.26-3.833-0.773zM25 4.531h-18.5v23h18.5c0.272 0 0.496-0.221 0.499-0.494v-22.008c-0.001-0.275-0.224-0.499-0.499-0.499zM25 2.031c1.654 0 2.996 1.339 3 2.993l0 0v22.042h-0.001c-0.019 1.641-1.354 2.965-2.999 2.965h-19.75c-0.69 0-1.25-0.56-1.25-1.25v-25.5c0-0.636 0.475-1.159 1.089-1.238 0.053-0.007 0.107-0.012 0.161-0.012h19.75zM23.009 24.781c0-0.345-0.28-0.625-0.625-0.625h-12.759c-0.345 0-0.625 0.28-0.625 0.625s0.28 0.625 0.625 0.625h12.759c0.345 0 0.625-0.28 0.625-0.625zM23.009 22.031c0-0.345-0.28-0.625-0.625-0.625h-12.759c-0.345 0-0.625 0.28-0.625 0.625s0.28 0.625 0.625 0.625h12.759c0.345 0 0.625-0.28 0.625-0.625zM23.009 19.281c0-0.345-0.28-0.625-0.625-0.625h-12.759c-0.345 0-0.625 0.28-0.625 0.625s0.28 0.625 0.625 0.625h12.759c0.345 0 0.625-0.28 0.625-0.625z"></path>
</svg>
