<?xml version="1.0" encoding="utf-8"?>
<!-- Generated by IcoMoon.io -->
<!DOCTYPE svg PUBLIC "-//W3C//DTD SVG 1.1//EN" "http://www.w3.org/Graphics/SVG/1.1/DTD/svg11.dtd">
<svg version="1.1" xmlns="http://www.w3.org/2000/svg" xmlns:xlink="http://www.w3.org/1999/xlink" width="32" height="32" viewBox="0 0 32 32">
<path fill="#444" d="M25.899 6.101c-5.467-5.467-14.332-5.467-19.799 0s-5.467 14.332 0 19.799c5.467 5.467 14.332 5.467 19.799 0s5.467-14.332 0-19.799zM24.132 24.132c-2.172 2.172-5.060 3.368-8.132 3.368s-5.96-1.196-8.132-3.368c-2.172-2.172-3.368-5.060-3.368-8.132s1.196-5.96 3.368-8.132c2.172-2.172 5.060-3.368 8.132-3.368s5.96 1.196 8.132 3.368c2.172 2.172 3.368 5.060 3.368 8.132s-1.196 5.96-3.368 8.132z"></path>
<path fill="#444" d="M16.031 24.524c-0.69 0-1.25-0.56-1.25-1.25v0c0-0.69 0.56-1.25 1.25-1.25v0c0.69 0 1.25 0.56 1.25 1.25v0c0 0.69-0.56 1.25-1.25 1.25v0z"></path>
<path fill="#444" d="M21.51 12.523c0-3.043-2.467-5.51-5.51-5.51s-5.51 2.467-5.51 5.51c0 0.69 0.56 1.25 1.25 1.25s1.25-0.56 1.25-1.25c0-0.001 0-0.001 0-0.002 0.001-1.659 1.351-3.009 3.010-3.009s3.010 1.35 3.010 3.010c0 1.66-1.35 3.010-3.010 3.010v0.005c-0.676 0.017-1.219 0.569-1.219 1.248v2.75c-0 0.69 0.56 1.25 1.25 1.25s1.25-0.56 1.25-1.25v-1.653c2.425-0.578 4.229-2.758 4.229-5.36z"></path>
</svg>
