<?xml version="1.0" encoding="utf-8"?>
<!-- Generated by IcoMoon.io -->
<!DOCTYPE svg PUBLIC "-//W3C//DTD SVG 1.1//EN" "http://www.w3.org/Graphics/SVG/1.1/DTD/svg11.dtd">
<svg version="1.1" xmlns="http://www.w3.org/2000/svg" xmlns:xlink="http://www.w3.org/1999/xlink" width="32" height="32" viewBox="0 0 32 32">
<path fill="#444" d="M28.558 21.962c-0.487-0.489-1.279-0.49-1.768-0.003l-1.788 1.781v-14.107c0-0.012-0.001-0.023-0.002-0.034-0.014-3.094-2.527-5.598-5.625-5.598-3.107 0-5.625 2.518-5.625 5.625 0 0.003 0 0.005 0 0.008h-0v10.735h-0c0 0.003 0 0.005 0 0.008 0 1.723-1.402 3.125-3.125 3.125s-3.125-1.402-3.125-3.125c0-0.003 0-0.005 0-0.008h-0v-15.117c0-0.69-0.56-1.25-1.25-1.25s-1.25 0.56-1.25 1.25v15.117c0 0.001 0 0.001 0 0.002 0 0.002-0 0.004-0 0.006 0 3.107 2.518 5.625 5.625 5.625s5.625-2.518 5.625-5.625c0-0.003-0-0.005-0-0.008h0v-10.735h0c0-0.003-0-0.005-0-0.008 0-1.723 1.402-3.125 3.125-3.125s3.125 1.402 3.125 3.125c0 0.003-0 0.005-0 0.008h0.002v14.094l-1.762-1.766c-0.488-0.489-1.279-0.49-1.768-0.002-0.245 0.244-0.367 0.565-0.367 0.885 0 0.319 0.122 0.639 0.365 0.883l3.897 3.906c0.487 0.488 1.278 0.49 1.767 0.003l3.92-3.906c0.489-0.487 0.49-1.279 0.003-1.768z"></path>
</svg>
