<?xml version="1.0" encoding="utf-8"?>
<!-- Generated by IcoMoon.io -->
<!DOCTYPE svg PUBLIC "-//W3C//DTD SVG 1.1//EN" "http://www.w3.org/Graphics/SVG/1.1/DTD/svg11.dtd">
<svg version="1.1" xmlns="http://www.w3.org/2000/svg" xmlns:xlink="http://www.w3.org/1999/xlink" width="32" height="32" viewBox="0 0 32 32">
<path fill="#444" d="M21.652 21.515c1.080-0.112 1.899-1.044 1.861-2.16-0.036-1.118-0.968-2.012-2.085-2.012h-0.076c-1.154 0.038-2.049 1.006-2.012 2.16 0.039 0.559 0.262 1.044 0.596 1.38-1.265 2.496-3.203 4.321-6.109 5.849-1.974 1.042-4.023 1.415-6.073 1.154-1.676-0.224-2.98-0.97-3.799-2.198-1.192-1.825-1.304-3.8-0.298-5.775 0.708-1.414 1.825-2.459 2.533-2.979-0.148-0.486-0.372-1.305-0.484-1.901-5.401 3.912-4.843 9.202-3.204 11.699 1.23 1.861 3.726 3.017 6.483 3.017 0.746 0 1.49-0.074 2.235-0.26 4.769-0.932 8.383-3.764 10.433-7.973z"></path>
<path fill="#444" d="M28.208 16.894c-2.831-3.315-7.003-5.14-11.772-5.14h-0.596c-0.336-0.67-1.044-1.117-1.825-1.117h-0.076c-1.155 0.037-2.048 1.006-2.012 2.16 0.038 1.118 0.968 2.012 2.088 2.012h0.073c0.82-0.038 1.528-0.559 1.826-1.267h0.67c2.832 0 5.514 0.82 7.936 2.421 1.861 1.23 3.203 2.831 3.949 4.769 0.633 1.564 0.596 3.092-0.076 4.395-1.042 1.976-2.793 3.056-5.103 3.056-1.49 0-2.906-0.448-3.651-0.784-0.41 0.374-1.156 0.97-1.676 1.342 1.601 0.746 3.241 1.154 4.805 1.154 3.576 0 6.221-1.973 7.227-3.949 1.080-2.16 1.006-5.885-1.788-9.053z"></path>
<path fill="#444" d="M9.283 22.147c0.038 1.12 0.968 2.012 2.086 2.012h0.074c1.156-0.037 2.049-1.005 2.012-2.16-0.036-1.117-0.968-2.012-2.086-2.012h-0.074c-0.076 0-0.186 0-0.26 0.038-1.528-2.534-2.16-5.29-1.938-8.27 0.15-2.235 0.894-4.172 2.198-5.774 1.080-1.378 3.166-2.049 4.581-2.086 3.95-0.075 5.626 4.843 5.737 6.817 0.486 0.112 1.304 0.373 1.864 0.559-0.448-6.035-4.173-9.165-7.749-9.165-3.352 0-6.445 2.421-7.674 5.998-1.714 4.769-0.596 9.35 1.489 12.963-0.185 0.262-0.297 0.672-0.26 1.080z"></path>
</svg>
