<?xml version="1.0" encoding="utf-8"?>
<!-- Generated by IcoMoon.io -->
<!DOCTYPE svg PUBLIC "-//W3C//DTD SVG 1.1//EN" "http://www.w3.org/Graphics/SVG/1.1/DTD/svg11.dtd">
<svg version="1.1" xmlns="http://www.w3.org/2000/svg" xmlns:xlink="http://www.w3.org/1999/xlink" width="32" height="32" viewBox="0 0 32 32">
<path fill="#444" d="M21.234 13.492c-0.013-0.002-0.026-0.003-0.040-0.003h-14.921l5.36-5.359c0.488-0.488 0.488-1.28-0-1.768s-1.28-0.488-1.768 0l-7.492 7.492c-0.030 0.030-0.058 0.061-0.085 0.094-0.010 0.013-0.059 0.078-0.073 0.098-0.011 0.017-0.053 0.087-0.063 0.105s-0.045 0.092-0.052 0.111c-0.001 0.003-0.015 0.040-0.020 0.055-0.007 0.020-0.015 0.040-0.021 0.060-0.006 0.019-0.026 0.098-0.030 0.118-0.005 0.023-0.016 0.104-0.018 0.121-0.008 0.083-0.008 0.166 0 0.248 0.001 0.014 0.013 0.095 0.018 0.121 0.003 0.017 0.023 0.097 0.030 0.119 0.005 0.016 0.032 0.094 0.042 0.116 0.006 0.014 0.041 0.088 0.053 0.111 0.006 0.012 0.014 0.023 0.021 0.035 0.014 0.024 0.058 0.090 0.065 0.101 0.016 0.023 0.133 0.159 0.134 0.159l7.491 7.491c0.488 0.488 1.28 0.488 1.768 0s0.488-1.28 0-1.768l-5.36-5.36h14.728c3.579 0.003 6.49 2.91 6.5 6.487 0 0.003-0 0.005-0 0.008v2.996c-0 0.69 0.56 1.25 1.25 1.25s1.25-0.56 1.25-1.25l0-2.987h0.001c0-4.894-3.904-8.875-8.767-9.002z"></path>
</svg>
