<?xml version="1.0" encoding="utf-8"?>
<!-- Generated by IcoMoon.io -->
<!DOCTYPE svg PUBLIC "-//W3C//DTD SVG 1.1//EN" "http://www.w3.org/Graphics/SVG/1.1/DTD/svg11.dtd">
<svg version="1.1" xmlns="http://www.w3.org/2000/svg" xmlns:xlink="http://www.w3.org/1999/xlink" width="32" height="32" viewBox="0 0 32 32">
<path fill="#444" d="M9.184 25.404c0 1.412-1.145 2.557-2.557 2.557s-2.557-1.145-2.557-2.557c0-1.412 1.145-2.557 2.557-2.557s2.557 1.145 2.557 2.557zM15.947 26.823c-0-0.005-0.001-0.009-0.001-0.014-0.001-0.018-0.003-0.036-0.006-0.053-0.282-2.814-1.541-5.339-3.433-7.232v0c-1.893-1.893-4.419-3.152-7.233-3.434-0.018-0.002-0.035-0.004-0.053-0.006-0.005-0-0.009-0.001-0.014-0.001-0.007-0.001-0.013-0.001-0.020-0-0.017-0.001-0.034-0.003-0.051-0.003-0.589 0-1.065 0.477-1.065 1.065 0 0.548 0.414 0.999 0.947 1.058 0.001 0 0.002 0.001 0.003 0.001 2.259 0.216 4.355 1.199 5.981 2.824v0c1.626 1.626 2.609 3.722 2.825 5.982 0 0.001 0.001 0.002 0.001 0.003 0.059 0.532 0.51 0.947 1.058 0.947 0.588 0 1.065-0.477 1.065-1.065 0-0.017-0.002-0.034-0.003-0.051 0-0.007 0-0.013-0.001-0.020zM21.931 26.826c-0-0.002-0-0.005-0.001-0.007-0.001-0.015-0.002-0.029-0.003-0.044-0.292-4.47-2.226-8.491-5.203-11.47h0c-2.978-2.978-7-4.911-11.47-5.203-0.014-0.002-0.029-0.002-0.044-0.003-0.002-0-0.005-0-0.007-0.001-0-0-0.001 0-0.001 0-0.022-0.001-0.044-0.003-0.067-0.003-0.588 0-1.065 0.477-1.065 1.065 0 0.56 0.433 1.019 0.982 1.061 0.001 0 0.002 0.001 0.003 0.001 1.781 0.109 3.51 0.514 5.151 1.208 1.877 0.794 3.563 1.931 5.012 3.379v0c1.449 1.449 2.586 3.135 3.38 5.013 0.694 1.641 1.099 3.37 1.208 5.151 0 0.001 0.001 0.002 0.001 0.003 0.043 0.549 0.501 0.982 1.061 0.982 0.588 0 1.065-0.477 1.065-1.065 0-0.023-0.002-0.045-0.003-0.067-0-0.001 0-0.001 0-0.002zM27.909 26.882c-0-0.003 0-0.004 0-0.007-0.275-6.158-2.885-11.709-6.965-15.789v-0c-4.081-4.080-9.632-6.69-15.79-6.966-0.003-0-0.004 0-0.007 0-0.005-0-0.009-0.001-0.014-0.001-0.589 0-1.065 0.477-1.065 1.065 0 0.559 0.431 1.016 0.978 1.061 0.005 0.001 0.010 0.002 0.015 0.003 2.585 0.115 5.092 0.68 7.468 1.685 2.587 1.094 4.912 2.662 6.908 4.658v0c1.997 1.997 3.564 4.321 4.659 6.909 1.005 2.376 1.57 4.883 1.685 7.468 0 0.006 0.001 0.010 0.003 0.015 0.044 0.547 0.502 0.978 1.061 0.978 0.588 0 1.065-0.477 1.065-1.065 0-0.005-0.001-0.009-0.001-0.014z"></path>
</svg>
