<?xml version="1.0" encoding="utf-8"?>
<!-- Generated by IcoMoon.io -->
<!DOCTYPE svg PUBLIC "-//W3C//DTD SVG 1.1//EN" "http://www.w3.org/Graphics/SVG/1.1/DTD/svg11.dtd">
<svg version="1.1" xmlns="http://www.w3.org/2000/svg" xmlns:xlink="http://www.w3.org/1999/xlink" width="32" height="32" viewBox="0 0 32 32">
<path fill="#444" d="M29.665 27.897l-6.311-6.311c1.674-2.063 2.677-4.692 2.677-7.555 0-6.628-5.373-12-12-12s-12 5.373-12 12c0 6.628 5.373 12 12 12 2.863 0 5.492-1.004 7.555-2.677l6.311 6.311c0.488 0.488 1.28 0.488 1.768 0s0.488-1.28 0-1.768zM7.314 20.749c-1.794-1.794-2.783-4.18-2.783-6.718s0.988-4.923 2.783-6.718 4.18-2.783 6.718-2.783 4.923 0.988 6.718 2.783c1.794 1.794 2.783 4.18 2.783 6.718s-0.988 4.923-2.783 6.718c-1.794 1.794-4.18 2.782-6.718 2.782s-4.923-0.988-6.718-2.782z"></path>
</svg>
