<?xml version="1.0" encoding="utf-8"?>
<!-- Generated by IcoMoon.io -->
<!DOCTYPE svg PUBLIC "-//W3C//DTD SVG 1.1//EN" "http://www.w3.org/Graphics/SVG/1.1/DTD/svg11.dtd">
<svg version="1.1" xmlns="http://www.w3.org/2000/svg" xmlns:xlink="http://www.w3.org/1999/xlink" width="32" height="32" viewBox="0 0 32 32">
<path fill="#444" d="M28 28.745v-17.495c0-0.69-0.56-1.25-1.25-1.25h-5.583c-0.69 0-1.25 0.56-1.25 1.25s0.56 1.25 1.25 1.25h4.333v15h-19v-15h4.292c0.69 0 1.25-0.56 1.25-1.25s-0.56-1.25-1.25-1.25h-5.583c-0.69 0-1.25 0.56-1.25 1.25 0 0.109 0.015 0.214 0.042 0.315v17.185c0 0.69 0.56 1.25 1.25 1.25h21.5c0.69 0 1.25-0.56 1.25-1.25 0-0.002-0-0.003-0-0.005z"></path>
<path fill="#444" d="M20.801 6.255l-3.889-3.889c-0.251-0.251-0.583-0.372-0.912-0.365-0.050-0.001-0.101 0-0.151 0.005-0.017 0.002-0.034 0.005-0.052 0.007-0.023 0.003-0.046 0.006-0.069 0.011-0.021 0.004-0.040 0.010-0.060 0.015s-0.039 0.009-0.058 0.015c-0.020 0.006-0.039 0.014-0.059 0.021s-0.038 0.013-0.056 0.021c-0.019 0.008-0.037 0.017-0.055 0.025s-0.038 0.017-0.056 0.027c-0.018 0.010-0.035 0.021-0.053 0.031s-0.035 0.020-0.052 0.031c-0.021 0.014-0.041 0.029-0.061 0.045-0.012 0.009-0.025 0.018-0.037 0.028-0.033 0.027-0.064 0.055-0.094 0.085l-3.887 3.887c-0.488 0.488-0.488 1.28 0 1.768s1.28 0.488 1.768 0l1.755-1.755v13.732c0 0.69 0.56 1.25 1.25 1.25s1.25-0.56 1.25-1.25v-13.788l1.811 1.811c0.488 0.488 1.28 0.488 1.768 0s0.488-1.28 0-1.768z"></path>
</svg>
