<?xml version="1.0" encoding="utf-8"?>
<!-- Generated by IcoMoon.io -->
<!DOCTYPE svg PUBLIC "-//W3C//DTD SVG 1.1//EN" "http://www.w3.org/Graphics/SVG/1.1/DTD/svg11.dtd">
<svg version="1.1" xmlns="http://www.w3.org/2000/svg" xmlns:xlink="http://www.w3.org/1999/xlink" width="32" height="32" viewBox="0 0 32 32">
<path fill="#444" d="M27.348 4.656c-0.002-0.001-0.004-0.003-0.006-0.004-2.897-1.637-6.907-2.651-11.339-2.651-4.329 0-8.448 1.074-11.328 2.644-0.019 0.010-0.036 0.021-0.050 0.031-0.374 0.216-0.625 0.619-0.625 1.082v14.106c0 0.397 0.186 0.75 0.474 0.979l10.642 8.802c0.205 0.201 0.466 0.318 0.736 0.348 0.005 0.001 0.010 0.002 0.015 0.002 0.026 0.003 0.052 0.004 0.079 0.004 0.015 0.001 0.031 0.002 0.047 0.002s0.031-0.001 0.047-0.002c0.026-0.001 0.052-0.002 0.079-0.004 0.005-0 0.010-0.001 0.015-0.002 0.27-0.030 0.531-0.146 0.736-0.348l10.605-8.772c0.323-0.226 0.534-0.6 0.534-1.024v-14.091c0-0.477-0.267-0.891-0.659-1.102zM6.5 6.507c1.134-0.568 2.427-1.027 3.855-1.366 1.783-0.424 3.684-0.639 5.649-0.639s3.866 0.215 5.649 0.639c0.943 0.224 1.827 0.501 2.646 0.827l-15.339 15.339-2.461-2.033v-12.766zM15.992 27.117l-5.096-4.212 14.612-14.612v10.959l-9.516 7.864z"></path>
</svg>
