<?xml version="1.0" encoding="utf-8"?>
<!-- Generated by IcoMoon.io -->
<!DOCTYPE svg PUBLIC "-//W3C//DTD SVG 1.1//EN" "http://www.w3.org/Graphics/SVG/1.1/DTD/svg11.dtd">
<svg version="1.1" xmlns="http://www.w3.org/2000/svg" xmlns:xlink="http://www.w3.org/1999/xlink" width="32" height="32" viewBox="0 0 32 32">
<path fill="#444" d="M20.751 18.761c-0.006 0.003-0.011 0.006-0.016 0.009-0.433 0.197-0.734 0.631-0.734 1.138 0 0.69 0.56 1.25 1.25 1.25 0.188 0 0.366-0.043 0.526-0.117 0.005-0.002 0.009-0.003 0.014-0.006 0.59-0.27 1.134-0.645 1.605-1.116 1.040-1.040 1.612-2.421 1.612-3.89s-0.573-2.849-1.612-3.888c-0.479-0.479-1.034-0.86-1.637-1.13-0-0-0.001-0-0.001-0.001-0.155-0.069-0.326-0.108-0.506-0.108-0.69 0-1.25 0.56-1.25 1.25 0 0.494 0.287 0.919 0.702 1.122 0.005 0.004 0.011 0.008 0.018 0.011 0.334 0.148 0.641 0.358 0.906 0.623 0.567 0.567 0.879 1.32 0.88 2.121s-0.312 1.554-0.88 2.122c-0.257 0.257-0.554 0.462-0.876 0.609z"></path>
<path fill="#444" d="M26.931 8.606c-1.494-1.495-3.373-2.487-5.413-2.883-0.011-0.002-0.022-0.005-0.034-0.007-0.002-0-0.004-0.001-0.006-0.001-0.016-0.003-0.030-0.005-0.044-0.006-0.060-0.009-0.121-0.015-0.183-0.015-0.69 0-1.25 0.56-1.25 1.25 0 0.595 0.415 1.091 0.971 1.218 0.011 0.004 0.023 0.008 0.036 0.010 1.522 0.29 2.976 1.023 4.154 2.202 3.124 3.124 3.127 8.187-0 11.314-1.178 1.178-2.63 1.911-4.15 2.201-0.003 0-0.005 0.001-0.007 0.002-0.573 0.114-1.005 0.619-1.005 1.226 0 0.69 0.56 1.25 1.25 1.25 0.087 0 0.171-0.009 0.253-0.026 0.003-0.001 0.005-0.001 0.008-0.001 2.041-0.395 3.922-1.388 5.418-2.884 4.094-4.094 4.094-10.755 0-14.849z"></path>
<path fill="#444" d="M15.187 3.735c-0.399 0-0.754 0.188-0.982 0.479l-1.593 1.926v-0.002l-3.817 4.615h-5.543c-0.457 0-0.856 0.246-1.074 0.613-0.008 0.014-0.017 0.027-0.025 0.041-0.004 0.008-0.008 0.017-0.012 0.025-0.014 0.028-0.028 0.056-0.041 0.084-0.003 0.008-0.006 0.017-0.009 0.025-0.057 0.143-0.089 0.298-0.089 0.461v8c0 0.69 0.56 1.25 1.25 1.25h5.543l3.817 4.615v-0.007l1.595 1.929c0.229 0.29 0.583 0.476 0.98 0.476 0.69 0 1.25-0.56 1.25-1.25v-22.030c-0-0.69-0.56-1.25-1.25-1.25zM13.937 23.537l-3.335-4.035h-0.005l-0.62-0.75h-5.476v-5.5h5.476l3.96-4.789v15.074z"></path>
</svg>
