<?xml version="1.0" encoding="utf-8"?>
<!-- Generated by IcoMoon.io -->
<!DOCTYPE svg PUBLIC "-//W3C//DTD SVG 1.1//EN" "http://www.w3.org/Graphics/SVG/1.1/DTD/svg11.dtd">
<svg version="1.1" xmlns="http://www.w3.org/2000/svg" xmlns:xlink="http://www.w3.org/1999/xlink" width="32" height="32" viewBox="0 0 32 32">
<path fill="#444" d="M23.874 28.734c-0.199 0-0.399-0.047-0.582-0.144l-7.292-3.834-7.293 3.834c-0.421 0.222-0.931 0.184-1.316-0.095s-0.578-0.754-0.497-1.223l1.393-8.12-5.9-5.751c-0.341-0.332-0.463-0.829-0.316-1.281s0.538-0.782 1.009-0.851l8.153-1.185 3.646-7.388c0.211-0.427 0.645-0.697 1.121-0.697v0c0.476 0 0.91 0.27 1.121 0.697l3.646 7.388 8.153 1.185c0.471 0.068 0.862 0.398 1.009 0.851s0.024 0.949-0.316 1.281l-5.9 5.751 1.383 8.060c0.019 0.087 0.030 0.178 0.030 0.271 0 0.689-0.558 1.248-1.247 1.25-0.002 0-0.003 0-0.005 0zM5.946 13.38l4.557 4.442c0.295 0.287 0.429 0.701 0.36 1.106l-1.076 6.272 5.633-2.961c0.364-0.192 0.799-0.191 1.163 0l5.632 2.961-1.076-6.272c-0.070-0.405 0.065-0.819 0.36-1.106l4.557-4.442-6.297-0.915c-0.407-0.059-0.759-0.315-0.941-0.684l-2.816-5.706-2.816 5.706c-0.182 0.369-0.534 0.625-0.941 0.684l-6.297 0.915z"></path>
</svg>
