<?xml version="1.0" encoding="utf-8"?>
<!-- Generated by IcoMoon.io -->
<!DOCTYPE svg PUBLIC "-//W3C//DTD SVG 1.1//EN" "http://www.w3.org/Graphics/SVG/1.1/DTD/svg11.dtd">
<svg version="1.1" xmlns="http://www.w3.org/2000/svg" xmlns:xlink="http://www.w3.org/1999/xlink" width="32" height="32" viewBox="0 0 32 32">
<path fill="#444" d="M29.823 26.041c0.006-0.017 0.012-0.035 0.018-0.053 0.009-0.027 0.019-0.054 0.028-0.082 0.007-0.023 0.014-0.047 0.021-0.070s0.014-0.046 0.020-0.069c0.006-0.024 0.012-0.048 0.018-0.072s0.011-0.048 0.017-0.072c0.005-0.022 0.009-0.043 0.013-0.065 0.005-0.028 0.010-0.056 0.015-0.083 0.003-0.018 0.005-0.035 0.008-0.053 0.005-0.033 0.009-0.066 0.013-0.099 0.001-0.013 0.003-0.027 0.004-0.040 0.004-0.038 0.007-0.077 0.009-0.116 0.001-0.009 0.001-0.019 0.001-0.028 0.002-0.043 0.003-0.085 0.003-0.128 0-0.004 0-0.007 0-0.011s-0-0.008-0-0.012c-0-0.043-0.001-0.085-0.003-0.128-0-0.009-0.001-0.019-0.001-0.028-0.002-0.039-0.005-0.078-0.009-0.117-0.001-0.014-0.003-0.027-0.004-0.040-0.004-0.033-0.008-0.066-0.012-0.098-0.003-0.020-0.006-0.039-0.009-0.059-0.004-0.025-0.009-0.050-0.013-0.075-0.005-0.027-0.010-0.054-0.016-0.081-0.004-0.016-0.008-0.033-0.011-0.049-0.008-0.035-0.017-0.070-0.026-0.105-0.002-0.008-0.005-0.016-0.007-0.024-0.356-1.262-1.514-2.187-2.89-2.187-0.096 0-0.191 0.005-0.284 0.014l-8.268-14.321c0.659-0.928 0.759-2.192 0.153-3.242-0.394-0.682-1.014-1.15-1.711-1.366-0.002-0.001-0.004-0.001-0.006-0.002-0.044-0.013-0.087-0.026-0.132-0.037-0.009-0.002-0.019-0.004-0.028-0.007-0.038-0.009-0.076-0.018-0.114-0.026-0.012-0.003-0.024-0.005-0.036-0.007-0.037-0.007-0.073-0.014-0.11-0.020-0.012-0.002-0.024-0.003-0.036-0.005-0.038-0.005-0.076-0.010-0.113-0.014-0.011-0.001-0.022-0.002-0.033-0.003-0.040-0.004-0.079-0.007-0.119-0.009-0.010-0.001-0.020-0.001-0.030-0.001-0.040-0.002-0.081-0.003-0.122-0.003-0.005 0-0.010-0-0.015-0s-0.012 0-0.018 0c-0.038 0-0.076 0.001-0.113 0.003-0.015 0.001-0.031 0.001-0.046 0.002-0.031 0.002-0.062 0.004-0.093 0.007-0.023 0.002-0.045 0.004-0.068 0.007s-0.043 0.005-0.065 0.008c-0.032 0.004-0.063 0.009-0.095 0.014-0.011 0.002-0.022 0.004-0.033 0.006-1.405 0.251-2.473 1.478-2.473 2.956 0 0.649 0.206 1.249 0.556 1.74l-8.268 14.321c-0.092-0.009-0.186-0.014-0.28-0.014-1.659 0-3.003 1.345-3.003 3.003s1.345 3.003 3.003 3.003c1.213 0 2.256-0.719 2.731-1.753l16.538-0c0.004 0.009 0.009 0.019 0.014 0.028 0.007 0.015 0.014 0.030 0.022 0.045 0.015 0.030 0.030 0.060 0.046 0.090 0.007 0.013 0.014 0.025 0.020 0.038 0.010 0.018 0.019 0.036 0.029 0.053 0.009 0.015 0.018 0.030 0.027 0.045 0.004 0.006 0.008 0.012 0.012 0.019 0.846 1.387 2.649 1.852 4.064 1.035 0.59-0.34 1.020-0.85 1.265-1.433 0.002-0.004 0.003-0.008 0.005-0.012 0.016-0.039 0.032-0.078 0.046-0.118zM7.45 23.259l8.267-14.319c0.013 0.001 0.027 0.002 0.040 0.003 0.021 0.002 0.042 0.004 0.063 0.005s0.041 0.002 0.061 0.003c0.035 0.001 0.070 0.002 0.105 0.003 0.005 0 0.009 0 0.014 0s0.010-0 0.016-0c0.045-0 0.090-0.001 0.135-0.003 0.003-0 0.006-0 0.008-0 0.043-0.002 0.086-0.005 0.129-0.009l8.269 14.322c-0.109 0.153-0.204 0.316-0.283 0.489h-16.538c-0.080-0.173-0.175-0.338-0.285-0.492z"></path>
</svg>
