<?xml version="1.0" encoding="utf-8"?>
<!-- Generated by IcoMoon.io -->
<!DOCTYPE svg PUBLIC "-//W3C//DTD SVG 1.1//EN" "http://www.w3.org/Graphics/SVG/1.1/DTD/svg11.dtd">
<svg version="1.1" xmlns="http://www.w3.org/2000/svg" xmlns:xlink="http://www.w3.org/1999/xlink" width="32" height="32" viewBox="0 0 32 32">
<path fill="#444" d="M25.9 6.101c-5.467-5.467-14.332-5.467-19.799 0s-5.467 14.332 0 19.799 14.332 5.467 19.799 0c5.467-5.467 5.467-14.332 0-19.799zM25.425 22.596l-2.897-2.897c1.298-2.287 1.298-5.111 0-7.398l2.897-2.897c1.349 1.919 2.076 4.202 2.076 6.596s-0.727 4.677-2.076 6.596zM12.466 19.535c-1.949-1.95-1.949-5.122 0-7.071 0.944-0.944 2.2-1.464 3.536-1.464h0c1.335 0 2.591 0.52 3.535 1.464 1.949 1.949 1.949 5.122 0 7.071-0.944 0.944-2.2 1.465-3.535 1.465s-2.591-0.52-3.536-1.464zM22.597 6.576l-2.897 2.897c-1.143-0.649-2.421-0.974-3.699-0.974s-2.556 0.325-3.699 0.974l-2.897-2.897c1.919-1.349 4.202-2.076 6.596-2.076s4.677 0.727 6.596 2.076zM6.577 9.404l2.898 2.898c-1.297 2.287-1.297 5.11 0.001 7.396l-2.898 2.898c-1.349-1.919-2.076-4.202-2.076-6.596s0.727-4.677 2.076-6.596zM16.001 27.5c-2.395 0-4.677-0.727-6.596-2.076l2.898-2.898c1.143 0.649 2.421 0.974 3.699 0.974s2.554-0.325 3.698-0.973l2.898 2.898c-1.919 1.349-4.202 2.076-6.596 2.076z"></path>
</svg>
