<?xml version="1.0" encoding="utf-8"?>
<!-- Generated by IcoMoon.io -->
<!DOCTYPE svg PUBLIC "-//W3C//DTD SVG 1.1//EN" "http://www.w3.org/Graphics/SVG/1.1/DTD/svg11.dtd">
<svg version="1.1" xmlns="http://www.w3.org/2000/svg" xmlns:xlink="http://www.w3.org/1999/xlink" width="32" height="32" viewBox="0 0 32 32">
<path fill="#444" d="M31.212 13.061c-0.488-0.488-1.28-0.488-1.768 0l-0.669 0.669c-1.136-6.021-6.422-10.575-12.773-10.575-5.030 0-9.392 2.856-11.553 7.035-0.15 0.29-0.134 0.261-0.156 0.312-0.001 0.002-0.002 0.005-0.003 0.007-0 0.001-0.001 0.002-0.001 0.003l0 0c-0.062 0.148-0.096 0.311-0.096 0.482 0 0.69 0.56 1.25 1.25 1.25 0.479 0 0.894-0.269 1.104-0.664l0 0c0.506-1.043 1.188-2.006 2.032-2.85 1.983-1.983 4.62-3.075 7.425-3.075s5.441 1.092 7.425 3.075c1.425 1.425 2.389 3.187 2.819 5.106l-0.817-0.817c-0.488-0.488-1.28-0.488-1.768 0s-0.488 1.28 0 1.768l2.884 2.884c0.251 0.251 0.583 0.372 0.912 0.365 0.329 0.007 0.66-0.114 0.911-0.365l2.844-2.843c0.488-0.488 0.488-1.28-0-1.768z"></path>
<path fill="#444" d="M26.562 20.066c-0.479 0-0.894 0.269-1.104 0.664l-0-0c-0.506 1.044-1.188 2.006-2.032 2.851-1.983 1.983-4.62 3.075-7.425 3.075s-5.441-1.092-7.425-3.075c-1.507-1.507-2.499-3.392-2.889-5.441l0.915 0.915c0.488 0.488 1.28 0.488 1.768-0s0.488-1.28 0-1.768l-2.884-2.884c-0.251-0.251-0.583-0.372-0.912-0.365-0.329-0.007-0.66 0.114-0.911 0.365l-2.844 2.844c-0.488 0.488-0.488 1.28 0 1.768s1.28 0.488 1.768 0l0.609-0.609c1.065 6.108 6.393 10.751 12.805 10.751 5.030 0 9.392-2.856 11.553-7.035 0.15-0.29 0.134-0.261 0.157-0.313 0.001-0.002 0.002-0.005 0.003-0.007 0-0.001 0.001-0.002 0.001-0.003l-0-0c0.062-0.148 0.097-0.311 0.097-0.482-0-0.69-0.56-1.25-1.25-1.25zM4.575 17.026l0.026 0.026-0.044-0.008 0.018-0.018z"></path>
</svg>
