<?xml version="1.0" encoding="utf-8"?>
<!-- Generated by IcoMoon.io -->
<!DOCTYPE svg PUBLIC "-//W3C//DTD SVG 1.1//EN" "http://www.w3.org/Graphics/SVG/1.1/DTD/svg11.dtd">
<svg version="1.1" xmlns="http://www.w3.org/2000/svg" xmlns:xlink="http://www.w3.org/1999/xlink" width="32" height="32" viewBox="0 0 32 32">
<path fill="#444" d="M6.251 29h19.501c0.043 0 0.086-0.002 0.128-0.006 0.63-0.064 1.122-0.596 1.122-1.244v-23.497c0-0.69-0.56-1.25-1.25-1.25h-19.501c-0.691 0-1.25 0.56-1.25 1.25v23.497c0 0.69 0.56 1.25 1.25 1.25zM16 27.444c-0.552 0-1-0.448-1-1s0.448-1 1-1c0.552 0 1 0.448 1 1s-0.448 1-1 1zM7.501 5.502h17.001v18.497h-17.001v-18.497z"></path>
</svg>
