<?xml version="1.0" encoding="utf-8"?>
<!-- Generated by IcoMoon.io -->
<!DOCTYPE svg PUBLIC "-//W3C//DTD SVG 1.1//EN" "http://www.w3.org/Graphics/SVG/1.1/DTD/svg11.dtd">
<svg version="1.1" xmlns="http://www.w3.org/2000/svg" xmlns:xlink="http://www.w3.org/1999/xlink" width="32" height="32" viewBox="0 0 32 32">
<path fill="#444" d="M8.030 24c0-0.271-0.099-0.505-0.296-0.704-0.198-0.198-0.432-0.296-0.703-0.296s-0.506 0.099-0.704 0.296c-0.198 0.198-0.296 0.433-0.296 0.704s0.099 0.506 0.296 0.704c0.198 0.196 0.432 0.296 0.704 0.296s0.505-0.097 0.703-0.296c0.198-0.199 0.296-0.433 0.296-0.704zM26.030 15c0-0.531-0.202-0.997-0.608-1.398s-0.87-0.602-1.391-0.602h-5.499c0-0.604 0.249-1.434 0.75-2.491 0.499-1.057 0.749-1.893 0.749-2.508 0-1.020-0.167-1.775-0.5-2.265s-1-0.734-1.999-0.734c-0.272 0.27-0.469 0.713-0.595 1.328-0.126 0.615-0.284 1.269-0.477 1.961s-0.502 1.262-0.93 1.711c-0.229 0.24-0.63 0.713-1.203 1.422-0.041 0.052-0.161 0.208-0.36 0.469s-0.362 0.474-0.493 0.641c-0.13 0.166-0.31 0.387-0.539 0.663s-0.438 0.506-0.625 0.689c-0.187 0.181-0.388 0.367-0.602 0.555s-0.422 0.328-0.625 0.421c-0.202 0.094-0.387 0.14-0.555 0.141h-0.499v10h0.499c0.135 0 0.3 0.015 0.493 0.047s0.365 0.065 0.515 0.102c0.15 0.036 0.349 0.093 0.594 0.171s0.428 0.138 0.547 0.179c0.119 0.041 0.304 0.107 0.555 0.195s0.402 0.143 0.453 0.165c2.198 0.76 3.978 1.141 5.344 1.141h1.89c2 0 3.001-0.87 3.001-2.609 0-0.271-0.026-0.563-0.079-0.875 0.313-0.167 0.561-0.44 0.742-0.821s0.273-0.763 0.274-1.148c0-0.386-0.094-0.745-0.282-1.078 0.552-0.521 0.829-1.14 0.829-1.859 0-0.26-0.053-0.549-0.157-0.866-0.104-0.319-0.234-0.566-0.39-0.743 0.332-0.010 0.611-0.255 0.835-0.734s0.336-0.901 0.336-1.265v-0.002zM28.031 14.985c0 0.926-0.256 1.775-0.766 2.547 0.093 0.344 0.14 0.702 0.14 1.078 0 0.802-0.198 1.552-0.594 2.25 0.032 0.219 0.047 0.443 0.047 0.671 0 1.053-0.313 1.98-0.936 2.782 0.010 1.448-0.432 2.591-1.329 3.43s-2.079 1.258-3.547 1.258h-2.017c-1 0-1.986-0.117-2.961-0.352s-2.101-0.575-3.382-1.024c-1.208-0.416-1.927-0.624-2.156-0.624h-4.5c-0.552 0-1.023-0.197-1.414-0.587s-0.586-0.862-0.586-1.414v-9.999c0-0.552 0.195-1.023 0.586-1.413s0.862-0.587 1.414-0.587h4.281c0.375-0.25 1.088-1.057 2.14-2.421 0.604-0.781 1.162-1.448 1.672-2 0.25-0.26 0.435-0.706 0.555-1.336s0.278-1.288 0.477-1.976c0.199-0.687 0.521-1.25 0.969-1.687 0.406-0.386 0.875-0.579 1.407-0.579 0.875 0 1.661 0.169 2.358 0.508s1.229 0.867 1.593 1.587c0.366 0.719 0.547 1.687 0.547 2.905 0 0.969-0.25 1.969-0.749 3.001h2.75c1.083 0 2.020 0.395 2.811 1.187s1.188 1.723 1.188 2.797l0.002 0.002z"></path>
</svg>
