<?xml version="1.0" encoding="utf-8"?>
<!-- Generated by IcoMoon.io -->
<!DOCTYPE svg PUBLIC "-//W3C//DTD SVG 1.1//EN" "http://www.w3.org/Graphics/SVG/1.1/DTD/svg11.dtd">
<svg version="1.1" xmlns="http://www.w3.org/2000/svg" xmlns:xlink="http://www.w3.org/1999/xlink" width="32" height="32" viewBox="0 0 32 32">
<path fill="#444" d="M18 16.896c0 1.105-0.895 2-2 2s-2-0.895-2-2c0-0.633 0.295-1.198 0.754-1.564v-6.044c-0-0.69 0.56-1.25 1.25-1.25s1.25 0.56 1.25 1.25l-0 6.051c0.455 0.367 0.746 0.928 0.746 1.558zM29.010 16.998c0 7.181-5.821 13.002-13.002 13.002s-13.002-5.821-13.002-13.002c0-6.758 5.156-12.311 11.749-12.942l0.006-1.556h-0.511c-0.69 0-1.25-0.56-1.25-1.25s0.56-1.25 1.25-1.25l3.5 0c0.69-0 1.25 0.56 1.25 1.25s-0.56 1.25-1.25 1.25h-0.489l-0.006 1.556c2.414 0.23 4.635 1.119 6.482 2.486l1.308-1.308c0.488-0.488 1.28-0.488 1.768 0s0.488 1.28 0 1.768l-1.216 1.216c2.119 2.313 3.413 5.396 3.413 8.78zM26.51 16.998c0-2.805-1.092-5.442-3.076-7.426s-4.621-3.076-7.426-3.076c-2.805 0-5.442 1.092-7.426 3.076s-3.076 4.621-3.076 7.426c0 2.805 1.092 5.442 3.076 7.426s4.621 3.076 7.426 3.076c2.805 0 5.443-1.092 7.426-3.076s3.076-4.621 3.076-7.426z"></path>
</svg>
