<?xml version="1.0" encoding="utf-8"?>
<!-- Generated by IcoMoon.io -->
<!DOCTYPE svg PUBLIC "-//W3C//DTD SVG 1.1//EN" "http://www.w3.org/Graphics/SVG/1.1/DTD/svg11.dtd">
<svg version="1.1" xmlns="http://www.w3.org/2000/svg" xmlns:xlink="http://www.w3.org/1999/xlink" width="32" height="32" viewBox="0 0 32 32">
<path fill="#444" d="M16 2c-7.732 0-14 6.268-14 14s6.268 14 14 14 14-6.268 14-14c0-7.732-6.268-14-14-14zM24.132 24.132c-2.172 2.172-5.060 3.368-8.132 3.368s-5.96-1.196-8.132-3.368c-2.172-2.172-3.368-5.060-3.368-8.132s1.196-5.96 3.368-8.132c2.172-2.172 5.060-3.368 8.132-3.368s5.96 1.196 8.132 3.368c2.172 2.172 3.368 5.060 3.368 8.132s-1.196 5.96-3.368 8.132z"></path>
<path fill="#444" d="M22.75 14.906h-5.5v-7.656c0-0.69-0.56-1.25-1.25-1.25s-1.25 0.56-1.25 1.25v8.906c0 0.428 0.215 0.805 0.543 1.031 0.003 0.002 0.005 0.004 0.008 0.006 0.027 0.018 0.056 0.035 0.085 0.051 0.006 0.004 0.012 0.008 0.019 0.011 0.017 0.009 0.036 0.017 0.054 0.026s0.037 0.019 0.056 0.027c0.004 0.001 0.008 0.003 0.012 0.004 0.146 0.060 0.307 0.094 0.475 0.094h6.75c0.69 0 1.25-0.56 1.25-1.25s-0.56-1.25-1.25-1.25z"></path>
</svg>
