<?xml version="1.0" encoding="utf-8"?>
<!-- Generated by IcoMoon.io -->
<!DOCTYPE svg PUBLIC "-//W3C//DTD SVG 1.1//EN" "http://www.w3.org/Graphics/SVG/1.1/DTD/svg11.dtd">
<svg version="1.1" xmlns="http://www.w3.org/2000/svg" xmlns:xlink="http://www.w3.org/1999/xlink" width="32" height="32" viewBox="0 0 32 32">
<path fill="#444" d="M28.635 9.13l-3.906-3.92c-0.487-0.489-1.279-0.49-1.768-0.003s-0.49 1.279-0.003 1.768l1.781 1.788h-20.49c-0.69 0-1.25 0.56-1.25 1.25s0.56 1.25 1.25 1.25h20.477l-1.766 1.761c-0.489 0.488-0.49 1.279-0.002 1.768 0.244 0.245 0.565 0.367 0.885 0.367 0.319 0 0.639-0.122 0.883-0.365l3.906-3.896c0.488-0.487 0.49-1.278 0.003-1.767z"></path>
<path fill="#444" d="M3.365 22.872l3.906 3.92c0.487 0.489 1.279 0.49 1.768 0.003s0.49-1.279 0.003-1.768l-1.781-1.788h20.49c0.69 0 1.25-0.56 1.25-1.25s-0.56-1.25-1.25-1.25h-20.477l1.766-1.762c0.489-0.488 0.49-1.279 0.002-1.768-0.244-0.245-0.565-0.367-0.885-0.367-0.319 0-0.639 0.122-0.883 0.365l-3.906 3.896c-0.489 0.487-0.49 1.278-0.003 1.767z"></path>
</svg>
