<?xml version="1.0" encoding="utf-8"?>
<!-- Generated by IcoMoon.io -->
<!DOCTYPE svg PUBLIC "-//W3C//DTD SVG 1.1//EN" "http://www.w3.org/Graphics/SVG/1.1/DTD/svg11.dtd">
<svg version="1.1" xmlns="http://www.w3.org/2000/svg" xmlns:xlink="http://www.w3.org/1999/xlink" width="32" height="32" viewBox="0 0 32 32">
<path fill="#444" d="M28.734 7.038h-6.734v-3.752c0-0.636-0.475-1.159-1.089-1.238-0.053-0.007-0.107-0.012-0.161-0.012h-9.5c-0.055 0-0.108 0.005-0.161 0.012-0.614 0.079-1.089 0.603-1.089 1.238v3.753h-6.75c-0.69 0-1.25 0.56-1.25 1.25s0.56 1.25 1.25 1.25h0.851l1.685 19.247h0.007c0 0.69 0.56 1.25 1.25 1.25h17.918c0.69 0 1.25-0.56 1.25-1.25h0.005l1.685-19.247h0.835c0.69 0 1.25-0.56 1.25-1.25s-0.56-1.25-1.25-1.25zM12.5 4.535h7v2.503h-7v-2.503zM23.814 27.535h-15.629l-1.575-17.997h18.78l-1.576 17.997z"></path>
<path fill="#444" d="M21 23.035c0.69-0 1.25-0.56 1.25-1.25l0-7.5c0-0.69-0.56-1.25-1.25-1.25s-1.25 0.56-1.25 1.25v7.5c-0 0.69 0.56 1.25 1.25 1.25z"></path>
<path fill="#444" d="M11 23.035c0.69-0 1.25-0.56 1.25-1.25l0-7.5c0-0.69-0.56-1.25-1.25-1.25s-1.25 0.56-1.25 1.25v7.5c-0 0.69 0.56 1.25 1.25 1.25z"></path>
<path fill="#444" d="M16 23.035c0.69-0 1.25-0.56 1.25-1.25l0-7.5c0-0.69-0.56-1.25-1.25-1.25s-1.25 0.56-1.25 1.25v7.5c-0 0.69 0.56 1.25 1.25 1.25z"></path>
</svg>
