<?xml version="1.0" encoding="utf-8"?>
<!-- Generated by IcoMoon.io -->
<!DOCTYPE svg PUBLIC "-//W3C//DTD SVG 1.1//EN" "http://www.w3.org/Graphics/SVG/1.1/DTD/svg11.dtd">
<svg version="1.1" xmlns="http://www.w3.org/2000/svg" xmlns:xlink="http://www.w3.org/1999/xlink" width="32" height="32" viewBox="0 0 32 32">
<path fill="#444" d="M30 7.285c-1.030 0.457-2.138 0.766-3.3 0.904 1.186-0.711 2.097-1.837 2.527-3.178-1.11 0.658-2.34 1.136-3.648 1.394-1.048-1.116-2.541-1.814-4.194-1.814-3.172 0-5.744 2.572-5.744 5.744 0 0.451 0.051 0.889 0.149 1.309-4.773-0.24-9.007-2.527-11.84-6.002-0.494 0.848-0.778 1.835-0.778 2.888 0 1.993 1.014 3.751 2.556 4.782-0.941-0.030-1.827-0.288-2.602-0.718-0.001 0.023-0.001 0.048-0.001 0.073 0 2.783 1.98 5.104 4.607 5.633-0.482 0.131-0.989 0.201-1.514 0.201-0.37 0-0.73-0.036-1.080-0.102 0.731 2.281 2.853 3.942 5.366 3.988-1.966 1.541-4.443 2.459-7.135 2.459-0.463 0-0.92-0.027-1.37-0.080 2.542 1.629 5.561 2.58 8.806 2.58 10.566 0 16.344-8.753 16.344-16.344 0-0.25-0.005-0.497-0.017-0.743 1.123-0.811 2.098-1.822 2.867-2.974z"></path>
</svg>
