<?xml version="1.0" encoding="utf-8"?>
<!-- Generated by IcoMoon.io -->
<!DOCTYPE svg PUBLIC "-//W3C//DTD SVG 1.1//EN" "http://www.w3.org/Graphics/SVG/1.1/DTD/svg11.dtd">
<svg version="1.1" xmlns="http://www.w3.org/2000/svg" xmlns:xlink="http://www.w3.org/1999/xlink" width="32" height="32" viewBox="0 0 32 32">
<path fill="#444" d="M28.001 28.61v-14.609c0-0.062-0.006-0.123-0.015-0.182-0.003-0.023-0.006-0.047-0.011-0.070-0.048-0.232-0.16-0.441-0.318-0.607-0.008-0.008-0.015-0.017-0.023-0.025-0.015-0.015-0.032-0.030-0.049-0.044-0.013-0.012-0.026-0.025-0.040-0.037-0.009-0.008-0.019-0.014-0.028-0.021-0.078-0.061-0.164-0.113-0.256-0.154-0.023-0.010-0.047-0.020-0.071-0.029-0.137-0.052-0.285-0.081-0.44-0.081h-17.256l0-1.745c0-3.587 2.918-6.505 6.505-6.505 2.689 0 5.001 1.64 5.991 3.972 0 0.001 0.001 0.001 0.001 0.002 0.187 0.455 0.634 0.776 1.156 0.776 0.69 0 1.25-0.56 1.25-1.25 0-0.147-0.027-0.288-0.074-0.419-0.006-0.022-0.013-0.045-0.024-0.072-1.365-3.237-4.567-5.509-8.3-5.509-4.973 0-9.004 4.031-9.005 9.004v1.746h-1.714c-0.647 0-1.18 0.492-1.244 1.122-0.004 0.042-0.006 0.085-0.006 0.128v14.479c-0.019 0.087-0.030 0.178-0.030 0.271 0 0.69 0.56 1.25 1.25 1.25h21.508c0.69 0 1.25-0.56 1.25-1.25-0-0.048-0.003-0.095-0.008-0.141zM6.531 15.251h18.97v12.25h-18.97v-12.25z"></path>
<path fill="#444" d="M18.001 20.063c0-1.105-0.895-2-2-2s-2 0.895-2 2c0 0.633 0.295 1.198 0.754 1.564v1.812c-0 0.69 0.56 1.25 1.25 1.25s1.25-0.56 1.25-1.25l0-1.818c0.455-0.367 0.746-0.928 0.746-1.557z"></path>
</svg>
