<?xml version="1.0" encoding="utf-8"?>
<!-- Generated by IcoMoon.io -->
<!DOCTYPE svg PUBLIC "-//W3C//DTD SVG 1.1//EN" "http://www.w3.org/Graphics/SVG/1.1/DTD/svg11.dtd">
<svg version="1.1" xmlns="http://www.w3.org/2000/svg" xmlns:xlink="http://www.w3.org/1999/xlink" width="32" height="32" viewBox="0 0 32 32">
<path fill="#444" d="M12.221 27.382c2.904 0 5.719-0.568 8.368-1.689 0.455-0.192 0.902-0.401 1.34-0.622v-0.47c0-2.937-6.073-5.616-7.699-5.875-0.505-0.080-0.517-1.469-0.517-1.469s1.484-1.469 1.807-3.444c0.87 0 1.407-2.1 0.537-2.838 0.036-0.778 1.118-6.104-4.358-6.104s-4.395 5.327-4.358 6.104c-0.87 0.739-0.333 2.838 0.537 2.838 0.323 1.975 1.807 3.444 1.807 3.444s-0.011 1.388-0.516 1.469c-1.609 0.256-7.57 2.881-7.696 5.782 0.766 0.442 1.56 0.838 2.381 1.186 2.649 1.12 5.464 1.688 8.368 1.688z"></path>
<path fill="#444" d="M30.532 20.382c0-2.019-4.175-3.86-5.293-4.038-0.347-0.055-0.355-1.010-0.355-1.010s1.020-1.010 1.242-2.367c0.598 0 0.967-1.443 0.369-1.951 0.025-0.535 0.768-4.196-2.996-4.196s-3.021 3.662-2.996 4.196c-0.598 0.508-0.229 1.951 0.369 1.951 0.222 1.358 1.242 2.367 1.242 2.367s-0.008 0.954-0.355 1.010c-0.724 0.115-2.728 0.927-4.051 2.033 0.657 0.314 1.315 0.668 1.908 1.037 0.446 0.277 0.856 0.558 1.229 0.843 1.116 0.852 1.905 1.739 2.364 2.654 0.087 0.001 0.174 0.003 0.261 0.003 2.431 0 4.799-0.4 7.061-1.187v-1.346z"></path>
</svg>
