<?xml version="1.0" encoding="utf-8"?>
<!-- Generated by IcoMoon.io -->
<!DOCTYPE svg PUBLIC "-//W3C//DTD SVG 1.1//EN" "http://www.w3.org/Graphics/SVG/1.1/DTD/svg11.dtd">
<svg version="1.1" xmlns="http://www.w3.org/2000/svg" xmlns:xlink="http://www.w3.org/1999/xlink" width="32" height="32" viewBox="0 0 32 32">
<path fill="#444" d="M16.002 2.033c-7.732 0-14 6.268-14 14s6.268 14 14 14 14-6.268 14-14-6.268-14-14-14zM24.26 24.035c-1.731-1.704-4.857-2.996-5.922-3.165-0.466-0.074-0.477-1.356-0.477-1.356s1.37-1.356 1.668-3.179c0.803 0 1.299-1.938 0.496-2.62 0.034-0.718 1.032-5.636-4.024-5.636s-4.057 4.918-4.024 5.636c-0.803 0.682-0.307 2.62 0.496 2.62 0.299 1.823 1.668 3.179 1.668 3.179s-0.011 1.282-0.477 1.356c-1.064 0.169-4.191 1.461-5.922 3.165-2.092-2.157-3.242-4.991-3.242-8.002 0-3.072 1.196-5.96 3.368-8.132s5.060-3.368 8.132-3.368 5.96 1.196 8.132 3.368c2.172 2.172 3.368 5.060 3.368 8.132 0 3.011-1.15 5.845-3.242 8.002z"></path>
</svg>
