<?xml version="1.0" encoding="utf-8"?>
<!-- Generated by IcoMoon.io -->
<!DOCTYPE svg PUBLIC "-//W3C//DTD SVG 1.1//EN" "http://www.w3.org/Graphics/SVG/1.1/DTD/svg11.dtd">
<svg version="1.1" xmlns="http://www.w3.org/2000/svg" xmlns:xlink="http://www.w3.org/1999/xlink" width="32" height="32" viewBox="0 0 32 32">
<path fill="#444" d="M16.647 30c3.612 0 7.114-0.707 10.409-2.1 0.566-0.239 1.122-0.498 1.667-0.774v-0.585c0-3.654-7.554-6.985-9.577-7.307-0.628-0.1-0.642-1.827-0.642-1.827s1.845-1.827 2.248-4.283c1.082 0 1.75-2.612 0.668-3.53 0.045-0.967 1.391-7.593-5.421-7.593s-5.466 6.626-5.421 7.593c-1.082 0.919-0.414 3.53 0.668 3.53 0.402 2.457 2.247 4.283 2.247 4.283s-0.014 1.727-0.642 1.827c-2.001 0.318-9.416 3.584-9.573 7.191 0.952 0.55 1.94 1.043 2.962 1.475 3.295 1.394 6.797 2.1 10.408 2.1z"></path>
</svg>
