<?xml version="1.0" encoding="utf-8"?>
<!-- Generated by IcoMoon.io -->
<!DOCTYPE svg PUBLIC "-//W3C//DTD SVG 1.1//EN" "http://www.w3.org/Graphics/SVG/1.1/DTD/svg11.dtd">
<svg version="1.1" xmlns="http://www.w3.org/2000/svg" xmlns:xlink="http://www.w3.org/1999/xlink" width="32" height="32" viewBox="0 0 32 32">
<path fill="#444" d="M12.221 27.724c2.904 0 5.719-0.568 8.368-1.689 0.455-0.192 0.902-0.401 1.34-0.622v-0.47c0-2.937-6.073-5.616-7.699-5.875-0.505-0.080-0.517-1.469-0.517-1.469s1.484-1.469 1.807-3.444c0.87 0 1.407-2.1 0.537-2.838 0.036-0.778 1.118-6.104-4.358-6.104s-4.395 5.327-4.358 6.104c-0.87 0.739-0.333 2.838 0.537 2.838 0.323 1.975 1.807 3.444 1.807 3.444s-0.011 1.388-0.516 1.469c-1.609 0.256-7.57 2.881-7.696 5.782 0.766 0.442 1.56 0.838 2.381 1.186 2.649 1.12 5.464 1.688 8.368 1.688z"></path>
<path fill="#444" d="M28.439 10.469h-2.5v-2.5c0-0.69-0.56-1.25-1.25-1.25s-1.25 0.56-1.25 1.25v2.5h-2.5c-0.69 0-1.25 0.56-1.25 1.25s0.559 1.25 1.25 1.25h2.5v2.5c0 0.69 0.56 1.25 1.25 1.25s1.25-0.56 1.25-1.25v-2.5l2.5-0c0.69 0 1.25-0.56 1.25-1.25s-0.56-1.25-1.25-1.25z"></path>
</svg>
