<?xml version="1.0" encoding="utf-8"?>
<!-- Generated by IcoMoon.io -->
<!DOCTYPE svg PUBLIC "-//W3C//DTD SVG 1.1//EN" "http://www.w3.org/Graphics/SVG/1.1/DTD/svg11.dtd">
<svg version="1.1" xmlns="http://www.w3.org/2000/svg" xmlns:xlink="http://www.w3.org/1999/xlink" width="32" height="32" viewBox="0 0 32 32">
<path fill="#444" d="M28.939 8.543c-0.299 0-0.643 0.119-1.009 0.369l-5.929 4.059v-4.721c0-0.636-0.475-1.159-1.089-1.238-0.053-0.007-0.107-0.012-0.161-0.012h-17.5c-0.055 0-0.108 0.005-0.161 0.012-0.614 0.079-1.089 0.603-1.089 1.238v15.5c0 0.69 0.56 1.25 1.25 1.25h17.5c0.431 0 0.812-0.219 1.037-0.551 0.003-0.005 0.006-0.010 0.009-0.014 0.019-0.029 0.038-0.058 0.054-0.089 0.001-0.003 0.003-0.005 0.004-0.008 0.094-0.175 0.147-0.375 0.147-0.588v-4.721l5.929 4.059c0.366 0.25 0.71 0.369 1.009 0.369 0.628 0 1.054-0.525 1.054-1.457v-12.001c0-0.932-0.426-1.457-1.054-1.457zM19.501 22.5h-15v-13h15v13zM27.493 19.759l-5.492-3.759 5.492-3.759v7.519z"></path>
<path fill="#444" d="M7.521 20.735c-0.69 0-1.25-0.56-1.25-1.25v0c0-0.69 0.56-1.25 1.25-1.25v0c0.69 0 1.25 0.56 1.25 1.25v0c0 0.69-0.56 1.25-1.25 1.25v0z"></path>
</svg>
