<?xml version="1.0" encoding="utf-8"?>
<!-- Generated by IcoMoon.io -->
<!DOCTYPE svg PUBLIC "-//W3C//DTD SVG 1.1//EN" "http://www.w3.org/Graphics/SVG/1.1/DTD/svg11.dtd">
<svg version="1.1" xmlns="http://www.w3.org/2000/svg" xmlns:xlink="http://www.w3.org/1999/xlink" width="32" height="32" viewBox="0 0 32 32">
<path fill="#000" d="M23.005 3.376c0-0.345-0.28-0.625-0.625-0.625h-12.759c-0.345 0-0.625 0.28-0.625 0.625s0.28 0.625 0.625 0.625h12.759c0.345 0 0.625-0.28 0.625-0.625zM23.005 1.574c0-0.345-0.28-0.625-0.625-0.625h-12.759c-0.345 0-0.625 0.28-0.625 0.625s0.28 0.625 0.625 0.625h12.759c0.345 0 0.625-0.28 0.625-0.625zM23.005 30.428c0-0.345-0.28-0.625-0.625-0.625h-12.759c-0.345 0-0.625 0.28-0.625 0.625s0.28 0.625 0.625 0.625h12.759c0.345 0 0.625-0.28 0.625-0.625zM23.005 28.626c0-0.345-0.28-0.625-0.625-0.625h-12.759c-0.345 0-0.625 0.28-0.625 0.625s0.28 0.625 0.625 0.625h12.759c0.345 0 0.625-0.28 0.625-0.625zM22.423 7.125c0.591 0 1.071 0.473 1.071 1.055v15.641c0 0.582-0.481 1.055-1.071 1.055h-12.857c-0.591 0-1.071-0.473-1.071-1.055v-15.641c0-0.582 0.481-1.055 1.071-1.055h12.857zM22.423 4.625h-12.857c-1.972 0-3.571 1.591-3.571 3.555v15.641c0 1.963 1.599 3.555 3.571 3.555h12.857c1.972 0 3.571-1.591 3.571-3.555v-15.641c-0-1.963-1.599-3.555-3.571-3.555v0zM21.251 15.985c0 0.69-0.56 1.25-1.25 1.25h-4c-0.168 0-0.328-0.034-0.475-0.094-0.004-0.002-0.008-0.003-0.012-0.004-0.019-0.008-0.037-0.018-0.056-0.027s-0.036-0.017-0.054-0.026c-0.006-0.003-0.012-0.008-0.019-0.011-0.029-0.016-0.057-0.033-0.085-0.051-0.003-0.002-0.005-0.004-0.008-0.006-0.328-0.225-0.543-0.603-0.543-1.031v-4.734c0-0.69 0.56-1.25 1.25-1.25s1.25 0.56 1.25 1.25v3.484h2.75c0.69-0 1.25 0.56 1.25 1.25z"></path>
</svg>
