<?xml version="1.0" encoding="utf-8"?>
<!-- Generated by IcoMoon.io -->
<!DOCTYPE svg PUBLIC "-//W3C//DTD SVG 1.1//EN" "http://www.w3.org/Graphics/SVG/1.1/DTD/svg11.dtd">
<svg version="1.1" xmlns="http://www.w3.org/2000/svg" xmlns:xlink="http://www.w3.org/1999/xlink" width="32" height="32" viewBox="0 0 32 32">
<path fill="#444" d="M29.982 8.57c0-0.69-0.56-1.25-1.25-1.25-0.349 0-0.664 0.143-0.89 0.374l-1.88 1.88c-0.488 0.488-1.28 0.488-1.768-0l-1.768-1.768c-0.488-0.488-0.488-1.28 0-1.768l1.861-1.861c0.242-0.228 0.394-0.551 0.394-0.909 0-0.69-0.56-1.25-1.25-1.25-0.050 0-0.099 0.004-0.147 0.010-0 0-0.001-0-0.001-0-2.967 0.362-5.266 2.89-5.266 5.955 0 0.735 0.132 1.439 0.374 2.090l-15.721 15.721c-0.047 0.047-0.087 0.097-0.125 0.149-0.341 0.427-0.545 0.968-0.545 1.558 0 1.381 1.119 2.5 2.5 2.5 0.591 0 1.133-0.205 1.561-0.548 0.050-0.037 0.099-0.077 0.145-0.123l15.721-15.721c0.651 0.242 1.355 0.374 2.090 0.374 3.062 0 5.588-2.294 5.954-5.257v-0c0.006-0.051 0.011-0.102 0.011-0.155zM4.75 28.5c-0.69 0-1.25-0.56-1.25-1.25s0.56-1.25 1.25-1.25 1.25 0.56 1.25 1.25c0 0.69-0.56 1.25-1.25 1.25z"></path>
</svg>
