<?xml version="1.0" encoding="utf-8"?>
<!-- Generated by IcoMoon.io -->
<!DOCTYPE svg PUBLIC "-//W3C//DTD SVG 1.1//EN" "http://www.w3.org/Graphics/SVG/1.1/DTD/svg11.dtd">
<svg version="1.1" xmlns="http://www.w3.org/2000/svg" xmlns:xlink="http://www.w3.org/1999/xlink" width="32" height="32" viewBox="0 0 32 32">
<path fill="#444" d="M22 16c0-0.385-0.157-0.667-0.47-0.844l-7.999-5c-0.323-0.208-0.662-0.219-1.016-0.031-0.343 0.187-0.515 0.479-0.515 0.875v10c0 0.397 0.172 0.688 0.515 0.875 0.167 0.084 0.329 0.125 0.485 0.125 0.208 0 0.385-0.051 0.531-0.156l7.999-5c0.313-0.178 0.47-0.459 0.47-0.843v-0.001zM30 16c0 1-0.005 1.781-0.015 2.345-0.010 0.562-0.055 1.273-0.133 2.133s-0.196 1.627-0.352 2.304c-0.167 0.761-0.526 1.402-1.078 1.922s-1.197 0.822-1.936 0.906c-2.312 0.261-5.807 0.391-10.485 0.391s-8.172-0.131-10.484-0.391c-0.739-0.083-1.388-0.384-1.945-0.906s-0.919-1.162-1.086-1.922c-0.146-0.678-0.258-1.445-0.336-2.304s-0.123-1.571-0.133-2.133c-0.011-0.564-0.016-1.345-0.016-2.345s0.005-1.782 0.016-2.344c0.010-0.563 0.055-1.274 0.133-2.134 0.078-0.859 0.196-1.628 0.352-2.305 0.167-0.761 0.526-1.401 1.078-1.922s1.198-0.823 1.937-0.907c2.313-0.26 5.807-0.39 10.484-0.39s8.172 0.13 10.485 0.39c0.739 0.084 1.388 0.386 1.945 0.907s0.919 1.161 1.085 1.922c0.147 0.677 0.258 1.446 0.337 2.305 0.079 0.86 0.123 1.571 0.133 2.134s0.015 1.344 0.015 2.344z"></path>
</svg>
