<svg width="32" height="32" viewBox="0 0 32 32" fill="none" xmlns="http://www.w3.org/2000/svg">
<rect width="32" height="32" rx="6" fill="#1B2448"/>
<path d="M4.76074 10.1342C4.76074 9.37595 5.18021 8.6799 5.85064 8.32568L13.4522 4.30938C15.0465 3.46702 16.9541 3.46701 18.5484 4.30938L26.15 8.32568C26.8204 8.6799 27.2399 9.37595 27.2399 10.1342V21.8658C27.2399 22.6241 26.8204 23.3201 26.15 23.6743L18.5484 27.6906C16.9541 28.533 15.0465 28.533 13.4522 27.6906L5.85064 23.6743C5.18021 23.3201 4.76074 22.6241 4.76074 21.8658V10.1342Z" fill="url(#paint0_linear)" fill-opacity="0.3" stroke="white"/>
<circle cx="15.9999" cy="16" r="6.51846" fill="url(#paint1_linear)"/>
<ellipse cx="9.07417" cy="21.2963" rx="0.81489" ry="0.814892" fill="url(#paint2_linear)"/>
<ellipse cx="12.9446" cy="7.24081" rx="0.611106" ry="0.611106" fill="url(#paint3_linear)"/>
<ellipse cx="16.4072" cy="6.22239" rx="0.814891" ry="0.81489" fill="url(#paint4_linear)"/>
<ellipse cx="11.5186" cy="24.148" rx="0.40728" ry="0.40728" fill="url(#paint5_linear)"/>
<ellipse cx="24.9625" cy="19.6665" rx="0.407281" ry="0.40728" fill="url(#paint6_linear)"/>
<path d="M13.4373 4.32714C15.0395 3.4744 16.9608 3.4744 18.5629 4.32714L26.5565 8.58181C27.4401 9.0521 27.4401 10.3184 26.5565 10.7887L18.5629 15.0433C16.9608 15.8961 15.0395 15.8961 13.4373 15.0433L5.44372 10.7887C4.56014 10.3184 4.56014 9.0521 5.44372 8.58181L13.4373 4.32714Z" fill="url(#paint7_linear)" fill-opacity="0.8" stroke="white"/>
<defs>
<linearGradient id="paint0_linear" x1="16.0002" y1="29.0369" x2="16.0002" y2="2.96307" gradientUnits="userSpaceOnUse">
<stop stop-color="#FF6A3E"/>
<stop offset="1" stop-color="#FF6A3E" stop-opacity="0"/>
</linearGradient>
<linearGradient id="paint1_linear" x1="15.9999" y1="9.48153" x2="15.9999" y2="22.5185" gradientUnits="userSpaceOnUse">
<stop stop-color="#FF6A3E"/>
<stop offset="1" stop-color="#FF464A"/>
</linearGradient>
<linearGradient id="paint2_linear" x1="9.07417" y1="20.4814" x2="9.07417" y2="22.1112" gradientUnits="userSpaceOnUse">
<stop stop-color="#FF6A3E"/>
<stop offset="1" stop-color="#FF464A"/>
</linearGradient>
<linearGradient id="paint3_linear" x1="12.9446" y1="6.62971" x2="12.9446" y2="7.85192" gradientUnits="userSpaceOnUse">
<stop stop-color="#FF6A3E"/>
<stop offset="1" stop-color="#FF464A"/>
</linearGradient>
<linearGradient id="paint4_linear" x1="16.4072" y1="5.4075" x2="16.4072" y2="7.03728" gradientUnits="userSpaceOnUse">
<stop stop-color="#FF6A3E"/>
<stop offset="1" stop-color="#FF464A"/>
</linearGradient>
<linearGradient id="paint5_linear" x1="11.5186" y1="23.7407" x2="11.5186" y2="24.5552" gradientUnits="userSpaceOnUse">
<stop stop-color="#FF6A3E"/>
<stop offset="1" stop-color="#FF464A"/>
</linearGradient>
<linearGradient id="paint6_linear" x1="24.9625" y1="19.2592" x2="24.9625" y2="20.0738" gradientUnits="userSpaceOnUse">
<stop stop-color="#FF6A3E"/>
<stop offset="1" stop-color="#FF464A"/>
</linearGradient>
<linearGradient id="paint7_linear" x1="16.0001" y1="9.48154" x2="16.0001" y2="16.4074" gradientUnits="userSpaceOnUse">
<stop stop-color="white" stop-opacity="0"/>
<stop offset="0.0666667" stop-color="white" stop-opacity="0.01"/>
<stop offset="0.133333" stop-color="white" stop-opacity="0.03551"/>
<stop offset="0.2" stop-color="white" stop-opacity="0.0816599"/>
<stop offset="0.266667" stop-color="white" stop-opacity="0.147411"/>
<stop offset="0.333333" stop-color="white" stop-opacity="0.231775"/>
<stop offset="0.4" stop-color="white" stop-opacity="0.331884"/>
<stop offset="0.466667" stop-color="white" stop-opacity="0.442691"/>
<stop offset="0.533333" stop-color="white" stop-opacity="0.557309"/>
<stop offset="0.6" stop-color="white" stop-opacity="0.668116"/>
<stop offset="0.666667" stop-color="white" stop-opacity="0.768225"/>
<stop offset="0.733333" stop-color="white" stop-opacity="0.852589"/>
<stop offset="0.8" stop-color="white" stop-opacity="0.91834"/>
<stop offset="0.866667" stop-color="white" stop-opacity="0.96449"/>
<stop offset="0.933333" stop-color="white" stop-opacity="0.991353"/>
<stop offset="1" stop-color="white"/>
</linearGradient>
</defs>
</svg>
