<svg width="18" height="18" viewBox="0 0 18 18" fill="none" xmlns="http://www.w3.org/2000/svg">
<path d="M18 9C18 13.9705 13.9705 18 9 18C4.02947 18 0 13.9705 0 9C0 9.00211 9 0.00101953 9 0C13.9705 0 18 4.02947 18 9Z" fill="#1156BE"/>
<path d="M8.97592 9.00003H9C9 8.99188 9 8.98407 9 8.97595C8.99199 8.984 8.98397 8.99202 8.97592 9.00003Z" fill="#F0F0F0"/>
<path d="M9 4.69662C9 3.11301 9 2.0753 9 0.000976562H8.99849C4.02863 0.00178516 0 4.03087 0 9.00094H4.69564V6.35677L7.33982 9.00094H8.97595C8.984 8.99293 8.99202 8.98491 9.00004 8.97686C9.00004 8.37052 9.00004 7.8295 9.00004 7.34083L6.35583 4.69662H9Z" fill="#F0F0F0"/>
<path d="M4.55328 1.17383C3.14566 1.97536 1.97545 3.14557 1.17392 4.55319V8.99993H3.52176V3.5217V3.52167H9.00002C9.00002 2.78117 9.00002 2.07573 9.00002 1.17383H4.55328Z" fill="#D80027"/>
<path d="M9 7.89323L5.80243 4.69569H4.69568C4.69568 4.69566 4.69568 4.69569 4.69568 4.69569L8.99996 8.99998H9C9 8.99998 9 8.23691 9 7.89323Z" fill="#D80027"/>
<circle cx="14" cy="5" r="1" fill="white"/>
<circle cx="12" cy="8" r="1" fill="white"/>
<circle cx="16" cy="8" r="1" fill="white"/>
<circle cx="14" cy="13" r="1" fill="white"/>
<circle cx="5.5" cy="12.5" r="1.5" fill="white"/>
</svg>
